SplineFontDB: 3.0
FontName: Magra-Bold
FullName: Magra Bold
FamilyName: Magra
Weight: Demi
Copyright: Copyright (c) 2011, FontFuror (info@fontfuror), with Reserved Names "Magra" "Magra Pro"
Version: 1.001
ItalicAngle: 0
UnderlinePosition: -50
UnderlineWidth: 50
Ascent: 800
Descent: 200
sfntRevision: 0x00010042
LayerCount: 2
Layer: 0 1 "Back"  1
Layer: 1 1 "Fore"  0
XUID: [1021 26 119150205 9271563]
FSType: 0
OS2Version: 2
OS2_WeightWidthSlopeOnly: 0
OS2_UseTypoMetrics: 1
CreationTime: 1325880201
ModificationTime: 1325881674
PfmFamily: 17
TTFWeight: 600
TTFWidth: 5
LineGap: 0
VLineGap: 0
Panose: 2 0 0 0 0 0 0 0 0 0
OS2TypoAscent: 168
OS2TypoAOffset: 1
OS2TypoDescent: -47
OS2TypoDOffset: 1
OS2TypoLinegap: 0
OS2WinAscent: 0
OS2WinAOffset: 1
OS2WinDescent: 3
OS2WinDOffset: 1
HheadAscent: 0
HheadAOffset: 1
HheadDescent: -3
HheadDOffset: 1
OS2SubXSize: 700
OS2SubYSize: 650
OS2SubXOff: 0
OS2SubYOff: 140
OS2SupXSize: 700
OS2SupYSize: 650
OS2SupXOff: 0
OS2SupYOff: 477
OS2StrikeYSize: 50
OS2StrikeYPos: 250
OS2Vendor: 'pyrs'
OS2CodePages: 00000001.00000000
OS2UnicodeRanges: 00000023.00000000.00000000.00000000
DEI: 91125
TtTable: prep
PUSHW_1
 511
SCANCTRL
PUSHB_1
 4
SCANTYPE
EndTTInstrs
ShortTable: maxp 16
  1
  0
  428
  73
  7
  0
  0
  2
  0
  1
  1
  0
  64
  0
  0
  0
EndShort
LangName: 1033 "" "" "" "VivianaMonsalve: Magra Bold: 2011" "" "Version 1.001" "" "Magra is a trademark of Viviana Monsalve." "Viviana Monsalve" "Viviana Monsalve" "" "http://www.fontfuror.com" "http://www.fontfuror.com" "This Font Software is licensed under the SIL Open Font License, Version 1.1. This license is available with a FAQ at: http://scripts.sil.org/OFL" "http://scripts.sil.org/OFL" 
GaspTable: 1 65535 15 1
Encoding: UnicodeBmp
UnicodeInterp: none
NameList: Adobe Glyph List
DisplaySize: -24
AntiAlias: 1
FitToEm: 1
BeginChars: 65568 428

StartChar: .notdef
Encoding: 65536 -1 0
Width: 637
Flags: W
LayerCount: 2
Fore
SplineSet
537 760 m 1,0,-1
 537 0 l 1,1,-1
 99 0 l 1,2,-1
 99 760 l 1,3,-1
 537 760 l 1,0,-1
179 690 m 1,4,-1
 179 70 l 1,5,-1
 456 70 l 1,6,-1
 456 690 l 1,7,-1
 179 690 l 1,4,-1
EndSplineSet
EndChar

StartChar: exclam
Encoding: 33 33 4
Width: 311
GlyphClass: 2
Flags: W
LayerCount: 2
Fore
SplineSet
247 711 m 1,0,-1
 225 224 l 1,1,-1
 90 214 l 1,2,-1
 67 701 l 1,3,-1
 247 711 l 1,0,-1
162 169 m 0,4,5
 249 169 249 169 249 74 c 0,6,7
 249 37 249 37 225.5 12 c 128,-1,8
 202 -13 202 -13 153 -13 c 0,9,10
 67 -13 67 -13 67 82 c 0,11,12
 67 119 67 119 90 144 c 128,-1,13
 113 169 113 169 162 169 c 0,4,5
EndSplineSet
EndChar

StartChar: quotedbl
Encoding: 34 34 5
Width: 390
GlyphClass: 2
Flags: W
LayerCount: 2
Fore
SplineSet
49 759 m 1,0,-1
 173 759 l 1,1,-1
 173 645 l 1,2,-1
 161 487 l 1,3,-1
 62 487 l 1,4,-1
 49 645 l 1,5,-1
 49 759 l 1,0,-1
217 759 m 1,6,-1
 341 759 l 1,7,-1
 341 645 l 1,8,-1
 329 487 l 1,9,-1
 230 487 l 1,10,-1
 217 645 l 1,11,-1
 217 759 l 1,6,-1
EndSplineSet
EndChar

StartChar: numbersign
Encoding: 35 35 6
Width: 615
GlyphClass: 2
Flags: W
LayerCount: 2
Fore
SplineSet
493 630 m 1,0,-1
 471 485 l 1,1,-1
 574 485 l 1,2,-1
 559 383 l 1,3,-1
 455 383 l 1,4,-1
 443 298 l 1,5,-1
 543 298 l 1,6,-1
 528 198 l 1,7,-1
 427 198 l 1,8,-1
 410 75 l 1,9,-1
 305 61 l 1,10,-1
 325 198 l 1,11,-1
 241 198 l 1,12,-1
 223 75 l 1,13,-1
 119 61 l 1,14,-1
 139 198 l 1,15,-1
 38 198 l 1,16,-1
 53 298 l 1,17,-1
 154 298 l 1,18,-1
 167 383 l 1,19,-1
 68 383 l 1,20,-1
 83 485 l 1,21,-1
 182 485 l 1,22,-1
 202 616 l 1,23,-1
 306 630 l 1,24,-1
 284 485 l 1,25,-1
 368 485 l 1,26,-1
 388 616 l 1,27,-1
 493 630 l 1,0,-1
269 383 m 1,28,-1
 256 298 l 1,29,-1
 340 298 l 1,30,-1
 353 383 l 1,31,-1
 269 383 l 1,28,-1
EndSplineSet
EndChar

StartChar: dollar
Encoding: 36 36 7
Width: 524
GlyphClass: 2
Flags: W
LayerCount: 2
Fore
SplineSet
283 504 m 0,0,1
 256 504 256 504 242 491 c 128,-1,2
 228 478 228 478 228 459 c 0,3,4
 228 431 228 431 314 391 c 0,5,6
 323 386 323 386 338.5 378.5 c 128,-1,7
 354 371 354 371 371 360.5 c 128,-1,8
 388 350 388 350 410 332 c 1,9,10
 454 293 454 293 454 233 c 128,-1,11
 454 173 454 173 414 128.5 c 128,-1,12
 374 84 374 84 304 68 c 1,13,-1
 307 -65 l 1,14,-1
 161 -82 l 1,15,-1
 184 64 l 1,16,17
 116 73 116 73 32 118 c 1,18,-1
 82 227 l 1,19,20
 182 177 182 177 241 177 c 0,21,22
 270 177 270 177 288 190 c 128,-1,23
 306 203 306 203 306 227 c 0,24,25
 306 242 306 242 299 249.5 c 128,-1,26
 292 257 292 257 287.5 261 c 128,-1,27
 283 265 283 265 274 270 c 0,28,29
 253 280 253 280 241 285.5 c 128,-1,30
 229 291 229 291 224.5 293.5 c 128,-1,31
 220 296 220 296 200.5 304.5 c 128,-1,32
 181 313 181 313 176 315.5 c 128,-1,33
 171 318 171 318 154 327 c 128,-1,34
 137 336 137 336 131.5 341 c 128,-1,35
 126 346 126 346 113.5 356 c 128,-1,36
 101 366 101 366 96 374.5 c 128,-1,37
 91 383 91 383 84 396 c 0,38,39
 73 418 73 418 73 451 c 0,40,41
 73 515 73 515 116.5 558.5 c 128,-1,42
 160 602 160 602 232 614 c 1,43,-1
 229 739 l 1,44,-1
 375 756 l 1,45,-1
 351 613 l 1,46,47
 411 605 411 605 484 567 c 1,48,-1
 433 457 l 1,49,50
 330 504 330 504 283 504 c 0,0,1
EndSplineSet
EndChar

StartChar: percent
Encoding: 37 37 8
Width: 787
GlyphClass: 2
Flags: W
LayerCount: 2
Fore
SplineSet
201 732 m 0,0,1
 251 732 251 732 287 713 c 128,-1,2
 323 694 323 694 340 664 c 1,3,4
 370 607 370 607 370 556 c 0,5,6
 370 468 370 468 321 416.5 c 128,-1,7
 272 365 272 365 195 365 c 0,8,9
 145 365 145 365 109 384 c 128,-1,10
 73 403 73 403 56 433 c 0,11,12
 25 488 25 488 25 540 c 0,13,14
 25 628 25 628 74.5 680 c 128,-1,15
 124 732 124 732 201 732 c 0,0,1
240.5 609 m 128,-1,17
 226 631 226 631 198 631 c 128,-1,18
 170 631 170 631 155 606.5 c 128,-1,19
 140 582 140 582 140 545.5 c 128,-1,20
 140 509 140 509 154.5 487 c 128,-1,21
 169 465 169 465 197.5 465 c 128,-1,22
 226 465 226 465 240.5 489.5 c 128,-1,23
 255 514 255 514 255 550.5 c 128,-1,16
 255 587 255 587 240.5 609 c 128,-1,17
588 357 m 0,24,25
 638 357 638 357 674 337.5 c 128,-1,26
 710 318 710 318 727 288 c 0,27,28
 758 233 758 233 758 181 c 0,29,30
 758 93 758 93 709 41 c 128,-1,31
 660 -11 660 -11 583 -11 c 0,32,33
 533 -11 533 -11 496.5 8.5 c 128,-1,34
 460 28 460 28 444 58 c 0,35,36
 413 113 413 113 413 164 c 0,37,38
 413 253 413 253 462 305 c 128,-1,39
 511 357 511 357 588 357 c 0,24,25
587 256 m 0,40,41
 528 256 528 256 528 168 c 0,42,43
 528 134 528 134 543 112 c 128,-1,44
 558 90 558 90 585 90 c 0,45,46
 643 90 643 90 643 177 c 0,47,48
 643 212 643 212 628.5 234 c 128,-1,49
 614 256 614 256 587 256 c 0,40,41
624 629 m 1,50,-1
 229 21 l 1,51,-1
 147 76 l 1,52,-1
 543 688 l 1,53,-1
 624 629 l 1,50,-1
EndSplineSet
EndChar

StartChar: ampersand
Encoding: 38 38 9
Width: 621
GlyphClass: 2
Flags: W
LayerCount: 2
Fore
SplineSet
260 566 m 0,0,1
 230 566 230 566 212 550 c 128,-1,2
 194 534 194 534 194 500.5 c 128,-1,3
 194 467 194 467 223 442.5 c 128,-1,4
 252 418 252 418 322 394 c 1,5,-1
 308 292 l 1,6,-1
 274 287 l 1,7,8
 234 280 234 280 208 254 c 128,-1,9
 182 228 182 228 182 187.5 c 128,-1,10
 182 147 182 147 206.5 123 c 128,-1,11
 231 99 231 99 267 99 c 0,12,13
 320 99 320 99 349 137 c 1,14,-1
 349 394 l 1,15,-1
 443 394 l 1,16,-1
 562 401 l 1,17,-1
 549 308 l 1,18,-1
 475 297 l 1,19,-1
 475 149 l 2,20,21
 475 120 475 120 490.5 107 c 128,-1,22
 506 94 506 94 530 94 c 128,-1,23
 554 94 554 94 582 104 c 1,24,-1
 610 26 l 1,25,26
 549 -12 549 -12 490 -12 c 0,27,28
 413 -12 413 -12 388 45 c 1,29,-1
 384 45 l 1,30,31
 329 -12 329 -12 235 -12 c 128,-1,32
 141 -12 141 -12 81 33.5 c 128,-1,33
 21 79 21 79 21 172 c 0,34,35
 21 236 21 236 57.5 281.5 c 128,-1,36
 94 327 94 327 150 347 c 1,37,-1
 150 352 l 1,38,39
 102 373 102 373 74.5 406 c 128,-1,40
 47 439 47 439 47 497 c 0,41,42
 47 573 47 573 105.5 622.5 c 128,-1,43
 164 672 164 672 260 672 c 128,-1,44
 356 672 356 672 405.5 634 c 128,-1,45
 455 596 455 596 465 515 c 1,46,-1
 335 493 l 1,47,48
 323 566 323 566 260 566 c 0,0,1
EndSplineSet
EndChar

StartChar: quotesingle
Encoding: 39 39 10
Width: 218
GlyphClass: 2
Flags: W
LayerCount: 2
Fore
SplineSet
47 759 m 1,0,-1
 172 759 l 1,1,-1
 172 645 l 1,2,-1
 160 487 l 1,3,-1
 61 487 l 1,4,-1
 47 645 l 1,5,-1
 47 759 l 1,0,-1
EndSplineSet
EndChar

StartChar: parenleft
Encoding: 40 40 11
Width: 340
GlyphClass: 2
Flags: W
LayerCount: 2
Fore
SplineSet
39 312 m 128,-1,1
 39 456 39 456 86.5 577.5 c 128,-1,2
 134 699 134 699 203 779 c 1,3,-1
 325 763 l 1,4,5
 179 551 179 551 179 312 c 128,-1,6
 179 73 179 73 325 -139 c 1,7,-1
 203 -155 l 1,8,9
 134 -75 134 -75 86.5 46.5 c 128,-1,0
 39 168 39 168 39 312 c 128,-1,1
EndSplineSet
EndChar

StartChar: parenright
Encoding: 41 41 12
Width: 344
GlyphClass: 2
Flags: W
LayerCount: 2
Fore
SplineSet
16 -139 m 1,0,1
 162 75 162 75 162 312 c 128,-1,2
 162 549 162 549 15 762 c 1,3,-1
 137 778 l 1,4,5
 207 698 207 698 254.5 578.5 c 128,-1,6
 302 459 302 459 302 314.5 c 128,-1,7
 302 170 302 170 254.5 46.5 c 128,-1,8
 207 -77 207 -77 137 -156 c 1,9,-1
 16 -139 l 1,0,1
EndSplineSet
EndChar

StartChar: asterisk
Encoding: 42 42 13
Width: 378
GlyphClass: 2
Flags: W
LayerCount: 2
Fore
SplineSet
358 398 m 1,0,-1
 258 453 l 1,1,-1
 231 517 l 1,2,-1
 298 526 l 1,3,-1
 388 470 l 1,4,-1
 358 398 l 1,0,-1
55 661 m 1,5,-1
 158 608 l 1,6,-1
 183 544 l 1,7,-1
 112 536 l 1,8,-1
 24 590 l 1,9,-1
 55 661 l 1,5,-1
397 595 m 1,10,-1
 302 537 l 1,11,-1
 231 544 l 1,12,-1
 257 607 l 1,13,-1
 352 657 l 1,14,-1
 397 595 l 1,10,-1
245 731 m 1,15,-1
 249 615 l 1,16,-1
 207 558 l 1,17,-1
 165 615 l 1,18,-1
 169 721 l 1,19,-1
 245 731 l 1,15,-1
170 330 m 1,20,-1
 165 447 l 1,21,-1
 207 503 l 1,22,-1
 249 448 l 1,23,-1
 245 339 l 1,24,-1
 170 330 l 1,20,-1
17 464 m 1,25,-1
 114 525 l 1,26,-1
 183 517 l 1,27,-1
 156 452 l 1,28,-1
 63 403 l 1,29,-1
 17 464 l 1,25,-1
EndSplineSet
EndChar

StartChar: plus
Encoding: 43 43 14
Width: 546
GlyphClass: 2
Flags: W
LayerCount: 2
Fore
SplineSet
213 338 m 1,0,-1
 213 491 l 1,1,-1
 337 509 l 1,2,-1
 337 338 l 1,3,-1
 509 338 l 1,4,-1
 489 214 l 1,5,-1
 337 214 l 1,6,-1
 337 61 l 1,7,-1
 213 42 l 1,8,-1
 213 214 l 1,9,-1
 40 214 l 1,10,-1
 60 338 l 1,11,-1
 213 338 l 1,0,-1
EndSplineSet
EndChar

StartChar: comma
Encoding: 44 44 15
Width: 236
GlyphClass: 2
Flags: W
LayerCount: 2
Fore
SplineSet
186 147 m 1,0,1
 189 111 189 111 189 68.5 c 128,-1,2
 189 26 189 26 185 5.5 c 128,-1,3
 181 -15 181 -15 168 -46 c 0,4,5
 140 -110 140 -110 32 -171 c 1,6,-1
 -33 -104 l 1,7,8
 17 -59 17 -59 32.5 -31 c 128,-1,9
 48 -3 48 -3 48 46.5 c 128,-1,10
 48 96 48 96 44 128 c 1,11,-1
 186 147 l 1,0,1
EndSplineSet
EndChar

StartChar: hyphen
Encoding: 45 45 16
Width: 342
GlyphClass: 2
Flags: W
LayerCount: 2
Fore
SplineSet
304 310 m 1,0,-1
 304 197 l 1,1,-1
 38 197 l 1,2,-1
 38 310 l 1,3,-1
 304 310 l 1,0,-1
EndSplineSet
EndChar

StartChar: period
Encoding: 46 46 17
Width: 273
GlyphClass: 2
Flags: W
LayerCount: 2
Fore
SplineSet
132 -12 m 0,0,1
 47 -12 47 -12 47 81 c 0,2,3
 47 117 47 117 70 142 c 128,-1,4
 93 167 93 167 141 167 c 0,5,6
 226 167 226 167 226 73 c 0,7,8
 226 37 226 37 203 12.5 c 128,-1,9
 180 -12 180 -12 132 -12 c 0,0,1
EndSplineSet
EndChar

StartChar: slash
Encoding: 47 47 18
Width: 341
GlyphClass: 2
Flags: W
LayerCount: 2
Fore
SplineSet
214 763 m 1,0,-1
 336 763 l 1,1,-1
 129 -115 l 1,2,-1
 6 -115 l 1,3,-1
 214 763 l 1,0,-1
EndSplineSet
EndChar

StartChar: zero
Encoding: 48 48 19
Width: 591
GlyphClass: 2
Flags: W
LayerCount: 2
Fore
SplineSet
305 538 m 0,0,1
 365 538 365 538 411.5 520.5 c 128,-1,2
 458 503 458 503 485.5 475.5 c 128,-1,3
 513 448 513 448 530 412 c 0,4,5
 561 349 561 349 561 276 c 0,6,7
 561 149 561 149 484.5 71.5 c 128,-1,8
 408 -6 408 -6 285 -6 c 0,9,10
 226 -6 226 -6 179.5 11.5 c 128,-1,11
 133 29 133 29 106 56 c 128,-1,12
 79 83 79 83 61 120 c 0,13,14
 30 182 30 182 30 256 c 0,15,16
 30 384 30 384 106.5 461 c 128,-1,17
 183 538 183 538 305 538 c 0,0,1
293 418 m 0,18,19
 191 418 191 418 191 260 c 0,20,21
 191 114 191 114 298 114 c 0,22,23
 402 114 402 114 402 272 c 0,24,25
 402 418 402 418 293 418 c 0,18,19
EndSplineSet
EndChar

StartChar: one
Encoding: 49 49 20
Width: 442
GlyphClass: 2
Flags: W
LayerCount: 2
Fore
SplineSet
419 0 m 1,0,-1
 57 0 l 1,1,-1
 57 98 l 1,2,-1
 167 108 l 1,3,-1
 167 293 l 1,4,-1
 194 380 l 1,5,-1
 190 382 l 1,6,-1
 144 344 l 1,7,-1
 82 313 l 1,8,-1
 34 404 l 1,9,-1
 165 497 l 1,10,-1
 212 538 l 1,11,-1
 329 525 l 1,12,-1
 321 378 l 1,13,-1
 321 107 l 1,14,-1
 419 98 l 1,15,-1
 419 0 l 1,0,-1
EndSplineSet
EndChar

StartChar: two
Encoding: 50 50 21
Width: 492
GlyphClass: 2
Flags: W
LayerCount: 2
Fore
SplineSet
41 488 m 1,0,1
 136 540 136 540 239 540 c 128,-1,2
 342 540 342 540 395 491.5 c 128,-1,3
 448 443 448 443 448 366 c 0,4,5
 448 322 448 322 428 282.5 c 128,-1,6
 408 243 408 243 386 222 c 0,7,8
 328 163 328 163 216 95 c 1,9,-1
 220 91 l 1,10,-1
 291 112 l 1,11,-1
 466 112 l 1,12,-1
 436 0 l 1,13,-1
 35 0 l 1,14,-1
 35 115 l 1,15,16
 190 229 190 229 238.5 274.5 c 128,-1,17
 287 320 287 320 287 356 c 128,-1,18
 287 392 287 392 266 409 c 128,-1,19
 245 426 245 426 221 426 c 128,-1,20
 197 426 197 426 177.5 422 c 128,-1,21
 158 418 158 418 146 414 c 0,22,23
 104 402 104 402 89 394 c 1,24,-1
 41 488 l 1,0,1
EndSplineSet
EndChar

StartChar: three
Encoding: 51 51 22
Width: 502
GlyphClass: 2
Flags: W
LayerCount: 2
Fore
SplineSet
303 66 m 0,0,1
 303 152 303 152 191 152 c 2,2,-1
 123 152 l 1,3,-1
 123 262 l 1,4,5
 125 262 125 262 127 262 c 0,6,7
 194 262 194 262 233 290.5 c 128,-1,8
 272 319 272 319 272 357 c 0,9,10
 272 368 272 368 269 381 c 0,11,12
 261 424 261 424 191 424 c 0,13,14
 155 424 155 424 80 396 c 1,15,-1
 40 490 l 1,16,17
 140 540 140 540 240 540 c 128,-1,18
 340 540 340 540 389.5 496 c 128,-1,19
 439 452 439 452 439 381 c 0,20,21
 439 277 439 277 346 224 c 1,22,23
 403 207 403 207 434.5 165 c 128,-1,24
 466 123 466 123 466 65 c 0,25,26
 466 -36 466 -36 398.5 -91.5 c 128,-1,27
 331 -147 331 -147 218 -147 c 128,-1,28
 105 -147 105 -147 10 -88 c 1,29,-1
 53 12 l 1,30,31
 135 -28 135 -28 209 -28 c 0,32,33
 303 -28 303 -28 303 66 c 0,0,1
EndSplineSet
EndChar

StartChar: four
Encoding: 52 52 23
Width: 574
GlyphClass: 2
Flags: W
LayerCount: 2
Fore
SplineSet
464 111 m 1,0,-1
 561 111 l 1,1,-1
 530 0 l 1,2,-1
 464 0 l 1,3,-1
 464 -135 l 1,4,-1
 312 -151 l 1,5,-1
 312 0 l 1,6,-1
 31 0 l 1,7,-1
 31 102 l 1,8,-1
 254 546 l 1,9,-1
 366 471 l 1,10,-1
 196 111 l 1,11,-1
 312 111 l 1,12,-1
 312 170 l 1,13,-1
 342 314 l 1,14,-1
 464 331 l 1,15,-1
 464 111 l 1,0,-1
EndSplineSet
EndChar

StartChar: five
Encoding: 53 53 24
Width: 518
GlyphClass: 2
Flags: W
LayerCount: 2
Fore
SplineSet
273 296 m 0,0,1
 376 296 376 296 435.5 244.5 c 128,-1,2
 495 193 495 193 495 87 c 0,3,4
 495 11 495 11 456 -44 c 0,5,6
 382 -148 382 -148 249 -148 c 128,-1,7
 116 -148 116 -148 25 -88 c 1,8,-1
 68 15 l 1,9,10
 157 -23 157 -23 184.5 -27 c 128,-1,11
 212 -31 212 -31 229 -31 c 0,12,13
 275 -31 275 -31 303 -2 c 128,-1,14
 331 27 331 27 331 79 c 128,-1,15
 331 131 331 131 302.5 156.5 c 128,-1,16
 274 182 274 182 230 182 c 128,-1,17
 186 182 186 182 135 155 c 1,18,-1
 66 200 l 1,19,-1
 100 533 l 1,20,-1
 468 533 l 1,21,-1
 451 416 l 1,22,-1
 241 416 l 1,23,-1
 228 312 l 1,24,-1
 198 280 l 1,25,26
 230 296 230 296 273 296 c 0,0,1
EndSplineSet
EndChar

StartChar: six
Encoding: 54 54 25
Width: 563
GlyphClass: 2
Flags: W
LayerCount: 2
Fore
SplineSet
461 538 m 1,0,1
 395 563 395 563 333 563 c 128,-1,2
 271 563 271 563 238 518.5 c 128,-1,3
 205 474 205 474 199 397 c 1,4,5
 250 433 250 433 319 433 c 0,6,7
 422 433 422 433 475.5 372.5 c 128,-1,8
 529 312 529 312 529 214.5 c 128,-1,9
 529 117 529 117 466 52.5 c 128,-1,10
 403 -12 403 -12 291 -12 c 0,11,12
 160 -12 160 -12 97 68 c 128,-1,13
 34 148 34 148 34 317.5 c 128,-1,14
 34 487 34 487 107 583 c 128,-1,15
 180 679 180 679 312 679 c 0,16,17
 408 679 408 679 504 636 c 1,18,-1
 461 538 l 1,0,1
199 258 m 2,19,20
 199 104 199 104 285 104 c 0,21,22
 365 104 365 104 365 210.5 c 128,-1,23
 365 317 365 317 291 317 c 0,24,25
 233 317 233 317 199 283 c 1,26,-1
 199 258 l 2,19,20
EndSplineSet
EndChar

StartChar: seven
Encoding: 55 55 26
Width: 486
GlyphClass: 2
Flags: W
LayerCount: 2
Fore
SplineSet
465 420 m 1,0,1
 352 196 352 196 215 -153 c 1,2,-1
 72 -84 l 1,3,-1
 312 406 l 1,4,-1
 17 406 l 1,5,-1
 31 533 l 1,6,-1
 465 533 l 1,7,-1
 465 420 l 1,0,1
EndSplineSet
EndChar

StartChar: eight
Encoding: 56 56 27
Width: 538
GlyphClass: 2
Flags: W
LayerCount: 2
Fore
SplineSet
106 627 m 128,-1,1
 164 680 164 680 271.5 680 c 128,-1,2
 379 680 379 680 431 634 c 128,-1,3
 483 588 483 588 483 518 c 0,4,5
 483 424 483 424 387 368 c 1,6,7
 511 309 511 309 511 195 c 0,8,9
 511 108 511 108 446 48 c 128,-1,10
 381 -12 381 -12 263.5 -12 c 128,-1,11
 146 -12 146 -12 85.5 36 c 128,-1,12
 25 84 25 84 25 173 c 0,13,14
 25 234 25 234 53.5 273 c 128,-1,15
 82 312 82 312 144 346 c 1,16,17
 48 401 48 401 48 493 c 0,18,0
 48 574 48 574 106 627 c 128,-1,1
199 245.5 m 128,-1,20
 183 221 183 221 183 184 c 128,-1,21
 183 147 183 147 206.5 125 c 128,-1,22
 230 103 230 103 274 103 c 0,23,24
 353 103 353 103 353 191 c 0,25,26
 353 228 353 228 330 248 c 0,27,28
 309 267 309 267 252 291 c 1,29,19
 215 270 215 270 199 245.5 c 128,-1,20
261 572 m 0,30,31
 201 572 201 572 201 512 c 128,-1,32
 201 452 201 452 283 420 c 1,33,34
 330 451 330 451 330 506 c 0,35,36
 330 538 330 538 311.5 555 c 128,-1,37
 293 572 293 572 261 572 c 0,30,31
EndSplineSet
EndChar

StartChar: nine
Encoding: 57 57 28
Width: 550
GlyphClass: 2
Flags: W
LayerCount: 2
Fore
SplineSet
91 473 m 128,-1,1
 157 540 157 540 278.5 540 c 128,-1,2
 400 540 400 540 459 460 c 128,-1,3
 518 380 518 380 518 212.5 c 128,-1,4
 518 45 518 45 442 -53 c 128,-1,5
 366 -151 366 -151 233 -151 c 0,6,7
 146 -151 146 -151 48 -108 c 1,8,-1
 91 -10 l 1,9,10
 159 -35 159 -35 220 -35 c 128,-1,11
 281 -35 281 -35 315.5 11.5 c 128,-1,12
 350 58 350 58 356 136 c 1,13,14
 311 95 311 95 233 95 c 0,15,16
 134 95 134 95 79.5 151 c 128,-1,17
 25 207 25 207 25 297 c 0,18,0
 25 406 25 406 91 473 c 128,-1,1
266 424 m 0,19,20
 187 424 187 424 187 316 c 0,21,22
 187 269 187 269 208.5 240 c 128,-1,23
 230 211 230 211 275.5 211 c 128,-1,24
 321 211 321 211 355 243 c 1,25,-1
 355 263 l 2,26,27
 355 424 355 424 266 424 c 0,19,20
EndSplineSet
EndChar

StartChar: colon
Encoding: 58 58 29
Width: 273
GlyphClass: 2
Flags: W
LayerCount: 2
Fore
SplineSet
141 167 m 0,0,1
 226 167 226 167 226 73 c 0,2,3
 226 37 226 37 203 12.5 c 128,-1,4
 180 -12 180 -12 132 -12 c 0,5,6
 47 -12 47 -12 47 81 c 0,7,8
 47 117 47 117 70 142 c 128,-1,9
 93 167 93 167 141 167 c 0,0,1
141 508 m 0,10,11
 226 508 226 508 226 414 c 0,12,13
 226 378 226 378 203 353.5 c 128,-1,14
 180 329 180 329 132 329 c 0,15,16
 47 329 47 329 47 423 c 0,17,18
 47 459 47 459 70 483.5 c 128,-1,19
 93 508 93 508 141 508 c 0,10,11
EndSplineSet
EndChar

StartChar: semicolon
Encoding: 59 59 30
Width: 263
GlyphClass: 2
Flags: W
LayerCount: 2
Fore
SplineSet
136 508 m 0,0,1
 221 508 221 508 221 414 c 0,2,3
 221 378 221 378 198 353.5 c 128,-1,4
 175 329 175 329 127 329 c 0,5,6
 42 329 42 329 42 423 c 0,7,8
 42 459 42 459 65 483.5 c 128,-1,9
 88 508 88 508 136 508 c 0,0,1
208 147 m 1,10,11
 211 75 211 75 211 50.5 c 128,-1,12
 211 26 211 26 207 5 c 128,-1,13
 203 -16 203 -16 189 -46 c 0,14,15
 160 -111 160 -111 53 -171 c 1,16,-1
 -11 -104 l 1,17,18
 39 -59 39 -59 54.5 -31 c 128,-1,19
 70 -3 70 -3 70 38.5 c 128,-1,20
 70 80 70 80 66 128 c 1,21,-1
 208 147 l 1,10,11
EndSplineSet
EndChar

StartChar: less
Encoding: 60 60 31
Width: 530
GlyphClass: 2
Flags: W
LayerCount: 2
Fore
SplineSet
406 512 m 1,0,-1
 490 423 l 1,1,-1
 214 243 l 1,2,-1
 490 86 l 1,3,-1
 407 -3 l 1,4,-1
 69 186 l 1,5,-1
 50 279 l 1,6,-1
 406 512 l 1,0,-1
EndSplineSet
EndChar

StartChar: equal
Encoding: 61 61 32
Width: 547
GlyphClass: 2
Flags: W
LayerCount: 2
Fore
SplineSet
501 243 m 1,0,-1
 484 125 l 1,1,-1
 46 125 l 1,2,-1
 63 243 l 1,3,-1
 501 243 l 1,0,-1
501 454 m 1,4,-1
 484 337 l 1,5,-1
 46 337 l 1,6,-1
 63 454 l 1,7,-1
 501 454 l 1,4,-1
EndSplineSet
EndChar

StartChar: greater
Encoding: 62 62 33
Width: 530
GlyphClass: 2
Flags: W
LayerCount: 2
Fore
SplineSet
127 512 m 1,0,-1
 484 279 l 1,1,-1
 464 186 l 1,2,-1
 126 -3 l 1,3,-1
 43 86 l 1,4,-1
 319 243 l 1,5,-1
 43 423 l 1,6,-1
 127 512 l 1,0,-1
EndSplineSet
EndChar

StartChar: question
Encoding: 63 63 34
Width: 457
GlyphClass: 2
Flags: W
LayerCount: 2
Fore
SplineSet
21 662 m 1,0,1
 112 720 112 720 216 720 c 128,-1,2
 320 720 320 720 373 674 c 128,-1,3
 426 628 426 628 426 559.5 c 128,-1,4
 426 491 426 491 400.5 454.5 c 128,-1,5
 375 418 375 418 311 374 c 0,6,7
 279 352 279 352 271 334.5 c 128,-1,8
 263 317 263 317 262 283 c 2,9,-1
 259 218 l 1,10,-1
 118 202 l 1,11,12
 110 295 110 295 110 323 c 128,-1,13
 110 351 110 351 127 374 c 128,-1,14
 144 397 144 397 177.5 424.5 c 128,-1,15
 211 452 211 452 223.5 463.5 c 128,-1,16
 236 475 236 475 248.5 495.5 c 128,-1,17
 261 516 261 516 261 539 c 0,18,19
 261 604 261 604 180 604 c 0,20,21
 155 604 155 604 136.5 598.5 c 128,-1,22
 118 593 118 593 92.5 584.5 c 128,-1,23
 67 576 67 576 59 574 c 1,24,-1
 21 662 l 1,0,1
194 167 m 0,25,26
 279 167 279 167 279 73 c 0,27,28
 279 37 279 37 256 12.5 c 128,-1,29
 233 -12 233 -12 185 -12 c 0,30,31
 100 -12 100 -12 100 81 c 0,32,33
 100 117 100 117 123 142 c 128,-1,34
 146 167 146 167 194 167 c 0,25,26
EndSplineSet
EndChar

StartChar: at
Encoding: 64 64 35
Width: 839
GlyphClass: 2
Flags: W
LayerCount: 2
Fore
SplineSet
399 159 m 0,0,1
 420 159 420 159 439.5 171 c 128,-1,2
 459 183 459 183 469 197 c 1,3,4
 480 339 480 339 487 400 c 1,5,6
 473 404 473 404 455 404 c 0,7,8
 398 404 398 404 372.5 354.5 c 128,-1,9
 347 305 347 305 347 242 c 0,10,11
 347 159 347 159 399 159 c 0,0,1
594 464 m 1,12,-1
 564 172 l 1,13,14
 564 154 564 154 585 154 c 0,15,16
 621 154 621 154 654 216 c 128,-1,17
 687 278 687 278 687 394 c 0,18,19
 687 453 687 453 666.5 495.5 c 128,-1,20
 646 538 646 538 610 561 c 0,21,22
 543 605 543 605 446 605 c 0,23,24
 362 605 362 605 290 558 c 0,25,26
 250 532 250 532 220 492 c 128,-1,27
 190 452 190 452 170.5 387 c 128,-1,28
 151 322 151 322 151 252 c 128,-1,29
 151 182 151 182 163.5 135.5 c 128,-1,30
 176 89 176 89 195 60 c 128,-1,31
 214 31 214 31 242 9.5 c 128,-1,32
 270 -12 270 -12 294 -22.5 c 128,-1,33
 318 -33 318 -33 348 -39 c 0,34,35
 388 -47 388 -47 429 -47 c 0,36,37
 516 -47 516 -47 608 -9 c 1,38,-1
 643 -99 l 1,39,40
 531 -151 531 -151 400 -151 c 0,41,42
 241 -151 241 -151 145 -66 c 0,43,44
 36 32 36 32 36 230 c 0,45,46
 36 352 36 352 73.5 447 c 128,-1,47
 111 542 111 542 174 598 c 0,48,49
 299 709 299 709 461 709 c 128,-1,50
 623 709 623 709 711 628 c 128,-1,51
 799 547 799 547 799 407 c 0,52,53
 799 244 799 244 730.5 152.5 c 128,-1,54
 662 61 662 61 563 61 c 0,55,56
 504 61 504 61 491 117 c 1,57,-1
 487 117 l 1,58,59
 440 65 440 65 371.5 65 c 128,-1,60
 303 65 303 65 271 114.5 c 128,-1,61
 239 164 239 164 239 251 c 128,-1,62
 239 338 239 338 295 417 c 128,-1,63
 351 496 351 496 447 496 c 0,64,65
 521 496 521 496 594 464 c 1,12,-1
EndSplineSet
EndChar

StartChar: A
Encoding: 65 65 36
Width: 568
GlyphClass: 2
Flags: W
LayerCount: 2
Fore
SplineSet
373 713 m 1,0,-1
 564 0 l 1,1,-1
 399 0 l 1,2,-1
 359 173 l 1,3,-1
 206 173 l 1,4,-1
 165 0 l 1,5,-1
 3 0 l 1,6,-1
 190 696 l 1,7,-1
 373 713 l 1,0,-1
280 533 m 1,8,-1
 228 292 l 1,9,-1
 338 292 l 1,10,-1
 292 533 l 1,11,-1
 280 533 l 1,8,-1
EndSplineSet
EndChar

StartChar: B
Encoding: 66 66 37
Width: 587
GlyphClass: 2
Flags: W
LayerCount: 2
Fore
SplineSet
67 708 m 1,0,-1
 335 708 l 2,1,2
 434 708 434 708 482.5 665.5 c 128,-1,3
 531 623 531 623 531 554 c 128,-1,4
 531 485 531 485 498 440.5 c 128,-1,5
 465 396 465 396 406 383 c 1,6,-1
 406 377 l 1,7,8
 493 366 493 366 529.5 325 c 128,-1,9
 566 284 566 284 566 209 c 0,10,11
 566 117 566 117 497.5 58.5 c 128,-1,12
 429 0 429 0 304 0 c 2,13,-1
 67 0 l 1,14,-1
 67 708 l 1,0,-1
231 310 m 1,15,-1
 231 117 l 1,16,-1
 294 117 l 2,17,18
 350 117 350 117 370 142.5 c 128,-1,19
 390 168 390 168 390 213 c 128,-1,20
 390 258 390 258 363 284 c 128,-1,21
 336 310 336 310 278 310 c 2,22,-1
 231 310 l 1,15,-1
231 593 m 1,23,-1
 231 427 l 1,24,-1
 279 427 l 2,25,26
 363 427 363 427 363 511 c 0,27,28
 363 553 363 553 345.5 573 c 128,-1,29
 328 593 328 593 285 593 c 2,30,-1
 231 593 l 1,23,-1
EndSplineSet
EndChar

StartChar: C
Encoding: 67 67 38
Width: 556
GlyphClass: 2
Flags: W
LayerCount: 2
Fore
SplineSet
150.5 667.5 m 128,-1,1
 216 720 216 720 324 720 c 128,-1,2
 432 720 432 720 481 664.5 c 128,-1,3
 530 609 530 609 530 481 c 1,4,-1
 367 473 l 1,5,6
 367 546 367 546 352 569 c 128,-1,7
 337 592 337 592 301 592 c 0,8,9
 245 592 245 592 225.5 532 c 128,-1,10
 206 472 206 472 206 350 c 128,-1,11
 206 228 206 228 242 172.5 c 128,-1,12
 278 117 278 117 361 117 c 0,13,14
 412 117 412 117 505 147 c 1,15,-1
 538 43 l 1,16,17
 430 -12 430 -12 315 -12 c 0,18,19
 30 -12 30 -12 30 352 c 0,20,21
 30 455 30 455 57.5 535 c 128,-1,0
 85 615 85 615 150.5 667.5 c 128,-1,1
EndSplineSet
EndChar

StartChar: D
Encoding: 68 68 39
Width: 605
GlyphClass: 2
Flags: W
LayerCount: 2
Fore
SplineSet
67 708 m 1,0,-1
 295 708 l 2,1,2
 364 708 364 708 415.5 687 c 128,-1,3
 467 666 467 666 496.5 633.5 c 128,-1,4
 526 601 526 601 544 552 c 0,5,6
 574 470 574 470 574 352 c 0,7,8
 574 168 574 168 484 72 c 0,9,10
 416 0 416 0 297 0 c 2,11,-1
 67 0 l 1,12,-1
 67 708 l 1,0,-1
231 584 m 1,13,-1
 231 124 l 1,14,-1
 294 124 l 2,15,16
 357 124 357 124 378 182.5 c 128,-1,17
 399 241 399 241 399 359 c 128,-1,18
 399 477 399 477 374.5 530.5 c 128,-1,19
 350 584 350 584 286 584 c 2,20,-1
 231 584 l 1,13,-1
EndSplineSet
EndChar

StartChar: E
Encoding: 69 69 40
Width: 522
GlyphClass: 2
Flags: W
LayerCount: 2
Fore
SplineSet
67 708 m 1,0,-1
 499 708 l 1,1,-1
 481 583 l 1,2,-1
 231 583 l 1,3,-1
 231 422 l 1,4,-1
 457 422 l 1,5,-1
 440 300 l 1,6,-1
 231 300 l 1,7,-1
 231 124 l 1,8,-1
 504 124 l 1,9,-1
 486 0 l 1,10,-1
 67 0 l 1,11,-1
 67 708 l 1,0,-1
EndSplineSet
EndChar

StartChar: F
Encoding: 70 70 41
Width: 495
GlyphClass: 2
Flags: W
LayerCount: 2
Fore
SplineSet
67 708 m 1,0,-1
 484 708 l 1,1,-1
 467 584 l 1,2,-1
 231 584 l 1,3,-1
 231 418 l 1,4,-1
 438 418 l 1,5,-1
 421 296 l 1,6,-1
 231 296 l 1,7,-1
 231 0 l 1,8,-1
 67 0 l 1,9,-1
 67 708 l 1,0,-1
EndSplineSet
EndChar

StartChar: G
Encoding: 71 71 42
Width: 599
GlyphClass: 2
Flags: W
LayerCount: 2
Fore
SplineSet
105.5 620 m 128,-1,1
 179 720 179 720 310.5 720 c 128,-1,2
 442 720 442 720 494 661 c 128,-1,3
 546 602 546 602 546 484 c 1,4,-1
 384 474 l 1,5,6
 384 543 384 543 368.5 567.5 c 128,-1,7
 353 592 353 592 315.5 592 c 128,-1,8
 278 592 278 592 257 573.5 c 128,-1,9
 236 555 236 555 226 518 c 0,10,11
 208 455 208 455 208 337.5 c 128,-1,12
 208 220 208 220 239 168 c 128,-1,13
 270 116 270 116 340 116 c 0,14,15
 374 116 374 116 401 124 c 1,16,-1
 401 240 l 1,17,-1
 305 240 l 1,18,-1
 320 354 l 1,19,-1
 551 354 l 1,20,-1
 551 45 l 1,21,22
 490 16 490 16 435.5 2 c 128,-1,23
 381 -12 381 -12 307.5 -12 c 128,-1,24
 234 -12 234 -12 181 11.5 c 128,-1,25
 128 35 128 35 100 69.5 c 128,-1,26
 72 104 72 104 56 158.5 c 128,-1,27
 40 213 40 213 36 257.5 c 128,-1,28
 32 302 32 302 32 364 c 0,29,0
 32 520 32 520 105.5 620 c 128,-1,1
EndSplineSet
EndChar

StartChar: H
Encoding: 72 72 43
Width: 628
GlyphClass: 2
Flags: W
LayerCount: 2
Fore
SplineSet
397 0 m 1,0,-1
 397 296 l 1,1,-1
 231 296 l 1,2,-1
 231 0 l 1,3,-1
 67 0 l 1,4,-1
 67 708 l 1,5,-1
 231 708 l 1,6,-1
 231 426 l 1,7,-1
 397 426 l 1,8,-1
 397 708 l 1,9,-1
 560 708 l 1,10,-1
 560 0 l 1,11,-1
 397 0 l 1,0,-1
EndSplineSet
EndChar

StartChar: I
Encoding: 73 73 44
Width: 298
GlyphClass: 2
Flags: W
LayerCount: 2
Fore
SplineSet
231 708 m 1,0,-1
 231 0 l 1,1,-1
 67 0 l 1,2,-1
 67 708 l 1,3,-1
 231 708 l 1,0,-1
EndSplineSet
EndChar

StartChar: J
Encoding: 74 74 45
Width: 298
GlyphClass: 2
Flags: W
LayerCount: 2
Fore
SplineSet
231 708 m 1,0,-1
 231 112 l 2,1,2
 231 18 231 18 188.5 -48 c 128,-1,3
 146 -114 146 -114 18 -172 c 1,4,-1
 -65 -65 l 1,5,6
 12 -26 12 -26 39.5 16.5 c 128,-1,7
 67 59 67 59 67 149 c 2,8,-1
 67 708 l 1,9,-1
 231 708 l 1,0,-1
EndSplineSet
EndChar

StartChar: K
Encoding: 75 75 46
Width: 584
GlyphClass: 2
Flags: W
LayerCount: 2
Fore
SplineSet
231 708 m 1,0,-1
 231 0 l 1,1,-1
 67 0 l 1,2,-1
 67 708 l 1,3,-1
 231 708 l 1,0,-1
434 713 m 1,4,-1
 575 651 l 1,5,-1
 392 358 l 1,6,-1
 592 0 l 1,7,-1
 409 0 l 1,8,-1
 233 343 l 1,9,-1
 434 713 l 1,4,-1
EndSplineSet
EndChar

StartChar: L
Encoding: 76 76 47
Width: 476
GlyphClass: 2
Flags: W
LayerCount: 2
Fore
SplineSet
231 708 m 1,0,-1
 231 124 l 1,1,-1
 470 124 l 1,2,-1
 452 0 l 1,3,-1
 67 0 l 1,4,-1
 67 708 l 1,5,-1
 231 708 l 1,0,-1
EndSplineSet
EndChar

StartChar: M
Encoding: 77 77 48
Width: 751
GlyphClass: 2
Flags: W
LayerCount: 2
Fore
SplineSet
668 708 m 1,0,-1
 717 0 l 1,1,-1
 568 0 l 1,2,-1
 547 379 l 1,3,-1
 559 481 l 1,4,-1
 550 481 l 1,5,-1
 444 43 l 1,6,-1
 295 34 l 1,7,-1
 184 480 l 1,8,-1
 175 480 l 1,9,-1
 187 381 l 1,10,-1
 171 0 l 1,11,-1
 40 0 l 1,12,-1
 78 708 l 1,13,-1
 264 708 l 1,14,-1
 364 298 l 1,15,-1
 379 199 l 1,16,-1
 385 199 l 1,17,-1
 396 297 l 1,18,-1
 486 708 l 1,19,-1
 668 708 l 1,0,-1
EndSplineSet
EndChar

StartChar: N
Encoding: 78 78 49
Width: 631
GlyphClass: 2
Flags: W
LayerCount: 2
Fore
SplineSet
563 708 m 1,0,-1
 563 0 l 1,1,-1
 408 0 l 1,2,-1
 255 317 l 1,3,-1
 214 427 l 1,4,-1
 207 425 l 1,5,-1
 231 301 l 1,6,-1
 231 0 l 1,7,-1
 67 0 l 1,8,-1
 67 708 l 1,9,-1
 224 708 l 1,10,-1
 371 393 l 1,11,-1
 417 270 l 1,12,-1
 423 273 l 1,13,-1
 400 402 l 1,14,-1
 400 708 l 1,15,-1
 563 708 l 1,0,-1
EndSplineSet
EndChar

StartChar: O
Encoding: 79 79 50
Width: 635
GlyphClass: 2
Flags: W
LayerCount: 2
Fore
SplineSet
234 537.5 m 128,-1,1
 216 483 216 483 216 352.5 c 128,-1,2
 216 222 216 222 236 169 c 128,-1,3
 256 116 256 116 319.5 116 c 128,-1,4
 383 116 383 116 401 170 c 128,-1,5
 419 224 419 224 419 362 c 0,6,7
 419 514 419 514 391 554 c 0,8,9
 364 592 364 592 308 592 c 128,-1,0
 252 592 252 592 234 537.5 c 128,-1,1
327 720 m 0,10,11
 595 720 595 720 595 367 c 0,12,13
 595 187 595 187 523 87.5 c 128,-1,14
 451 -12 451 -12 308 -12 c 0,15,16
 40 -12 40 -12 40 340 c 0,17,18
 40 520 40 520 112 620 c 128,-1,19
 184 720 184 720 327 720 c 0,10,11
EndSplineSet
EndChar

StartChar: P
Encoding: 80 80 51
Width: 579
GlyphClass: 2
Flags: W
LayerCount: 2
Fore
SplineSet
67 708 m 1,0,-1
 323 708 l 2,1,2
 460 708 460 708 512 643 c 1,3,4
 557 585 557 585 557 495 c 0,5,6
 557 402 557 402 502 332 c 0,7,8
 473 294 473 294 414.5 271.5 c 128,-1,9
 356 249 356 249 274 249 c 2,10,-1
 231 249 l 1,11,-1
 231 0 l 1,12,-1
 67 0 l 1,13,-1
 67 708 l 1,0,-1
231 596 m 1,14,-1
 231 367 l 1,15,-1
 285 367 l 2,16,17
 336 367 336 367 358.5 394 c 128,-1,18
 381 421 381 421 381 479.5 c 128,-1,19
 381 538 381 538 362 567 c 128,-1,20
 343 596 343 596 285 596 c 2,21,-1
 231 596 l 1,14,-1
EndSplineSet
EndChar

StartChar: Q
Encoding: 81 81 52
Width: 632
GlyphClass: 2
Flags: W
LayerCount: 2
Fore
SplineSet
39 340 m 0,0,1
 39 520 39 520 111 619.5 c 128,-1,2
 183 719 183 719 326 719 c 0,3,4
 472 719 472 719 536 618 c 0,5,6
 585 541 585 541 592 426 c 0,7,8
 593 399 593 399 593 367 c 0,9,10
 593 189 593 189 522.5 89.5 c 128,-1,11
 452 -10 452 -10 312 -11 c 1,12,-1
 312 -21 l 1,13,-1
 573 -72 l 1,14,-1
 526 -185 l 1,15,-1
 207 -100 l 1,16,-1
 236 -4 l 1,17,18
 39 36 39 36 39 340 c 0,0,1
400 170.5 m 128,-1,20
 418 225 418 225 418 355 c 128,-1,21
 418 485 418 485 397.5 538.5 c 128,-1,22
 377 592 377 592 314 592 c 128,-1,23
 251 592 251 592 232.5 537.5 c 128,-1,24
 214 483 214 483 214 346 c 0,25,26
 214 194 214 194 242 154 c 0,27,28
 269 116 269 116 325.5 116 c 128,-1,19
 382 116 382 116 400 170.5 c 128,-1,20
EndSplineSet
EndChar

StartChar: R
Encoding: 82 82 53
Width: 576
GlyphClass: 2
Flags: W
LayerCount: 2
Fore
SplineSet
67 708 m 1,0,-1
 332 708 l 2,1,2
 541 708 541 708 541 507 c 0,3,4
 541 361 541 361 411 304 c 1,5,-1
 565 0 l 1,6,-1
 389 0 l 1,7,-1
 273 265 l 1,8,-1
 228 265 l 1,9,-1
 228 0 l 1,10,-1
 67 0 l 1,11,-1
 67 708 l 1,0,-1
230 588 m 1,12,-1
 230 387 l 1,13,-1
 277 387 l 2,14,15
 366 387 366 387 366 494 c 0,16,17
 366 540 366 540 345.5 564 c 128,-1,18
 325 588 325 588 275 588 c 2,19,-1
 230 588 l 1,12,-1
EndSplineSet
EndChar

StartChar: S
Encoding: 83 83 54
Width: 531
GlyphClass: 2
Flags: W
LayerCount: 2
Fore
SplineSet
274 720 m 0,0,1
 478 720 478 720 497 531 c 1,2,-1
 345 507 l 1,3,4
 330 599 330 599 257 599 c 0,5,6
 227 599 227 599 209.5 582 c 128,-1,7
 192 565 192 565 192 541.5 c 128,-1,8
 192 518 192 518 199.5 502 c 128,-1,9
 207 486 207 486 227.5 470 c 128,-1,10
 248 454 248 454 260 446.5 c 128,-1,11
 272 439 272 439 306 421 c 128,-1,12
 340 403 340 403 364.5 389.5 c 128,-1,13
 389 376 389 376 412 361 c 128,-1,14
 435 346 435 346 462 322 c 0,15,16
 512 276 512 276 512 194.5 c 128,-1,17
 512 113 512 113 442 50.5 c 128,-1,18
 372 -12 372 -12 262 -12 c 0,19,20
 202 -12 202 -12 137.5 8 c 128,-1,21
 73 28 73 28 22 63 c 1,22,-1
 81 172 l 1,23,24
 179 117 179 117 259 117 c 0,25,26
 291 117 291 117 316.5 134 c 128,-1,27
 342 151 342 151 342 184 c 0,28,29
 342 220 342 220 308 245 c 0,30,31
 268 274 268 274 224 294 c 1,32,33
 185 310 185 310 146.5 334 c 128,-1,34
 108 358 108 358 93.5 372.5 c 128,-1,35
 79 387 79 387 63 408 c 0,36,37
 32 450 32 450 32 513 c 0,38,39
 32 603 32 603 101.5 661.5 c 128,-1,40
 171 720 171 720 274 720 c 0,0,1
EndSplineSet
EndChar

StartChar: T
Encoding: 84 84 55
Width: 512
GlyphClass: 2
Flags: W
LayerCount: 2
Fore
SplineSet
342 585 m 1,0,-1
 342 0 l 1,1,-1
 178 0 l 1,2,-1
 178 585 l 1,3,-1
 9 585 l 1,4,-1
 25 708 l 1,5,-1
 502 708 l 1,6,-1
 486 585 l 1,7,-1
 342 585 l 1,0,-1
EndSplineSet
EndChar

StartChar: U
Encoding: 85 85 56
Width: 625
GlyphClass: 2
Flags: W
LayerCount: 2
Fore
SplineSet
558 708 m 1,0,-1
 558 167 l 1,1,-1
 569 9 l 1,2,-1
 450 -7 l 1,3,-1
 430 51 l 1,4,-1
 425 50 l 1,5,6
 361 -12 361 -12 267.5 -12 c 128,-1,7
 174 -12 174 -12 117 37 c 128,-1,8
 60 86 60 86 60 185 c 2,9,-1
 60 708 l 1,10,-1
 224 708 l 1,11,-1
 224 203 l 2,12,13
 224 112 224 112 312 112 c 0,14,15
 367 112 367 112 394 153 c 1,16,-1
 394 708 l 1,17,-1
 558 708 l 1,0,-1
EndSplineSet
EndChar

StartChar: V
Encoding: 86 86 57
Width: 560
GlyphClass: 2
Flags: W
LayerCount: 2
Fore
SplineSet
565 692 m 1,0,-1
 369 0 l 1,1,-1
 190 0 l 1,2,-1
 -1 692 l 1,3,-1
 158 713 l 1,4,-1
 269 262 l 1,5,-1
 284 144 l 1,6,-1
 289 144 l 1,7,-1
 304 261 l 1,8,-1
 415 713 l 1,9,-1
 565 692 l 1,0,-1
EndSplineSet
EndChar

StartChar: W
Encoding: 87 87 58
Width: 805
GlyphClass: 2
Flags: W
LayerCount: 2
Fore
SplineSet
802 693 m 1,0,-1
 672 0 l 1,1,-1
 477 0 l 1,2,-1
 405 408 l 1,3,-1
 397 408 l 1,4,-1
 399 344 l 1,5,-1
 334 0 l 1,6,-1
 150 0 l 1,7,-1
 9 693 l 1,8,-1
 171 712 l 1,9,-1
 254 252 l 1,10,-1
 253 168 l 1,11,-1
 259 168 l 1,12,-1
 335 653 l 1,13,-1
 495 668 l 1,14,-1
 571 236 l 1,15,-1
 570 168 l 1,16,-1
 576 168 l 1,17,-1
 658 713 l 1,18,-1
 802 693 l 1,0,-1
EndSplineSet
EndChar

StartChar: X
Encoding: 88 88 59
Width: 572
GlyphClass: 2
Flags: W
LayerCount: 2
Fore
SplineSet
559 692 m 1,0,-1
 376 366 l 1,1,-1
 577 14 l 1,2,-1
 411 -6 l 1,3,-1
 288 240 l 1,4,-1
 174 -6 l 1,5,-1
 18 14 l 1,6,-1
 199 353 l 1,7,-1
 13 692 l 1,8,-1
 181 713 l 1,9,-1
 290 485 l 1,10,-1
 403 713 l 1,11,-1
 559 692 l 1,0,-1
EndSplineSet
EndChar

StartChar: Y
Encoding: 89 89 60
Width: 530
GlyphClass: 2
Flags: W
LayerCount: 2
Fore
SplineSet
350 0 m 1,0,-1
 187 0 l 1,1,-1
 187 245 l 1,2,3
 180 261 180 261 -8 693 c 1,4,-1
 148 713 l 1,5,-1
 266 395 l 1,6,-1
 272 395 l 1,7,-1
 395 713 l 1,8,-1
 538 692 l 1,9,-1
 350 245 l 1,10,-1
 350 0 l 1,0,-1
EndSplineSet
EndChar

StartChar: Z
Encoding: 90 90 61
Width: 459
GlyphClass: 2
Flags: W
LayerCount: 2
Fore
SplineSet
483 707 m 1,0,-1
 483 595 l 1,1,-1
 205 122 l 1,2,-1
 493 122 l 1,3,-1
 481 0 l 1,4,-1
 23 0 l 1,5,-1
 23 113 l 1,6,-1
 296 585 l 1,7,-1
 22 585 l 1,8,-1
 35 707 l 1,9,-1
 483 707 l 1,0,-1
EndSplineSet
EndChar

StartChar: bracketleft
Encoding: 91 91 62
Width: 340
GlyphClass: 2
Flags: W
LayerCount: 2
Fore
SplineSet
305 808 m 1,0,-1
 305 691 l 1,1,-1
 199 691 l 1,2,-1
 199 -50 l 1,3,-1
 305 -50 l 1,4,-1
 305 -167 l 1,5,-1
 69 -167 l 1,6,-1
 69 808 l 1,7,-1
 305 808 l 1,0,-1
EndSplineSet
EndChar

StartChar: backslash
Encoding: 92 92 63
Width: 341
GlyphClass: 2
Flags: W
LayerCount: 2
Fore
SplineSet
128 763 m 1,0,-1
 336 -115 l 1,1,-1
 213 -115 l 1,2,-1
 6 763 l 1,3,-1
 128 763 l 1,0,-1
EndSplineSet
EndChar

StartChar: bracketright
Encoding: 93 93 64
Width: 340
GlyphClass: 2
Flags: W
LayerCount: 2
Fore
SplineSet
271 808 m 1,0,-1
 271 -167 l 1,1,-1
 34 -167 l 1,2,-1
 34 -50 l 1,3,-1
 141 -50 l 1,4,-1
 141 691 l 1,5,-1
 34 691 l 1,6,-1
 34 808 l 1,7,-1
 271 808 l 1,0,-1
EndSplineSet
EndChar

StartChar: asciicircum
Encoding: 94 94 65
Width: 617
GlyphClass: 2
Flags: W
LayerCount: 2
Fore
SplineSet
352 754 m 1,0,-1
 562 301 l 1,1,-1
 433 275 l 1,2,-1
 305 555 l 1,3,-1
 185 276 l 1,4,-1
 55 299 l 1,5,-1
 246 736 l 1,6,-1
 352 754 l 1,0,-1
EndSplineSet
EndChar

StartChar: underscore
Encoding: 95 95 66
Width: 470
GlyphClass: 2
Flags: W
LayerCount: 2
Fore
SplineSet
475 -188 m 1,0,-1
 -5 -188 l 1,1,-1
 -5 -65 l 1,2,-1
 475 -65 l 1,3,-1
 475 -188 l 1,0,-1
EndSplineSet
EndChar

StartChar: grave
Encoding: 96 96 67
Width: 336
GlyphClass: 2
Flags: W
LayerCount: 2
Fore
SplineSet
88 762 m 1,0,-1
 304 640 l 1,1,-1
 257 561 l 1,2,-1
 33 658 l 1,3,-1
 88 762 l 1,0,-1
EndSplineSet
EndChar

StartChar: a
Encoding: 97 97 68
Width: 481
GlyphClass: 2
Flags: W
LayerCount: 2
Fore
SplineSet
279 364 m 2,0,1
 279 397 279 397 265 412.5 c 128,-1,2
 251 428 251 428 211 428 c 128,-1,3
 171 428 171 428 79 399 c 1,4,-1
 36 493 l 1,5,6
 70 512 70 512 130.5 528.5 c 128,-1,7
 191 545 191 545 249.5 545 c 128,-1,8
 308 545 308 545 347.5 531 c 128,-1,9
 387 517 387 517 404.5 489.5 c 128,-1,10
 422 462 422 462 427.5 435 c 128,-1,11
 433 408 433 408 433 367 c 2,12,-1
 433 179 l 2,13,14
 433 142 433 142 440.5 119 c 128,-1,15
 448 96 448 96 473 69 c 1,16,-1
 386 -12 l 1,17,18
 363 -1 363 -1 341.5 21 c 128,-1,19
 320 43 320 43 310 62 c 1,20,-1
 306 62 l 1,21,22
 248 -12 248 -12 159 -12 c 0,23,24
 15 -12 15 -12 15 137 c 0,25,26
 15 216 15 216 60.5 255 c 128,-1,27
 106 294 106 294 192 309 c 2,28,-1
 279 324 l 1,29,-1
 279 364 l 2,0,1
160 153 m 0,30,31
 160 104 160 104 212 104 c 0,32,33
 252 104 252 104 280 132 c 1,34,-1
 280 226 l 1,35,36
 216 217 216 217 188 201.5 c 128,-1,37
 160 186 160 186 160 153 c 0,30,31
EndSplineSet
EndChar

StartChar: b
Encoding: 98 98 69
Width: 527
GlyphClass: 2
Flags: W
LayerCount: 2
Fore
SplineSet
435 494 m 0,0,1
 499 434 499 434 499 279 c 0,2,3
 499 198 499 198 478 138.5 c 128,-1,4
 457 79 457 79 421 48 c 0,5,6
 353 -12 353 -12 261 -12 c 0,7,8
 139 -12 139 -12 46 57 c 1,9,-1
 46 752 l 1,10,-1
 199 769 l 1,11,-1
 199 550 l 1,12,-1
 185 513 l 1,13,-1
 189 510 l 1,14,15
 231 545 231 545 305.5 545 c 128,-1,16
 380 545 380 545 435 494 c 0,0,1
199 124 m 1,17,18
 222 107 222 107 247 107 c 128,-1,19
 272 107 272 107 283.5 111 c 128,-1,20
 295 115 295 115 308 130 c 1,21,22
 336 159 336 159 336 259.5 c 128,-1,23
 336 360 336 360 317.5 393 c 128,-1,24
 299 426 299 426 260 426 c 128,-1,25
 221 426 221 426 199 399 c 1,26,-1
 199 124 l 1,17,18
EndSplineSet
EndChar

StartChar: c
Encoding: 99 99 70
Width: 482
GlyphClass: 2
Flags: W
LayerCount: 2
Fore
SplineSet
92 468.5 m 128,-1,1
 155 545 155 545 266.5 545 c 128,-1,2
 378 545 378 545 415.5 494 c 128,-1,3
 453 443 453 443 453 338 c 1,4,-1
 308 332 l 1,5,6
 308 390 308 390 298.5 408 c 128,-1,7
 289 426 289 426 255 426 c 128,-1,8
 221 426 221 426 206.5 389.5 c 128,-1,9
 192 353 192 353 192 267 c 128,-1,10
 192 181 192 181 216.5 144 c 128,-1,11
 241 107 241 107 295.5 107 c 128,-1,12
 350 107 350 107 429 137 c 1,13,-1
 461 46 l 1,14,15
 377 -12 377 -12 259 -12 c 0,16,17
 29 -12 29 -12 29 259 c 0,18,0
 29 392 29 392 92 468.5 c 128,-1,1
EndSplineSet
EndChar

StartChar: d
Encoding: 100 100 71
Width: 531
GlyphClass: 2
Flags: W
LayerCount: 2
Fore
SplineSet
170 531 m 128,-1,1
 204 545 204 545 255.5 545 c 128,-1,2
 307 545 307 545 341 524 c 1,3,-1
 344 527 l 1,4,-1
 329 554 l 1,5,-1
 329 752 l 1,6,-1
 482 769 l 1,7,-1
 482 158 l 1,8,-1
 493 9 l 1,9,-1
 374 -6 l 1,10,-1
 360 57 l 1,11,-1
 356 57 l 1,12,13
 300 -12 300 -12 221 -12 c 0,14,15
 29 -12 29 -12 29 255 c 0,16,17
 29 336 29 336 49.5 396 c 128,-1,18
 70 456 70 456 103 486.5 c 128,-1,0
 136 517 136 517 170 531 c 128,-1,1
329 410 m 1,19,20
 305 426 305 426 282 426 c 128,-1,21
 259 426 259 426 247 421.5 c 128,-1,22
 235 417 235 417 221 402 c 0,23,24
 192 371 192 371 192 270.5 c 128,-1,25
 192 170 192 170 209 138.5 c 128,-1,26
 226 107 226 107 265.5 107 c 128,-1,27
 305 107 305 107 329 137 c 1,28,-1
 329 410 l 1,19,20
EndSplineSet
EndChar

StartChar: e
Encoding: 101 101 72
Width: 495
GlyphClass: 2
Flags: W
LayerCount: 2
Fore
SplineSet
271 545 m 0,0,1
 371 545 371 545 418 490 c 0,2,3
 457 445 457 445 466 340 c 0,4,5
 469 298 469 298 469 235 c 1,6,-1
 398 225 l 1,7,-1
 192 225 l 1,8,9
 192 166 192 166 214 136.5 c 128,-1,10
 236 107 236 107 292.5 107 c 128,-1,11
 349 107 349 107 429 136 c 1,12,-1
 460 42 l 1,13,14
 365 -12 365 -12 262 -12 c 0,15,16
 29 -12 29 -12 29 264 c 0,17,18
 29 394 29 394 89.5 469.5 c 128,-1,19
 150 545 150 545 271 545 c 0,0,1
260 426 m 128,-1,21
 225 426 225 426 210 400.5 c 128,-1,22
 195 375 195 375 193 324 c 1,23,-1
 315 324 l 1,24,25
 315 381 315 381 305 403.5 c 128,-1,20
 295 426 295 426 260 426 c 128,-1,21
EndSplineSet
EndChar

StartChar: f
Encoding: 102 102 73
Width: 360
GlyphClass: 2
Flags: W
LayerCount: 2
Fore
SplineSet
75 572 m 2,0,1
 75 680 75 680 132.5 727 c 128,-1,2
 190 774 190 774 272.5 774 c 128,-1,3
 355 774 355 774 416 750 c 1,4,-1
 394 652 l 1,5,6
 358 661 358 661 321 661 c 0,7,8
 229 661 229 661 229 570 c 2,9,-1
 229 535 l 1,10,-1
 369 535 l 1,11,-1
 351 426 l 1,12,-1
 229 426 l 1,13,-1
 229 0 l 1,14,-1
 75 0 l 1,15,-1
 75 426 l 1,16,-1
 -6 426 l 1,17,-1
 10 528 l 1,18,-1
 75 533 l 1,19,-1
 75 572 l 2,0,1
EndSplineSet
EndChar

StartChar: g
Encoding: 103 103 74
Width: 498
GlyphClass: 2
Flags: W
LayerCount: 2
Fore
SplineSet
247 545 m 1,0,1
 340 542 340 542 504 536 c 1,2,-1
 491 462 l 1,3,-1
 431 452 l 1,4,5
 448 414 448 414 448 363 c 0,6,7
 448 268 448 268 393 216.5 c 128,-1,8
 338 165 338 165 230 165 c 0,9,10
 202 165 202 165 189 166 c 1,11,12
 170 151 170 151 170 143 c 0,13,14
 170 120 170 120 212 117 c 2,15,-1
 292 111 l 1,16,17
 400 105 400 105 446 78 c 128,-1,18
 492 51 492 51 492 -22 c 0,19,20
 492 -111 492 -111 411 -155.5 c 128,-1,21
 330 -200 330 -200 214 -200 c 0,22,23
 2 -200 2 -200 2 -75 c 0,24,25
 2 -41 2 -41 17.5 -24 c 128,-1,26
 33 -7 33 -7 39 -1 c 128,-1,27
 45 5 45 5 64 18.5 c 128,-1,28
 83 32 83 32 86 35 c 1,29,30
 50 62 50 62 50 107 c 0,31,32
 50 143 50 143 93 174 c 0,33,34
 109 185 109 185 112 188 c 1,35,36
 30 230 30 230 30 349 c 0,37,38
 30 445 30 445 86 495 c 128,-1,39
 142 545 142 545 247 545 c 1,0,1
126 -42 m 0,40,41
 126 -93 126 -93 245.5 -93 c 128,-1,42
 365 -93 365 -93 365 -48 c 0,43,44
 365 -24 365 -24 339.5 -15 c 128,-1,45
 314 -6 314 -6 242 -4 c 1,46,47
 182 0 182 0 157 6 c 1,48,49
 132 -16 132 -16 129 -25 c 128,-1,50
 126 -34 126 -34 126 -42 c 0,40,41
286 416.5 m 128,-1,52
 270 434 270 434 236 434 c 128,-1,53
 202 434 202 434 189.5 414.5 c 128,-1,54
 177 395 177 395 177 354 c 128,-1,55
 177 313 177 313 193 295 c 128,-1,56
 209 277 209 277 243.5 277 c 128,-1,57
 278 277 278 277 290 297 c 128,-1,58
 302 317 302 317 302 358 c 128,-1,51
 302 399 302 399 286 416.5 c 128,-1,52
EndSplineSet
EndChar

StartChar: h
Encoding: 104 104 75
Width: 527
GlyphClass: 2
Flags: W
LayerCount: 2
Fore
SplineSet
192 498 m 1,0,1
 245 545 245 545 322 545 c 128,-1,2
 399 545 399 545 440 501 c 128,-1,3
 481 457 481 457 481 377 c 2,4,-1
 481 0 l 1,5,-1
 327 0 l 1,6,-1
 327 361 l 2,7,8
 327 426 327 426 265 426 c 0,9,10
 228 426 228 426 202 397 c 1,11,-1
 202 0 l 1,12,-1
 49 0 l 1,13,-1
 49 752 l 1,14,-1
 202 769 l 1,15,-1
 202 541 l 1,16,-1
 188 500 l 1,17,-1
 192 498 l 1,0,1
EndSplineSet
EndChar

StartChar: i
Encoding: 105 105 76
Width: 251
GlyphClass: 2
Flags: W
LayerCount: 2
Fore
SplineSet
202 0 m 1,0,-1
 49 0 l 1,1,-1
 49 524 l 1,2,-1
 202 540 l 1,3,-1
 202 0 l 1,0,-1
120 569 m 0,4,5
 37 569 37 569 37 662 c 0,6,7
 37 698 37 698 59 721.5 c 128,-1,8
 81 745 81 745 131 745 c 0,9,10
 213 745 213 745 213 651 c 0,11,12
 213 615 213 615 191 592 c 128,-1,13
 169 569 169 569 120 569 c 0,4,5
EndSplineSet
EndChar

StartChar: j
Encoding: 106 106 77
Width: 251
GlyphClass: 2
Flags: W
LayerCount: 2
Fore
SplineSet
202 9 m 2,0,1
 202 -70 202 -70 175.5 -109 c 128,-1,2
 149 -148 149 -148 64 -201 c 1,3,-1
 -20 -113 l 1,4,5
 28 -77 28 -77 38.5 -51 c 128,-1,6
 49 -25 49 -25 49 49 c 2,7,-1
 49 524 l 1,8,-1
 202 540 l 1,9,-1
 202 9 l 2,0,1
120 569 m 0,10,11
 37 569 37 569 37 662 c 0,12,13
 37 698 37 698 59 721.5 c 128,-1,14
 81 745 81 745 131 745 c 0,15,16
 213 745 213 745 213 651 c 0,17,18
 213 615 213 615 191 592 c 128,-1,19
 169 569 169 569 120 569 c 0,10,11
EndSplineSet
EndChar

StartChar: k
Encoding: 107 107 78
Width: 509
GlyphClass: 2
Flags: W
LayerCount: 2
Fore
SplineSet
201 0 m 1,0,-1
 47 0 l 1,1,-1
 47 752 l 1,2,-1
 201 769 l 1,3,-1
 201 0 l 1,0,-1
524 0 m 1,4,-1
 356 0 l 1,5,-1
 202 272 l 1,6,-1
 358 544 l 1,7,-1
 499 504 l 1,8,-1
 351 270 l 1,9,-1
 524 0 l 1,4,-1
EndSplineSet
EndChar

StartChar: l
Encoding: 108 108 79
Width: 251
GlyphClass: 2
Flags: W
LayerCount: 2
Fore
SplineSet
200 183 m 2,0,1
 200 134 200 134 206.5 111 c 128,-1,2
 213 88 213 88 239 56 c 1,3,-1
 129 -25 l 1,4,5
 81 26 81 26 63.5 64.5 c 128,-1,6
 46 103 46 103 46 180 c 2,7,-1
 46 738 l 1,8,-1
 200 755 l 1,9,-1
 200 183 l 2,0,1
EndSplineSet
EndChar

StartChar: m
Encoding: 109 109 80
Width: 783
GlyphClass: 2
Flags: W
LayerCount: 2
Fore
SplineSet
315 545 m 128,-1,1
 403 545 403 545 440 480 c 1,2,3
 493 545 493 545 584 545 c 0,4,5
 738 545 738 545 738 354 c 2,6,-1
 738 0 l 1,7,-1
 584 0 l 1,8,-1
 584 361 l 2,9,10
 584 426 584 426 531 426 c 0,11,12
 493 426 493 426 470 397 c 1,13,-1
 470 0 l 1,14,-1
 317 0 l 1,15,-1
 317 361 l 2,16,17
 317 426 317 426 263 426 c 0,18,19
 227 426 227 426 202 397 c 1,20,-1
 202 0 l 1,21,-1
 49 0 l 1,22,-1
 49 376 l 1,23,-1
 38 525 l 1,24,-1
 157 540 l 1,25,-1
 171 479 l 1,26,-1
 175 479 l 1,27,0
 227 545 227 545 315 545 c 128,-1,1
EndSplineSet
EndChar

StartChar: n
Encoding: 110 110 81
Width: 527
GlyphClass: 2
Flags: W
LayerCount: 2
Fore
SplineSet
324 545 m 0,0,1
 399 545 399 545 440 501 c 128,-1,2
 481 457 481 457 481 378 c 2,3,-1
 481 0 l 1,4,-1
 327 0 l 1,5,-1
 327 361 l 2,6,7
 327 426 327 426 265 426 c 0,8,9
 229 426 229 426 202 397 c 1,10,-1
 202 0 l 1,11,-1
 49 0 l 1,12,-1
 49 378 l 1,13,-1
 38 525 l 1,14,-1
 157 540 l 1,15,-1
 171 480 l 1,16,-1
 176 480 l 1,17,18
 230 545 230 545 324 545 c 0,0,1
EndSplineSet
EndChar

StartChar: o
Encoding: 111 111 82
Width: 528
GlyphClass: 2
Flags: W
LayerCount: 2
Fore
SplineSet
278 545 m 0,0,1
 333 545 333 545 374 528 c 128,-1,2
 415 511 415 511 438.5 484.5 c 128,-1,3
 462 458 462 458 476 419 c 0,4,5
 499 355 499 355 499 262 c 0,6,7
 499 119 499 119 419 45 c 0,8,9
 358 -12 358 -12 251 -12 c 0,10,11
 196 -12 196 -12 155 5 c 128,-1,12
 114 22 114 22 90.5 48.5 c 128,-1,13
 67 75 67 75 52 114 c 0,14,15
 29 176 29 176 29 271 c 0,16,17
 29 359 29 359 64 426 c 0,18,19
 125 545 125 545 278 545 c 0,0,1
322 390.5 m 128,-1,21
 308 426 308 426 262.5 426 c 128,-1,22
 217 426 217 426 204.5 392 c 128,-1,23
 192 358 192 358 192 268 c 128,-1,24
 192 178 192 178 206 142.5 c 128,-1,25
 220 107 220 107 266 107 c 128,-1,26
 312 107 312 107 324 140.5 c 128,-1,27
 336 174 336 174 336 264.5 c 128,-1,20
 336 355 336 355 322 390.5 c 128,-1,21
EndSplineSet
EndChar

StartChar: p
Encoding: 112 112 83
Width: 531
GlyphClass: 2
Flags: W
LayerCount: 2
Fore
SplineSet
174 475 m 1,0,1
 226 545 226 545 313 545 c 128,-1,2
 400 545 400 545 451 486 c 128,-1,3
 502 427 502 427 502 280 c 0,4,5
 502 102 502 102 402 26 c 0,6,7
 351 -12 351 -12 288.5 -12 c 128,-1,8
 226 -12 226 -12 190 10 c 1,9,-1
 186 7 l 1,10,-1
 202 -20 l 1,11,-1
 202 -181 l 1,12,-1
 49 -197 l 1,13,-1
 49 378 l 1,14,-1
 38 525 l 1,15,-1
 157 540 l 1,16,-1
 170 475 l 1,17,-1
 174 475 l 1,0,1
202 123 m 1,18,19
 226 107 226 107 262 107 c 128,-1,20
 298 107 298 107 318 142 c 128,-1,21
 338 177 338 177 338 264 c 128,-1,22
 338 351 338 351 324.5 388.5 c 128,-1,23
 311 426 311 426 268 426 c 128,-1,24
 225 426 225 426 202 396 c 1,25,-1
 202 123 l 1,18,19
EndSplineSet
EndChar

StartChar: q
Encoding: 113 113 84
Width: 528
GlyphClass: 2
Flags: W
LayerCount: 2
Fore
SplineSet
266 426 m 0,0,1
 192 426 192 426 192 262 c 0,2,3
 192 176 192 176 210 141.5 c 128,-1,4
 228 107 228 107 266 107 c 128,-1,5
 304 107 304 107 329 135 c 1,6,-1
 329 412 l 1,7,8
 303 426 303 426 266 426 c 0,0,1
221 -12 m 0,9,10
 127 -12 127 -12 74 64 c 1,11,12
 29 131 29 131 29 258 c 0,13,14
 29 339 29 339 50.5 397.5 c 128,-1,15
 72 456 72 456 108 486 c 0,16,17
 179 545 179 545 272 545 c 0,18,19
 394 545 394 545 482 503 c 1,20,-1
 482 -180 l 1,21,-1
 329 -197 l 1,22,-1
 329 -17 l 1,23,-1
 343 20 l 1,24,-1
 339 23 l 1,25,26
 297 -12 297 -12 221 -12 c 0,9,10
EndSplineSet
EndChar

StartChar: r
Encoding: 114 114 85
Width: 381
GlyphClass: 2
Flags: W
LayerCount: 2
Fore
SplineSet
226 514 m 128,-1,1
 261 545 261 545 307.5 545 c 128,-1,2
 354 545 354 545 392 526 c 1,3,-1
 357 405 l 1,4,5
 326 414 326 414 304 414 c 0,6,7
 265 414 265 414 233.5 385 c 128,-1,8
 202 356 202 356 202 300 c 2,9,-1
 202 0 l 1,10,-1
 49 0 l 1,11,-1
 49 377 l 1,12,-1
 38 525 l 1,13,-1
 154 540 l 1,14,-1
 172 430 l 1,15,-1
 176 430 l 1,16,0
 191 483 191 483 226 514 c 128,-1,1
EndSplineSet
EndChar

StartChar: s
Encoding: 115 115 86
Width: 457
GlyphClass: 2
Flags: W
LayerCount: 2
Fore
SplineSet
87 500 m 128,-1,1
 145 545 145 545 233 545 c 128,-1,2
 321 545 321 545 370 504.5 c 128,-1,3
 419 464 419 464 427 391 c 1,4,-1
 293 365 l 1,5,6
 286 433 286 433 226 433 c 0,7,8
 204 433 204 433 190 420 c 128,-1,9
 176 407 176 407 176 392 c 128,-1,10
 176 377 176 377 179.5 369 c 128,-1,11
 183 361 183 361 190.5 354 c 128,-1,12
 198 347 198 347 205.5 341.5 c 128,-1,13
 213 336 213 336 226.5 330 c 128,-1,14
 240 324 240 324 250 320 c 1,15,16
 264 312 264 312 314 291.5 c 128,-1,17
 364 271 364 271 398 239 c 128,-1,18
 432 207 432 207 432 146 c 128,-1,19
 432 85 432 85 376.5 36.5 c 128,-1,20
 321 -12 321 -12 220 -12 c 128,-1,21
 119 -12 119 -12 18 47 c 1,22,-1
 73 146 l 1,23,24
 173 103 173 103 220 103 c 0,25,26
 243 103 243 103 258.5 113 c 128,-1,27
 274 123 274 123 274 143 c 0,28,29
 274 164 274 164 252 177 c 0,30,31
 229 191 229 191 217 196 c 0,32,33
 122 233 122 233 73 273 c 0,34,35
 29 309 29 309 29 382 c 128,-1,0
 29 455 29 455 87 500 c 128,-1,1
EndSplineSet
EndChar

StartChar: t
Encoding: 116 116 87
Width: 376
GlyphClass: 2
Flags: W
LayerCount: 2
Fore
SplineSet
227 537 m 1,0,-1
 362 537 l 1,1,-1
 344 426 l 1,2,-1
 227 426 l 1,3,-1
 227 197 l 2,4,5
 227 146 227 146 241 126 c 128,-1,6
 255 106 255 106 289 106 c 0,7,8
 303 106 303 106 346 116 c 1,9,-1
 373 27 l 1,10,11
 354 12 354 12 311.5 0 c 128,-1,12
 269 -12 269 -12 234 -12 c 0,13,14
 135 -12 135 -12 104.5 38.5 c 128,-1,15
 74 89 74 89 74 204 c 2,16,-1
 74 426 l 1,17,-1
 -3 426 l 1,18,-1
 11 526 l 1,19,-1
 77 535 l 1,20,-1
 83 635 l 1,21,-1
 227 678 l 1,22,-1
 227 537 l 1,0,-1
EndSplineSet
EndChar

StartChar: u
Encoding: 117 117 88
Width: 527
GlyphClass: 2
Flags: W
LayerCount: 2
Fore
SplineSet
200 -12 m 0,0,1
 128 -12 128 -12 87 32 c 128,-1,2
 46 76 46 76 46 153 c 2,3,-1
 46 526 l 1,4,-1
 199 540 l 1,5,-1
 199 172 l 2,6,7
 199 107 199 107 259 107 c 0,8,9
 297 107 297 107 324 136 c 1,10,-1
 324 526 l 1,11,-1
 478 540 l 1,12,-1
 478 154 l 1,13,-1
 489 9 l 1,14,-1
 369 -6 l 1,15,-1
 356 55 l 1,16,-1
 352 55 l 1,17,18
 293 -12 293 -12 200 -12 c 0,0,1
EndSplineSet
EndChar

StartChar: v
Encoding: 118 118 89
Width: 448
GlyphClass: 2
Flags: W
LayerCount: 2
Fore
SplineSet
306 541 m 1,0,-1
 446 525 l 1,1,-1
 314 0 l 1,2,-1
 135 0 l 1,3,-1
 -4 526 l 1,4,-1
 144 541 l 1,5,-1
 223 136 l 1,6,-1
 229 136 l 1,7,-1
 306 541 l 1,0,-1
EndSplineSet
EndChar

StartChar: w
Encoding: 119 119 90
Width: 723
GlyphClass: 2
Flags: W
LayerCount: 2
Fore
SplineSet
577 541 m 1,0,-1
 710 526 l 1,1,-1
 598 0 l 1,2,-1
 427 0 l 1,3,-1
 361 305 l 1,4,-1
 354 305 l 1,5,-1
 286 0 l 1,6,-1
 125 0 l 1,7,-1
 6 526 l 1,8,-1
 147 541 l 1,9,-1
 216 158 l 1,10,-1
 223 158 l 1,11,-1
 297 507 l 1,12,-1
 429 520 l 1,13,-1
 507 159 l 1,14,-1
 514 159 l 1,15,-1
 577 541 l 1,0,-1
EndSplineSet
EndChar

StartChar: x
Encoding: 120 120 91
Width: 473
GlyphClass: 2
Flags: W
LayerCount: 2
Fore
SplineSet
324 541 m 1,0,-1
 461 526 l 1,1,-1
 315 283 l 1,2,-1
 483 9 l 1,3,-1
 336 -6 l 1,4,-1
 237 177 l 1,5,-1
 231 177 l 1,6,-1
 137 -6 l 1,7,-1
 -5 9 l 1,8,-1
 157 282 l 1,9,-1
 6 525 l 1,10,-1
 155 540 l 1,11,-1
 235 388 l 1,12,-1
 242 388 l 1,13,-1
 324 541 l 1,0,-1
EndSplineSet
EndChar

StartChar: y
Encoding: 121 121 92
Width: 453
GlyphClass: 2
Flags: W
LayerCount: 2
Fore
SplineSet
311 540 m 1,0,-1
 448 525 l 1,1,-1
 326 92 l 2,2,3
 308 26 308 26 287.5 -17.5 c 128,-1,4
 267 -61 267 -61 235 -103.5 c 128,-1,5
 203 -146 203 -146 154.5 -171.5 c 128,-1,6
 106 -197 106 -197 57 -200 c 1,7,-1
 3 -104 l 1,8,9
 124 -82 124 -82 145 8 c 1,10,11
 119 94 119 94 67.5 277 c 128,-1,12
 16 460 16 460 -3 525 c 1,13,-1
 148 540 l 1,14,-1
 222 143 l 1,15,-1
 229 143 l 1,16,-1
 311 540 l 1,0,-1
EndSplineSet
EndChar

StartChar: z
Encoding: 122 122 93
Width: 432
GlyphClass: 2
Flags: W
LayerCount: 2
Fore
SplineSet
408 533 m 1,0,-1
 408 432 l 1,1,-1
 180 113 l 1,2,-1
 426 113 l 1,3,-1
 404 0 l 1,4,-1
 10 0 l 1,5,-1
 10 102 l 1,6,-1
 232 420 l 1,7,-1
 13 420 l 1,8,-1
 32 533 l 1,9,-1
 408 533 l 1,0,-1
EndSplineSet
EndChar

StartChar: braceleft
Encoding: 123 123 94
Width: 374
GlyphClass: 2
Flags: W
LayerCount: 2
Fore
SplineSet
260 174 m 1,0,-1
 249 19 l 1,1,2
 249 -25 249 -25 277 -57.5 c 128,-1,3
 305 -90 305 -90 368 -96 c 1,4,-1
 383 -190 l 1,5,-1
 322 -190 l 2,6,7
 252 -190 252 -190 190 -148 c 0,8,9
 158 -126 158 -126 138 -87 c 128,-1,10
 118 -48 118 -48 118 -10 c 128,-1,11
 118 28 118 28 123.5 82.5 c 128,-1,12
 129 137 129 137 129 174.5 c 128,-1,13
 129 212 129 212 106.5 231.5 c 128,-1,14
 84 251 84 251 39 258 c 1,15,-1
 39 369 l 1,16,17
 83 374 83 374 106 394.5 c 128,-1,18
 129 415 129 415 129 449.5 c 128,-1,19
 129 484 129 484 123.5 539 c 128,-1,20
 118 594 118 594 118 634.5 c 128,-1,21
 118 675 118 675 138 714 c 128,-1,22
 158 753 158 753 190 774 c 0,23,24
 254 816 254 816 322 816 c 2,25,-1
 382 816 l 1,26,-1
 368 722 l 1,27,28
 305 716 305 716 277.5 683.5 c 128,-1,29
 250 651 250 651 250 607 c 1,30,-1
 260 451 l 1,31,32
 260 398 260 398 228.5 361 c 128,-1,33
 197 324 197 324 163 315 c 1,34,-1
 163 309 l 1,35,36
 197 300 197 300 228.5 263.5 c 128,-1,37
 260 227 260 227 260 174 c 1,0,-1
EndSplineSet
EndChar

StartChar: bar
Encoding: 124 124 95
Width: 278
GlyphClass: 2
Flags: W
LayerCount: 2
Fore
SplineSet
206 760 m 1,0,-1
 206 -150 l 1,1,-1
 72 -150 l 1,2,-1
 72 760 l 1,3,-1
 206 760 l 1,0,-1
EndSplineSet
EndChar

StartChar: braceright
Encoding: 125 125 96
Width: 373
GlyphClass: 2
Flags: W
LayerCount: 2
Fore
SplineSet
113 451 m 1,0,-1
 123 607 l 1,1,2
 123 651 123 651 95.5 683.5 c 128,-1,3
 68 716 68 716 5 722 c 1,4,-1
 -9 816 l 1,5,-1
 51 816 l 2,6,7
 119 816 119 816 183 774 c 0,8,9
 215 753 215 753 235 714 c 128,-1,10
 255 675 255 675 255 634.5 c 128,-1,11
 255 594 255 594 249.5 539 c 128,-1,12
 244 484 244 484 244 458 c 0,13,14
 244 379 244 379 334 369 c 1,15,-1
 334 258 l 1,16,17
 290 251 290 251 267 231.5 c 128,-1,18
 244 212 244 212 244 174.5 c 128,-1,19
 244 137 244 137 249.5 82.5 c 128,-1,20
 255 28 255 28 255 -10 c 128,-1,21
 255 -48 255 -48 235 -87 c 128,-1,22
 215 -126 215 -126 184 -148 c 1,23,24
 121 -190 121 -190 51 -190 c 2,25,-1
 -10 -190 l 1,26,-1
 5 -96 l 1,27,28
 68 -90 68 -90 96.5 -57.5 c 128,-1,29
 125 -25 125 -25 125 19 c 0,30,31
 125 45 125 45 119 96 c 128,-1,32
 113 147 113 147 113 174 c 0,33,34
 113 227 113 227 144.5 263.5 c 128,-1,35
 176 300 176 300 210 309 c 1,36,-1
 210 315 l 1,37,38
 176 324 176 324 144.5 361 c 128,-1,39
 113 398 113 398 113 451 c 1,0,-1
EndSplineSet
EndChar

StartChar: asciitilde
Encoding: 126 126 97
Width: 517
GlyphClass: 2
Flags: W
LayerCount: 2
Fore
SplineSet
346 194 m 0,0,1
 309 194 309 194 248 218.5 c 128,-1,2
 187 243 187 243 158 243 c 0,3,4
 141 243 141 243 130.5 239.5 c 128,-1,5
 120 236 120 236 116.5 235 c 128,-1,6
 113 234 113 234 106.5 230.5 c 128,-1,7
 100 227 100 227 97.5 225.5 c 128,-1,8
 95 224 95 224 88 219.5 c 128,-1,9
 81 215 81 215 79 214 c 0,10,11
 67 204 67 204 58 200 c 1,12,-1
 29 285 l 1,13,14
 72 324 72 324 100.5 340.5 c 128,-1,15
 129 357 129 357 164.5 357 c 128,-1,16
 200 357 200 357 266 330 c 128,-1,17
 332 303 332 303 353 303 c 128,-1,18
 374 303 374 303 384 305 c 128,-1,19
 394 307 394 307 404 312 c 128,-1,20
 414 317 414 317 420 320.5 c 128,-1,21
 426 324 426 324 438.5 333.5 c 128,-1,22
 451 343 451 343 457 347 c 1,23,-1
 483 261 l 1,24,25
 410 194 410 194 346 194 c 0,0,1
EndSplineSet
EndChar

StartChar: exclamdown
Encoding: 161 161 98
Width: 312
GlyphClass: 2
Flags: W
LayerCount: 2
Fore
SplineSet
225 316 m 1,0,-1
 247 -178 l 1,1,-1
 68 -188 l 1,2,-1
 90 306 l 1,3,-1
 225 316 l 1,0,-1
161 546 m 0,4,5
 248 546 248 546 248 451 c 0,6,7
 248 414 248 414 224.5 389 c 128,-1,8
 201 364 201 364 152 364 c 0,9,10
 66 364 66 364 66 459 c 0,11,12
 66 496 66 496 89 521 c 128,-1,13
 112 546 112 546 161 546 c 0,4,5
EndSplineSet
EndChar

StartChar: cent
Encoding: 162 162 99
Width: 524
GlyphClass: 2
Flags: W
LayerCount: 2
Fore
SplineSet
318 506 m 0,0,1
 205 506 205 506 205 328 c 0,2,3
 205 247 205 247 226 215 c 128,-1,4
 247 183 247 183 298.5 183 c 128,-1,5
 350 183 350 183 419 214 c 1,6,-1
 451 130 l 1,7,8
 391 81 391 81 311 70 c 1,9,-1
 315 -70 l 1,10,-1
 167 -88 l 1,11,-1
 195 74 l 1,12,13
 123 91 123 91 83.5 148.5 c 128,-1,14
 44 206 44 206 44 300 c 0,15,16
 44 428 44 428 96 513 c 128,-1,17
 148 598 148 598 250 616 c 1,18,-1
 248 746 l 1,19,-1
 397 764 l 1,20,-1
 367 617 l 1,21,22
 435 603 435 603 485 562 c 1,23,-1
 433 476 l 1,24,25
 356 506 356 506 318 506 c 0,0,1
EndSplineSet
EndChar

StartChar: sterling
Encoding: 163 163 100
Width: 526
GlyphClass: 2
Flags: W
LayerCount: 2
Fore
SplineSet
355 515 m 0,0,1
 287 515 287 515 279 448 c 1,2,3
 276 414 276 414 275 403 c 1,4,-1
 440 403 l 1,5,-1
 397 304 l 1,6,-1
 264 304 l 1,7,8
 262 233 262 233 228 191 c 1,9,10
 235 190 235 190 271 180.5 c 128,-1,11
 307 171 307 171 331 171 c 0,12,13
 382 171 382 171 440 201 c 1,14,-1
 469 122 l 1,15,16
 397 61 397 61 322 61 c 0,17,18
 280 61 280 61 225.5 79.5 c 128,-1,19
 171 98 171 98 138.5 98 c 128,-1,20
 106 98 106 98 63 66 c 1,21,-1
 18 147 l 1,22,23
 48 169 48 169 83 181 c 1,24,25
 107 197 107 197 117 218 c 0,26,27
 129 242 129 242 131 304 c 1,28,-1
 46 304 l 1,29,-1
 72 390 l 1,30,-1
 139 400 l 1,31,-1
 143 446 l 2,32,33
 158 625 158 625 343 625 c 0,34,35
 414 625 414 625 460 606 c 0,36,37
 477 599 477 599 511 583 c 1,38,-1
 460 495 l 1,39,40
 405 515 405 515 355 515 c 0,0,1
EndSplineSet
EndChar

StartChar: currency
Encoding: 164 164 101
Width: 652
GlyphClass: 2
Flags: W
LayerCount: 2
Fore
SplineSet
527 477 m 1,0,1
 558 428 558 428 558 345 c 128,-1,2
 558 262 558 262 510 196 c 1,3,-1
 588 120 l 1,4,-1
 481 33 l 1,5,-1
 417 127 l 1,6,7
 365 107 365 107 305 107 c 128,-1,8
 245 107 245 107 203 124 c 1,9,-1
 141 33 l 1,10,-1
 37 122 l 1,11,-1
 113 195 l 1,12,13
 84 242 84 242 84 313 c 0,14,15
 84 421 84 421 147 488 c 1,16,-1
 76 567 l 1,17,-1
 188 648 l 1,18,-1
 246 547 l 1,19,20
 288 560 288 560 342.5 560 c 128,-1,21
 397 560 397 560 439 544 c 1,22,-1
 522 649 l 1,23,-1
 621 557 l 1,24,-1
 527 477 l 1,0,1
328 443 m 0,25,26
 240 443 240 443 240 318 c 0,27,28
 240 225 240 225 313 225 c 0,29,30
 402 225 402 225 402 349 c 0,31,32
 402 443 402 443 328 443 c 0,25,26
EndSplineSet
EndChar

StartChar: yen
Encoding: 165 165 102
Width: 530
GlyphClass: 2
Flags: W
LayerCount: 2
Fore
SplineSet
371 623 m 1,0,-1
 510 608 l 1,1,-1
 374 363 l 1,2,-1
 468 363 l 1,3,-1
 432 271 l 1,4,-1
 322 271 l 1,5,-1
 315 226 l 1,6,-1
 443 226 l 1,7,-1
 407 138 l 1,8,-1
 302 138 l 1,9,-1
 293 70 l 1,10,-1
 148 70 l 1,11,-1
 157 138 l 1,12,-1
 24 138 l 1,13,-1
 64 226 l 1,14,-1
 169 226 l 1,15,-1
 176 271 l 1,16,-1
 41 271 l 1,17,-1
 77 363 l 1,18,-1
 142 363 l 1,19,-1
 57 608 l 1,20,-1
 196 624 l 1,21,-1
 257 373 l 1,22,-1
 267 373 l 1,23,-1
 371 623 l 1,0,-1
EndSplineSet
EndChar

StartChar: brokenbar
Encoding: 166 166 103
Width: 265
GlyphClass: 2
Flags: W
LayerCount: 2
Fore
SplineSet
62 216 m 1,0,-1
 199 216 l 1,1,-1
 199 -150 l 1,2,-1
 62 -150 l 1,3,-1
 62 216 l 1,0,-1
62 760 m 1,4,-1
 199 760 l 1,5,-1
 199 394 l 1,6,-1
 62 394 l 1,7,-1
 62 760 l 1,4,-1
EndSplineSet
EndChar

StartChar: section
Encoding: 167 167 104
Width: 519
GlyphClass: 2
Flags: W
LayerCount: 2
Fore
SplineSet
270 649 m 0,0,1
 238 649 238 649 218 635.5 c 128,-1,2
 198 622 198 622 198 595 c 0,3,4
 198 563 198 563 215 550 c 0,5,6
 223 543 223 543 227.5 539 c 128,-1,7
 232 535 232 535 245.5 528.5 c 128,-1,8
 259 522 259 522 266 519 c 0,9,10
 342 489 342 489 376 470 c 128,-1,11
 410 451 410 451 436 430 c 0,12,13
 486 392 486 392 486 320 c 0,14,15
 486 213 486 213 388 164 c 1,16,17
 459 116 459 116 459 34.5 c 128,-1,18
 459 -47 459 -47 398.5 -97.5 c 128,-1,19
 338 -148 338 -148 232.5 -148 c 128,-1,20
 127 -148 127 -148 16 -87 c 1,21,-1
 64 19 l 1,22,23
 92 5 92 5 144.5 -13 c 128,-1,24
 197 -31 197 -31 235 -31 c 0,25,26
 308 -31 308 -31 308 24 c 0,27,28
 308 44 308 44 292 60.5 c 128,-1,29
 276 77 276 77 255 87.5 c 128,-1,30
 234 98 234 98 216 105.5 c 128,-1,31
 198 113 198 113 196 114 c 128,-1,32
 194 115 194 115 191 116 c 128,-1,33
 188 117 188 117 186 118 c 0,34,35
 114 150 114 150 71 191 c 128,-1,36
 28 232 28 232 28 289 c 0,37,38
 28 389 28 389 128 446 c 1,39,40
 47 502 47 502 47 583 c 128,-1,41
 47 664 47 664 104.5 715 c 128,-1,42
 162 766 162 766 271 766 c 128,-1,43
 380 766 380 766 471 703 c 1,44,-1
 429 605 l 1,45,46
 335 649 335 649 270 649 c 0,0,1
175 317 m 0,47,48
 175 282 175 282 202.5 260.5 c 128,-1,49
 230 239 230 239 285 216 c 1,50,51
 312 228 312 228 327 248.5 c 128,-1,52
 342 269 342 269 342 297 c 128,-1,53
 342 325 342 325 317.5 345 c 128,-1,54
 293 365 293 365 230 393 c 1,55,56
 175 365 175 365 175 317 c 0,47,48
EndSplineSet
EndChar

StartChar: dieresis
Encoding: 168 168 105
Width: 440
GlyphClass: 2
Flags: W
LayerCount: 2
Fore
SplineSet
120 736 m 0,0,1
 195 736 195 736 195 653 c 0,2,3
 195 621 195 621 175 600 c 128,-1,4
 155 579 155 579 112 579 c 0,5,6
 37 579 37 579 37 661 c 0,7,8
 37 736 37 736 120 736 c 0,0,1
328 736 m 0,9,10
 404 736 404 736 404 653 c 0,11,12
 404 621 404 621 384 600 c 128,-1,13
 364 579 364 579 320 579 c 0,14,15
 245 579 245 579 245 661 c 0,16,17
 245 694 245 694 265 715 c 128,-1,18
 285 736 285 736 328 736 c 0,9,10
EndSplineSet
EndChar

StartChar: copyright
Encoding: 169 169 106
Width: 760
GlyphClass: 2
Flags: W
LayerCount: 2
Fore
SplineSet
269 411.5 m 128,-1,1
 313 467 313 467 390.5 467 c 128,-1,2
 468 467 468 467 497.5 429 c 128,-1,3
 527 391 527 391 527 321 c 1,4,-1
 433 312 l 1,5,6
 433 352 433 352 423.5 368 c 128,-1,7
 414 384 414 384 385 384 c 0,8,9
 329 384 329 384 329 267 c 128,-1,10
 329 150 329 150 386 150 c 0,11,12
 410 150 410 150 421.5 163.5 c 128,-1,13
 433 177 433 177 433 212 c 1,14,-1
 527 204 l 1,15,16
 527 148 527 148 488.5 106.5 c 128,-1,17
 450 65 450 65 389 65 c 0,18,19
 310 65 310 65 267.5 114.5 c 128,-1,20
 225 164 225 164 225 260 c 128,-1,0
 225 356 225 356 269 411.5 c 128,-1,1
135.5 526 m 128,-1,22
 232 627 232 627 392.5 627 c 128,-1,23
 553 627 553 627 637.5 528 c 128,-1,24
 722 429 722 429 722 268 c 128,-1,25
 722 107 722 107 626 6.5 c 128,-1,26
 530 -94 530 -94 369 -94 c 128,-1,27
 208 -94 208 -94 123.5 4.5 c 128,-1,28
 39 103 39 103 39 264 c 128,-1,21
 39 425 39 425 135.5 526 c 128,-1,22
572 467 m 128,-1,30
 513 541 513 541 391.5 541 c 128,-1,31
 270 541 270 541 200 464.5 c 128,-1,32
 130 388 130 388 130 264.5 c 128,-1,33
 130 141 130 141 191.5 66.5 c 128,-1,34
 253 -8 253 -8 372 -8 c 128,-1,35
 491 -8 491 -8 561 67.5 c 128,-1,36
 631 143 631 143 631 268 c 128,-1,29
 631 393 631 393 572 467 c 128,-1,30
EndSplineSet
EndChar

StartChar: ordfeminine
Encoding: 170 170 107
Width: 368
GlyphClass: 2
Flags: W
LayerCount: 2
Fore
SplineSet
327 678 m 0,0,1
 340 657 340 657 344 637 c 128,-1,2
 348 617 348 617 348 587 c 2,3,-1
 348 453 l 2,4,5
 348 428 348 428 349 416 c 0,6,7
 351 386 351 386 378 356 c 1,8,-1
 313 298 l 1,9,10
 276 318 276 318 258 354 c 1,11,-1
 256 354 l 1,12,13
 227 326 227 326 201 312 c 128,-1,14
 175 298 175 298 139 298 c 0,15,16
 33 298 33 298 33 408 c 0,17,18
 33 469 33 469 67 498 c 128,-1,19
 101 527 101 527 164 538 c 2,20,-1
 235 550 l 1,21,-1
 235 584 l 2,22,23
 235 611 235 611 223 624.5 c 128,-1,24
 211 638 211 638 180.5 638 c 128,-1,25
 150 638 150 638 79 617 c 1,26,-1
 50 684 l 1,27,28
 124 720 124 720 212.5 720 c 128,-1,29
 301 720 301 720 327 678 c 0,0,1
140 420 m 0,30,31
 140 376 140 376 183 376 c 0,32,33
 212 376 212 376 236 398 c 1,34,-1
 236 485 l 1,35,36
 184 476 184 476 162 462.5 c 128,-1,37
 140 449 140 449 140 420 c 0,30,31
EndSplineSet
EndChar

StartChar: guillemotleft
Encoding: 171 171 108
Width: 515
GlyphClass: 2
Flags: W
LayerCount: 2
Fore
SplineSet
275 446 m 1,0,-1
 182 250 l 1,1,-1
 275 54 l 1,2,-1
 171 24 l 1,3,-1
 46 250 l 1,4,-1
 170 476 l 1,5,-1
 275 446 l 1,0,-1
475 446 m 1,6,-1
 382 250 l 1,7,-1
 475 54 l 1,8,-1
 371 24 l 1,9,-1
 247 250 l 1,10,-1
 370 476 l 1,11,-1
 475 446 l 1,6,-1
EndSplineSet
EndChar

StartChar: logicalnot
Encoding: 172 172 109
Width: 603
GlyphClass: 2
Flags: W
LayerCount: 2
Fore
SplineSet
551 366 m 1,0,-1
 551 89 l 1,1,-1
 431 77 l 1,2,-1
 431 245 l 1,3,-1
 46 245 l 1,4,-1
 64 366 l 1,5,-1
 551 366 l 1,0,-1
EndSplineSet
EndChar

StartChar: registered
Encoding: 174 174 110
Width: 534
GlyphClass: 2
Flags: W
LayerCount: 2
Fore
SplineSet
172 651 m 1,0,-1
 279 651 l 2,1,2
 321 651 321 651 340 629.5 c 128,-1,3
 359 608 359 608 359 574 c 0,4,5
 359 524 359 524 312 501 c 1,6,-1
 380 389 l 1,7,-1
 304 389 l 1,8,-1
 248 489 l 1,9,-1
 239 489 l 1,10,-1
 239 389 l 1,11,-1
 172 389 l 1,12,-1
 172 651 l 1,0,-1
239 598 m 1,13,-1
 239 539 l 1,14,-1
 262 539 l 2,15,16
 287 539 287 539 287 568.5 c 128,-1,17
 287 598 287 598 264 598 c 2,18,-1
 239 598 l 1,13,-1
95.5 701 m 128,-1,20
 163 772 163 772 275 772 c 128,-1,21
 387 772 387 772 446.5 702.5 c 128,-1,22
 506 633 506 633 506 520 c 128,-1,23
 506 407 506 407 438.5 336.5 c 128,-1,24
 371 266 371 266 259 266 c 128,-1,25
 147 266 147 266 87.5 335 c 128,-1,26
 28 404 28 404 28 517 c 128,-1,19
 28 630 28 630 95.5 701 c 128,-1,20
400.5 656.5 m 128,-1,28
 359 708 359 708 274.5 708 c 128,-1,29
 190 708 190 708 140.5 655 c 128,-1,30
 91 602 91 602 91 516.5 c 128,-1,31
 91 431 91 431 134 379.5 c 128,-1,32
 177 328 177 328 261 328 c 128,-1,33
 345 328 345 328 393.5 380 c 128,-1,34
 442 432 442 432 442 518.5 c 128,-1,27
 442 605 442 605 400.5 656.5 c 128,-1,28
EndSplineSet
EndChar

StartChar: macron
Encoding: 175 175 111
Width: 323
GlyphClass: 2
Flags: W
LayerCount: 2
Fore
SplineSet
24 708 m 1,0,-1
 299 708 l 1,1,-1
 299 608 l 1,2,-1
 24 608 l 1,3,-1
 24 708 l 1,0,-1
EndSplineSet
EndChar

StartChar: degree
Encoding: 176 176 112
Width: 370
GlyphClass: 2
Flags: W
LayerCount: 2
Fore
SplineSet
190 720 m 0,0,1
 232 720 232 720 262 705 c 128,-1,2
 292 690 292 690 306 666 c 0,3,4
 332 623 332 623 332 578 c 0,5,6
 332 508 332 508 290 466.5 c 128,-1,7
 248 425 248 425 180 425 c 0,8,9
 140 425 140 425 110 440 c 128,-1,10
 80 455 80 455 65 478 c 0,11,12
 37 522 37 522 37 567 c 0,13,14
 37 636 37 636 79.5 678 c 128,-1,15
 122 720 122 720 190 720 c 0,0,1
183 628 m 0,16,17
 139 628 139 628 139 569 c 0,18,19
 139 546 139 546 151 531 c 128,-1,20
 163 516 163 516 186 516 c 0,21,22
 231 516 231 516 231 572 c 128,-1,23
 231 628 231 628 183 628 c 0,16,17
EndSplineSet
EndChar

StartChar: plusminus
Encoding: 177 177 113
Width: 563
GlyphClass: 2
Flags: W
LayerCount: 2
Fore
SplineSet
337 418 m 1,0,-1
 516 418 l 1,1,-1
 495 307 l 1,2,-1
 337 307 l 1,3,-1
 337 147 l 1,4,-1
 226 129 l 1,5,-1
 226 307 l 1,6,-1
 46 307 l 1,7,-1
 67 418 l 1,8,-1
 226 418 l 1,9,-1
 226 577 l 1,10,-1
 337 596 l 1,11,-1
 337 418 l 1,0,-1
516 88 m 1,12,-1
 496 -23 l 1,13,-1
 47 -23 l 1,14,-1
 68 88 l 1,15,-1
 516 88 l 1,12,-1
EndSplineSet
EndChar

StartChar: twosuperior
Encoding: 178 178 114
Width: 398
GlyphClass: 2
Flags: W
LayerCount: 2
Fore
SplineSet
42 684 m 1,0,1
 109 722 109 722 188.5 722 c 128,-1,2
 268 722 268 722 306.5 686 c 128,-1,3
 345 650 345 650 345 590 c 0,4,5
 345 507 345 507 225 421 c 2,6,-1
 155 371 l 1,7,-1
 161 365 l 1,8,-1
 215 385 l 1,9,-1
 354 385 l 1,10,-1
 334 304 l 1,11,-1
 48 304 l 1,12,-1
 48 389 l 1,13,-1
 128 458 l 1,14,15
 181 502 181 502 204 530.5 c 128,-1,16
 227 559 227 559 227 585.5 c 128,-1,17
 227 612 227 612 211 626 c 128,-1,18
 195 640 195 640 162.5 640 c 128,-1,19
 130 640 130 640 75 617 c 1,20,-1
 42 684 l 1,0,1
EndSplineSet
EndChar

StartChar: threesuperior
Encoding: 179 179 115
Width: 388
GlyphClass: 2
Flags: W
LayerCount: 2
Fore
SplineSet
55 689 m 1,0,1
 130 722 130 722 198 722 c 128,-1,2
 266 722 266 722 300 693.5 c 128,-1,3
 334 665 334 665 334 622 c 0,4,5
 334 558 334 558 275 528 c 1,6,7
 316 503 316 503 329 486 c 0,8,9
 348 461 348 461 348 434 c 0,10,11
 348 368 348 368 301.5 333 c 128,-1,12
 255 298 255 298 172.5 298 c 128,-1,13
 90 298 90 298 35 338 c 1,14,-1
 71 404 l 1,15,16
 130 379 130 379 181.5 379 c 128,-1,17
 233 379 233 379 233 430 c 0,18,19
 233 476 233 476 172 476 c 2,20,-1
 113 476 l 1,21,-1
 113 552 l 1,22,23
 219 552 219 552 219 604 c 0,24,25
 219 641 219 641 179 641 c 128,-1,26
 139 641 139 641 86 627 c 1,27,-1
 55 689 l 1,0,1
EndSplineSet
EndChar

StartChar: acute
Encoding: 180 180 116
Width: 336
GlyphClass: 2
Flags: W
LayerCount: 2
Fore
SplineSet
248 768 m 1,0,-1
 304 665 l 1,1,-1
 80 568 l 1,2,-1
 33 646 l 1,3,-1
 248 768 l 1,0,-1
EndSplineSet
EndChar

StartChar: mu
Encoding: 181 181 117
AltUni2: 0003bc.ffffffff.0
Width: 551
GlyphClass: 2
Flags: W
LayerCount: 2
Fore
SplineSet
487 179 m 2,0,1
 487 142 487 142 495 119 c 128,-1,2
 503 96 503 96 528 69 c 1,3,-1
 441 -12 l 1,4,5
 398 10 398 10 369 57 c 1,6,-1
 365 62 l 1,7,8
 345 30 345 30 306.5 9 c 128,-1,9
 268 -12 268 -12 229 -12 c 128,-1,10
 190 -12 190 -12 175 6 c 1,11,-1
 172 3 l 1,12,-1
 205 -47 l 1,13,-1
 205 -180 l 1,14,-1
 51 -197 l 1,15,-1
 51 526 l 1,16,-1
 205 540 l 1,17,-1
 205 171 l 2,18,19
 205 106 205 106 268 106 c 0,20,21
 306 106 306 106 334 136 c 1,22,-1
 334 526 l 1,23,-1
 487 540 l 1,24,-1
 487 179 l 2,0,1
EndSplineSet
EndChar

StartChar: paragraph
Encoding: 182 182 118
Width: 595
GlyphClass: 2
Flags: W
LayerCount: 2
Fore
SplineSet
561 700 m 1,0,-1
 561 623 l 1,1,-1
 513 623 l 1,2,-1
 513 117 l 2,3,4
 513 53 513 53 480.5 7 c 128,-1,5
 448 -39 448 -39 391 -79 c 1,6,-1
 263 -161 l 1,7,-1
 206 -93 l 1,8,9
 257 -58 257 -58 268 -33.5 c 128,-1,10
 279 -9 279 -9 279 51 c 2,11,-1
 279 248 l 1,12,-1
 224 248 l 2,13,14
 172 248 172 248 133 267 c 128,-1,15
 94 286 94 286 72 318 c 0,16,17
 29 382 29 382 29 470 c 0,18,19
 29 700 29 700 225 700 c 2,20,-1
 561 700 l 1,0,-1
377 623 m 1,21,-1
 377 40 l 1,22,23
 418 74 418 74 418 118 c 2,24,-1
 418 623 l 1,25,-1
 377 623 l 1,21,-1
202 549 m 128,-1,27
 198 519 198 519 198 459 c 128,-1,28
 198 399 198 399 212 360.5 c 128,-1,29
 226 322 226 322 263 322 c 2,30,-1
 279 322 l 1,31,-1
 279 625 l 1,32,-1
 263 625 l 2,33,34
 236 625 236 625 221 602 c 128,-1,26
 206 579 206 579 202 549 c 128,-1,27
EndSplineSet
EndChar

StartChar: periodcentered
Encoding: 183 183 119
Width: 227
GlyphClass: 2
Flags: W
LayerCount: 2
Fore
SplineSet
117 386 m 0,0,1
 193 386 193 386 193 301 c 0,2,3
 193 269 193 269 172.5 246.5 c 128,-1,4
 152 224 152 224 108 224 c 0,5,6
 32 224 32 224 32 308 c 0,7,8
 32 341 32 341 52.5 363.5 c 128,-1,9
 73 386 73 386 117 386 c 0,0,1
EndSplineSet
EndChar

StartChar: cedilla
Encoding: 184 184 120
Width: 235
GlyphClass: 2
Flags: W
LayerCount: 2
Fore
SplineSet
213 -109 m 128,-1,1
 213 -152 213 -152 186 -174 c 128,-1,2
 159 -196 159 -196 113.5 -196 c 128,-1,3
 68 -196 68 -196 22 -174 c 1,4,-1
 43 -121 l 1,5,6
 81 -132 81 -132 105 -132 c 128,-1,7
 129 -132 129 -132 129 -112 c 0,8,9
 129 -96 129 -96 97.5 -89 c 128,-1,10
 66 -82 66 -82 56 -80 c 1,11,-1
 84 26 l 1,12,-1
 148 26 l 1,13,-1
 140 -40 l 1,14,15
 145 -42 145 -42 157 -45 c 128,-1,16
 169 -48 169 -48 174 -50 c 0,17,0
 213 -66 213 -66 213 -109 c 128,-1,1
EndSplineSet
EndChar

StartChar: onesuperior
Encoding: 185 185 121
Width: 363
GlyphClass: 2
Flags: W
LayerCount: 2
Fore
SplineSet
328 304 m 1,0,-1
 55 304 l 1,1,-1
 55 372 l 1,2,-1
 140 384 l 1,3,-1
 140 550 l 1,4,-1
 163 612 l 1,5,-1
 159 616 l 1,6,-1
 123 586 l 1,7,-1
 72 563 l 1,8,-1
 37 628 l 1,9,-1
 134 692 l 1,10,-1
 169 722 l 1,11,-1
 260 712 l 1,12,-1
 252 603 l 1,13,-1
 252 383 l 1,14,-1
 328 372 l 1,15,-1
 328 304 l 1,0,-1
EndSplineSet
EndChar

StartChar: ordmasculine
Encoding: 186 186 122
Width: 423
GlyphClass: 2
Flags: W
LayerCount: 2
Fore
SplineSet
225 722 m 0,0,1
 340 722 340 722 374 626 c 0,2,3
 390 579 390 579 390 498.5 c 128,-1,4
 390 418 390 418 345.5 358 c 128,-1,5
 301 298 301 298 203 298 c 0,6,7
 98 298 98 298 64 368 c 0,8,9
 34 428 34 428 34 514 c 128,-1,10
 34 600 34 600 80.5 661 c 128,-1,11
 127 722 127 722 225 722 c 0,0,1
259.5 606 m 128,-1,13
 247 635 247 635 210.5 635 c 128,-1,14
 174 635 174 635 163.5 608 c 128,-1,15
 153 581 153 581 153 512 c 128,-1,16
 153 443 153 443 165.5 414 c 128,-1,17
 178 385 178 385 214.5 385 c 128,-1,18
 251 385 251 385 261.5 412 c 128,-1,19
 272 439 272 439 272 508 c 128,-1,12
 272 577 272 577 259.5 606 c 128,-1,13
EndSplineSet
EndChar

StartChar: guillemotright
Encoding: 187 187 123
Width: 515
GlyphClass: 2
Flags: W
LayerCount: 2
Fore
SplineSet
345 476 m 1,0,-1
 468 250 l 1,1,-1
 345 24 l 1,2,-1
 240 54 l 1,3,-1
 333 250 l 1,4,-1
 240 446 l 1,5,-1
 345 476 l 1,0,-1
145 476 m 1,6,-1
 268 250 l 1,7,-1
 145 24 l 1,8,-1
 40 54 l 1,9,-1
 133 250 l 1,10,-1
 40 446 l 1,11,-1
 145 476 l 1,6,-1
EndSplineSet
EndChar

StartChar: onequarter
Encoding: 188 188 124
Width: 891
GlyphClass: 2
Flags: W
LayerCount: 2
Fore
SplineSet
695 150 m 1,0,-1
 695 191 l 1,1,-1
 716 277 l 1,2,-1
 790 286 l 1,3,-1
 790 150 l 1,4,-1
 859 150 l 1,5,-1
 843 77 l 1,6,-1
 790 77 l 1,7,-1
 790 2 l 1,8,-1
 695 -9 l 1,9,-1
 695 77 l 1,10,-1
 516 77 l 1,11,-1
 516 167 l 1,12,-1
 667 415 l 1,13,-1
 735 369 l 1,14,-1
 613 150 l 1,15,-1
 695 150 l 1,0,-1
657 718 m 1,16,-1
 343 -5 l 1,17,-1
 258 34 l 1,18,-1
 572 757 l 1,19,-1
 657 718 l 1,16,-1
318 304 m 1,20,-1
 45 304 l 1,21,-1
 45 372 l 1,22,-1
 130 384 l 1,23,-1
 130 550 l 1,24,-1
 153 612 l 1,25,-1
 149 616 l 1,26,-1
 113 586 l 1,27,-1
 62 563 l 1,28,-1
 26 628 l 1,29,-1
 124 692 l 1,30,-1
 159 722 l 1,31,-1
 249 712 l 1,32,-1
 242 603 l 1,33,-1
 242 383 l 1,34,-1
 318 372 l 1,35,-1
 318 304 l 1,20,-1
EndSplineSet
EndChar

StartChar: onehalf
Encoding: 189 189 125
Width: 917
GlyphClass: 2
Flags: W
LayerCount: 2
Fore
SplineSet
573 380 m 1,0,1
 640 418 640 418 719 418 c 128,-1,2
 798 418 798 418 837 382 c 128,-1,3
 876 346 876 346 876 286 c 0,4,5
 876 203 876 203 756 117 c 2,6,-1
 686 67 l 1,7,-1
 692 61 l 1,8,-1
 745 81 l 1,9,-1
 885 81 l 1,10,-1
 864 0 l 1,11,-1
 579 0 l 1,12,-1
 579 85 l 1,13,-1
 659 154 l 2,14,15
 713 201 713 201 735.5 228.5 c 128,-1,16
 758 256 758 256 758 282 c 128,-1,17
 758 308 758 308 741.5 322 c 128,-1,18
 725 336 725 336 693 336 c 128,-1,19
 661 336 661 336 606 313 c 1,20,-1
 573 380 l 1,0,1
657 718 m 1,21,-1
 343 -5 l 1,22,-1
 258 34 l 1,23,-1
 572 757 l 1,24,-1
 657 718 l 1,21,-1
318 304 m 1,25,-1
 45 304 l 1,26,-1
 45 372 l 1,27,-1
 130 384 l 1,28,-1
 130 550 l 1,29,-1
 153 612 l 1,30,-1
 149 616 l 1,31,-1
 113 586 l 1,32,-1
 62 563 l 1,33,-1
 26 628 l 1,34,-1
 124 692 l 1,35,-1
 159 722 l 1,36,-1
 249 712 l 1,37,-1
 242 603 l 1,38,-1
 242 383 l 1,39,-1
 318 372 l 1,40,-1
 318 304 l 1,25,-1
EndSplineSet
EndChar

StartChar: threequarters
Encoding: 190 190 126
Width: 881
GlyphClass: 2
Flags: W
LayerCount: 2
Fore
SplineSet
657 718 m 1,0,-1
 344 -5 l 1,1,-1
 258 34 l 1,2,-1
 572 757 l 1,3,-1
 657 718 l 1,0,-1
51 689 m 1,4,5
 127 722 127 722 195 722 c 128,-1,6
 263 722 263 722 296.5 693.5 c 128,-1,7
 330 665 330 665 330 622 c 0,8,9
 330 559 330 559 272 528 c 1,10,11
 275 525 275 525 285.5 519 c 128,-1,12
 296 513 296 513 304.5 506.5 c 128,-1,13
 313 500 313 500 317 495.5 c 128,-1,14
 321 491 321 491 327.5 483.5 c 128,-1,15
 334 476 334 476 337 469 c 0,16,17
 345 450 345 450 345 434 c 0,18,19
 345 368 345 368 298.5 333 c 128,-1,20
 252 298 252 298 169.5 298 c 128,-1,21
 87 298 87 298 31 338 c 1,22,-1
 68 404 l 1,23,24
 127 379 127 379 178 379 c 128,-1,25
 229 379 229 379 229 430 c 0,26,27
 229 476 229 476 169 476 c 2,28,-1
 109 476 l 1,29,-1
 109 552 l 1,30,31
 216 552 216 552 216 604 c 0,32,33
 216 641 216 641 176 641 c 128,-1,34
 136 641 136 641 83 627 c 1,35,-1
 51 689 l 1,4,5
685 150 m 1,36,-1
 685 191 l 1,37,-1
 706 277 l 1,38,-1
 780 286 l 1,39,-1
 780 150 l 1,40,-1
 850 150 l 1,41,-1
 833 77 l 1,42,-1
 780 77 l 1,43,-1
 780 2 l 1,44,-1
 685 -9 l 1,45,-1
 685 77 l 1,46,-1
 506 77 l 1,47,-1
 506 167 l 1,48,-1
 658 415 l 1,49,-1
 725 369 l 1,50,-1
 603 150 l 1,51,-1
 685 150 l 1,36,-1
EndSplineSet
EndChar

StartChar: questiondown
Encoding: 191 191 127
Width: 452
GlyphClass: 2
Flags: W
LayerCount: 2
Fore
SplineSet
336 331 m 1,0,1
 343 236 343 236 343 209 c 128,-1,2
 343 182 343 182 326 159 c 128,-1,3
 309 136 309 136 272 105 c 1,4,5
 241 81 241 81 227.5 69 c 128,-1,6
 214 57 214 57 202 36.5 c 128,-1,7
 190 16 190 16 190 -7 c 0,8,9
 190 -71 190 -71 271 -71 c 0,10,11
 301 -71 301 -71 341 -58 c 128,-1,12
 381 -45 381 -45 392 -42 c 1,13,-1
 429 -130 l 1,14,15
 340 -186 340 -186 235 -186 c 128,-1,16
 130 -186 130 -186 77.5 -140 c 128,-1,17
 25 -94 25 -94 25 -25.5 c 128,-1,18
 25 43 25 43 51 79.5 c 128,-1,19
 77 116 77 116 125 148.5 c 128,-1,20
 173 181 173 181 181 198.5 c 128,-1,21
 189 216 189 216 191 250 c 2,22,-1
 194 316 l 1,23,-1
 336 331 l 1,0,1
267 545 m 0,24,25
 352 545 352 545 352 452 c 0,26,27
 352 416 352 416 329 391 c 128,-1,28
 306 366 306 366 258 366 c 0,29,30
 173 366 173 366 173 460 c 0,31,32
 173 496 173 496 196 520.5 c 128,-1,33
 219 545 219 545 267 545 c 0,24,25
EndSplineSet
EndChar

StartChar: Agrave
Encoding: 192 192 128
Width: 568
GlyphClass: 2
Flags: W
LayerCount: 2
Fore
SplineSet
376 821 m 1,0,-1
 332 740 l 1,1,-1
 100 826 l 1,2,-1
 151 932 l 1,3,-1
 376 821 l 1,0,-1
373 713 m 1,4,-1
 564 0 l 1,5,-1
 399 0 l 1,6,-1
 359 173 l 1,7,-1
 206 173 l 1,8,-1
 165 0 l 1,9,-1
 3 0 l 1,10,-1
 190 696 l 1,11,-1
 373 713 l 1,4,-1
280 533 m 1,12,-1
 228 292 l 1,13,-1
 338 292 l 1,14,-1
 292 533 l 1,15,-1
 280 533 l 1,12,-1
EndSplineSet
EndChar

StartChar: Aacute
Encoding: 193 193 129
Width: 568
GlyphClass: 2
Flags: W
LayerCount: 2
Fore
SplineSet
412 932 m 1,0,-1
 463 826 l 1,1,-1
 232 740 l 1,2,-1
 187 821 l 1,3,-1
 412 932 l 1,0,-1
373 713 m 1,4,-1
 564 0 l 1,5,-1
 399 0 l 1,6,-1
 359 173 l 1,7,-1
 206 173 l 1,8,-1
 165 0 l 1,9,-1
 3 0 l 1,10,-1
 190 696 l 1,11,-1
 373 713 l 1,4,-1
280 533 m 1,12,-1
 228 292 l 1,13,-1
 338 292 l 1,14,-1
 292 533 l 1,15,-1
 280 533 l 1,12,-1
EndSplineSet
EndChar

StartChar: Acircumflex
Encoding: 194 194 130
Width: 568
GlyphClass: 2
Flags: W
LayerCount: 2
Fore
SplineSet
318 924 m 1,0,-1
 450 800 l 1,1,-1
 395 743 l 1,2,-1
 284 824 l 1,3,-1
 173 743 l 1,4,-1
 118 800 l 1,5,-1
 250 924 l 1,6,-1
 318 924 l 1,0,-1
373 713 m 1,7,-1
 564 0 l 1,8,-1
 399 0 l 1,9,-1
 359 173 l 1,10,-1
 206 173 l 1,11,-1
 165 0 l 1,12,-1
 3 0 l 1,13,-1
 190 696 l 1,14,-1
 373 713 l 1,7,-1
280 533 m 1,15,-1
 228 292 l 1,16,-1
 338 292 l 1,17,-1
 292 533 l 1,18,-1
 280 533 l 1,15,-1
EndSplineSet
EndChar

StartChar: Atilde
Encoding: 195 195 131
Width: 568
GlyphClass: 2
Flags: W
LayerCount: 2
Fore
SplineSet
373 713 m 1,0,-1
 564 0 l 1,1,-1
 399 0 l 1,2,-1
 359 173 l 1,3,-1
 206 173 l 1,4,-1
 165 0 l 1,5,-1
 3 0 l 1,6,-1
 190 696 l 1,7,-1
 373 713 l 1,0,-1
280 533 m 1,8,-1
 228 292 l 1,9,-1
 338 292 l 1,10,-1
 292 533 l 1,11,-1
 280 533 l 1,8,-1
334 768 m 0,12,13
 308 768 308 768 271.5 784 c 128,-1,14
 235 800 235 800 215 800 c 0,15,16
 178 800 178 800 136 770 c 1,17,-1
 104 843 l 1,18,19
 165 903 165 903 231 903 c 0,20,21
 258 903 258 903 294 887 c 128,-1,22
 330 871 330 871 354.5 871 c 128,-1,23
 379 871 379 871 431 902 c 1,24,-1
 460 828 l 1,25,26
 392 768 392 768 334 768 c 0,12,13
EndSplineSet
EndChar

StartChar: Adieresis
Encoding: 196 196 132
Width: 565
GlyphClass: 2
Flags: W
LayerCount: 2
Fore
SplineSet
182 918 m 0,0,1
 257 918 257 918 257 835 c 0,2,3
 257 802 257 802 237.5 781 c 128,-1,4
 218 760 218 760 174 760 c 0,5,6
 99 760 99 760 99 842 c 0,7,8
 99 875 99 875 118.5 896.5 c 128,-1,9
 138 918 138 918 182 918 c 0,0,1
391 918 m 0,10,11
 466 918 466 918 466 835 c 0,12,13
 466 760 466 760 382 760 c 0,14,15
 308 760 308 760 308 842 c 0,16,17
 308 875 308 875 327.5 896.5 c 128,-1,18
 347 918 347 918 391 918 c 0,10,11
372 713 m 1,19,-1
 562 0 l 1,20,-1
 398 0 l 1,21,-1
 358 173 l 1,22,-1
 205 173 l 1,23,-1
 164 0 l 1,24,-1
 2 0 l 1,25,-1
 189 696 l 1,26,-1
 372 713 l 1,19,-1
279 533 m 1,27,-1
 227 292 l 1,28,-1
 336 292 l 1,29,-1
 290 533 l 1,30,-1
 279 533 l 1,27,-1
EndSplineSet
EndChar

StartChar: Aring
Encoding: 197 197 133
Width: 565
GlyphClass: 2
Flags: W
LayerCount: 2
Fore
SplineSet
372 713 m 1,0,-1
 562 0 l 1,1,-1
 398 0 l 1,2,-1
 358 173 l 1,3,-1
 205 173 l 1,4,-1
 164 0 l 1,5,-1
 2 0 l 1,6,-1
 189 696 l 1,7,-1
 372 713 l 1,0,-1
279 533 m 1,8,-1
 227 292 l 1,9,-1
 336 292 l 1,10,-1
 290 533 l 1,11,-1
 279 533 l 1,8,-1
285 944 m 128,-1,13
 335 944 335 944 359.5 916 c 128,-1,14
 384 888 384 888 384 846.5 c 128,-1,15
 384 805 384 805 356.5 773 c 128,-1,16
 329 741 329 741 280 741 c 128,-1,17
 231 741 231 741 206 770 c 128,-1,18
 181 799 181 799 181 841 c 128,-1,19
 181 883 181 883 208 913.5 c 128,-1,12
 235 944 235 944 285 944 c 128,-1,13
280 880 m 0,20,21
 264 880 264 880 255.5 870 c 128,-1,22
 247 860 247 860 247 844 c 0,23,24
 247 805 247 805 284 805 c 0,25,26
 299 805 299 805 308 815 c 128,-1,27
 317 825 317 825 317 841 c 0,28,29
 317 880 317 880 280 880 c 0,20,21
EndSplineSet
EndChar

StartChar: AE
Encoding: 198 198 134
Width: 825
GlyphClass: 2
Flags: W
LayerCount: 2
Fore
SplineSet
543 583 m 1,0,-1
 543 422 l 1,1,-1
 761 422 l 1,2,-1
 743 300 l 1,3,-1
 543 300 l 1,4,-1
 543 124 l 1,5,-1
 807 124 l 1,6,-1
 789 0 l 1,7,-1
 379 0 l 1,8,-1
 379 173 l 1,9,-1
 220 173 l 1,10,-1
 153 0 l 1,11,-1
 -10 0 l 1,12,-1
 278 708 l 1,13,-1
 802 708 l 1,14,-1
 784 583 l 1,15,-1
 543 583 l 1,0,-1
379 292 m 1,16,-1
 379 546 l 1,17,-1
 362 546 l 1,18,-1
 262 292 l 1,19,-1
 379 292 l 1,16,-1
EndSplineSet
EndChar

StartChar: Ccedilla
Encoding: 199 199 135
Width: 556
GlyphClass: 2
Flags: W
LayerCount: 2
Fore
SplineSet
388 -109 m 0,0,1
 388 -152 388 -152 361 -174 c 128,-1,2
 334 -196 334 -196 288 -196 c 128,-1,3
 242 -196 242 -196 196 -174 c 1,4,-1
 217 -121 l 1,5,6
 258 -132 258 -132 280.5 -132 c 128,-1,7
 303 -132 303 -132 303 -112.5 c 128,-1,8
 303 -93 303 -93 237 -81 c 0,9,10
 235 -81 235 -81 233 -80.5 c 128,-1,11
 231 -80 231 -80 230 -80 c 2,12,-1
 249 -6 l 1,13,14
 30 31 30 31 30 352 c 0,15,16
 30 455 30 455 57.5 535 c 128,-1,17
 85 615 85 615 150.5 667.5 c 128,-1,18
 216 720 216 720 324 720 c 128,-1,19
 432 720 432 720 481 664.5 c 128,-1,20
 530 609 530 609 530 481 c 1,21,-1
 367 473 l 1,22,23
 367 542 367 542 352.5 567 c 128,-1,24
 338 592 338 592 304.5 592 c 128,-1,25
 271 592 271 592 252 575.5 c 128,-1,26
 233 559 233 559 223 525 c 0,27,28
 206 467 206 467 206 347.5 c 128,-1,29
 206 228 206 228 242 172.5 c 128,-1,30
 278 117 278 117 361 117 c 0,31,32
 412 117 412 117 505 147 c 1,33,-1
 538 43 l 1,34,35
 434 -11 434 -11 317 -12 c 1,36,-1
 314 -40 l 1,37,38
 316 -41 316 -41 329 -44.5 c 128,-1,39
 342 -48 342 -48 346.5 -49.5 c 128,-1,40
 351 -51 351 -51 361.5 -57 c 128,-1,41
 372 -63 372 -63 376 -69 c 0,42,43
 388 -87 388 -87 388 -109 c 0,0,1
EndSplineSet
EndChar

StartChar: Egrave
Encoding: 200 200 136
Width: 522
GlyphClass: 2
Flags: W
LayerCount: 2
Fore
SplineSet
376 821 m 1,0,-1
 332 740 l 1,1,-1
 101 826 l 1,2,-1
 151 932 l 1,3,-1
 376 821 l 1,0,-1
67 708 m 1,4,-1
 499 708 l 1,5,-1
 481 583 l 1,6,-1
 231 583 l 1,7,-1
 231 422 l 1,8,-1
 457 422 l 1,9,-1
 440 300 l 1,10,-1
 231 300 l 1,11,-1
 231 124 l 1,12,-1
 504 124 l 1,13,-1
 486 0 l 1,14,-1
 67 0 l 1,15,-1
 67 708 l 1,4,-1
EndSplineSet
EndChar

StartChar: Eacute
Encoding: 201 201 137
Width: 523
GlyphClass: 2
Flags: W
LayerCount: 2
Fore
SplineSet
414 932 m 1,0,-1
 464 826 l 1,1,-1
 233 740 l 1,2,-1
 189 821 l 1,3,-1
 414 932 l 1,0,-1
67 708 m 1,4,-1
 499 708 l 1,5,-1
 481 583 l 1,6,-1
 231 583 l 1,7,-1
 231 422 l 1,8,-1
 457 422 l 1,9,-1
 440 300 l 1,10,-1
 231 300 l 1,11,-1
 231 124 l 1,12,-1
 504 124 l 1,13,-1
 486 0 l 1,14,-1
 67 0 l 1,15,-1
 67 708 l 1,4,-1
EndSplineSet
EndChar

StartChar: Ecircumflex
Encoding: 202 202 138
Width: 522
GlyphClass: 2
Flags: W
LayerCount: 2
Fore
SplineSet
314 924 m 1,0,-1
 446 800 l 1,1,-1
 391 743 l 1,2,-1
 280 824 l 1,3,-1
 169 743 l 1,4,-1
 114 800 l 1,5,-1
 246 924 l 1,6,-1
 314 924 l 1,0,-1
67 708 m 1,7,-1
 499 708 l 1,8,-1
 481 583 l 1,9,-1
 231 583 l 1,10,-1
 231 422 l 1,11,-1
 457 422 l 1,12,-1
 440 300 l 1,13,-1
 231 300 l 1,14,-1
 231 124 l 1,15,-1
 504 124 l 1,16,-1
 486 0 l 1,17,-1
 67 0 l 1,18,-1
 67 708 l 1,7,-1
EndSplineSet
EndChar

StartChar: Edieresis
Encoding: 203 203 139
Width: 522
GlyphClass: 2
Flags: W
LayerCount: 2
Fore
SplineSet
180 918 m 0,0,1
 254 918 254 918 254 835 c 0,2,3
 254 802 254 802 234.5 781 c 128,-1,4
 215 760 215 760 171 760 c 0,5,6
 96 760 96 760 96 842 c 0,7,8
 96 875 96 875 116 896.5 c 128,-1,9
 136 918 136 918 180 918 c 0,0,1
388 918 m 0,10,11
 463 918 463 918 463 835 c 0,12,13
 463 802 463 802 443.5 781 c 128,-1,14
 424 760 424 760 380 760 c 0,15,16
 305 760 305 760 305 842 c 0,17,18
 305 875 305 875 324.5 896.5 c 128,-1,19
 344 918 344 918 388 918 c 0,10,11
67 708 m 1,20,-1
 499 708 l 1,21,-1
 481 583 l 1,22,-1
 231 583 l 1,23,-1
 231 422 l 1,24,-1
 457 422 l 1,25,-1
 440 300 l 1,26,-1
 231 300 l 1,27,-1
 231 124 l 1,28,-1
 504 124 l 1,29,-1
 486 0 l 1,30,-1
 67 0 l 1,31,-1
 67 708 l 1,20,-1
EndSplineSet
EndChar

StartChar: Igrave
Encoding: 204 204 140
Width: 298
GlyphClass: 2
Flags: W
LayerCount: 2
Fore
SplineSet
247 821 m 1,0,-1
 203 740 l 1,1,-1
 -29 826 l 1,2,-1
 22 932 l 1,3,-1
 247 821 l 1,0,-1
231 708 m 1,4,-1
 231 0 l 1,5,-1
 67 0 l 1,6,-1
 67 708 l 1,7,-1
 231 708 l 1,4,-1
EndSplineSet
EndChar

StartChar: Iacute
Encoding: 205 205 141
Width: 298
GlyphClass: 2
Flags: W
LayerCount: 2
Fore
SplineSet
274 932 m 1,0,-1
 324 826 l 1,1,-1
 93 740 l 1,2,-1
 48 821 l 1,3,-1
 274 932 l 1,0,-1
231 708 m 1,4,-1
 231 0 l 1,5,-1
 68 0 l 1,6,-1
 68 708 l 1,7,-1
 231 708 l 1,4,-1
EndSplineSet
EndChar

StartChar: Icircumflex
Encoding: 206 206 142
Width: 298
GlyphClass: 2
Flags: W
LayerCount: 2
Fore
SplineSet
184 924 m 1,0,-1
 313 800 l 1,1,-1
 258 743 l 1,2,-1
 150 824 l 1,3,-1
 43 743 l 1,4,-1
 -12 800 l 1,5,-1
 117 924 l 1,6,-1
 184 924 l 1,0,-1
231 708 m 1,7,-1
 231 0 l 1,8,-1
 67 0 l 1,9,-1
 67 708 l 1,10,-1
 231 708 l 1,7,-1
EndSplineSet
EndChar

StartChar: Idieresis
Encoding: 207 207 143
Width: 298
GlyphClass: 2
Flags: W
LayerCount: 2
Fore
SplineSet
58 918 m 0,0,1
 132 918 132 918 132 835 c 0,2,3
 132 802 132 802 112.5 781 c 128,-1,4
 93 760 93 760 49 760 c 0,5,6
 -26 760 -26 760 -26 842 c 0,7,8
 -26 875 -26 875 -6 896.5 c 128,-1,9
 14 918 14 918 58 918 c 0,0,1
252 918 m 0,10,11
 327 918 327 918 327 835 c 0,12,13
 327 802 327 802 307.5 781 c 128,-1,14
 288 760 288 760 244 760 c 0,15,16
 169 760 169 760 169 842 c 0,17,18
 169 875 169 875 188.5 896.5 c 128,-1,19
 208 918 208 918 252 918 c 0,10,11
231 708 m 1,20,-1
 231 0 l 1,21,-1
 67 0 l 1,22,-1
 67 708 l 1,23,-1
 231 708 l 1,20,-1
EndSplineSet
EndChar

StartChar: Eth
Encoding: 208 208 144
Width: 617
GlyphClass: 2
Flags: W
LayerCount: 2
Fore
SplineSet
79 708 m 1,0,-1
 306 708 l 2,1,2
 375 708 375 708 427 687 c 128,-1,3
 479 666 479 666 508.5 633.5 c 128,-1,4
 538 601 538 601 556 552 c 0,5,6
 586 470 586 470 586 352 c 0,7,8
 586 209 586 209 525 109 c 0,9,10
 494 58 494 58 438.5 29 c 128,-1,11
 383 0 383 0 308 0 c 2,12,-1
 79 0 l 1,13,-1
 79 301 l 1,14,-1
 8 301 l 1,15,-1
 19 397 l 1,16,-1
 58 408 l 1,17,-1
 79 409 l 1,18,-1
 79 708 l 1,0,-1
242 584 m 1,19,-1
 242 409 l 1,20,-1
 339 409 l 1,21,-1
 325 301 l 1,22,-1
 242 301 l 1,23,-1
 242 124 l 1,24,-1
 305 124 l 2,25,26
 381 124 381 124 400 217 c 0,27,28
 410 269 410 269 410 373.5 c 128,-1,29
 410 478 410 478 385.5 531 c 128,-1,30
 361 584 361 584 297 584 c 2,31,-1
 242 584 l 1,19,-1
EndSplineSet
EndChar

StartChar: Ntilde
Encoding: 209 209 145
Width: 631
GlyphClass: 2
Flags: W
LayerCount: 2
Fore
SplineSet
367 772 m 0,0,1
 342 772 342 772 305 787.5 c 128,-1,2
 268 803 268 803 244 803 c 128,-1,3
 220 803 220 803 168 770 c 1,4,-1
 144 842 l 1,5,6
 207 899 207 899 264 899 c 0,7,8
 291 899 291 899 327 883.5 c 128,-1,9
 363 868 363 868 387.5 868 c 128,-1,10
 412 868 412 868 464 902 c 1,11,-1
 488 828 l 1,12,13
 425 772 425 772 367 772 c 0,0,1
563 708 m 1,14,-1
 563 0 l 1,15,-1
 408 0 l 1,16,-1
 241 358 l 1,17,-1
 214 427 l 1,18,-1
 207 425 l 1,19,-1
 231 301 l 1,20,-1
 231 0 l 1,21,-1
 67 0 l 1,22,-1
 67 708 l 1,23,-1
 224 708 l 1,24,-1
 391 335 l 1,25,-1
 417 270 l 1,26,-1
 423 273 l 1,27,-1
 400 402 l 1,28,-1
 400 708 l 1,29,-1
 563 708 l 1,14,-1
EndSplineSet
EndChar

StartChar: Ograve
Encoding: 210 210 146
Width: 635
GlyphClass: 2
Flags: W
LayerCount: 2
Fore
SplineSet
413 821 m 1,0,-1
 369 740 l 1,1,-1
 137 826 l 1,2,-1
 188 932 l 1,3,-1
 413 821 l 1,0,-1
234 537.5 m 128,-1,5
 216 483 216 483 216 352.5 c 128,-1,6
 216 222 216 222 236 169 c 128,-1,7
 256 116 256 116 319.5 116 c 128,-1,8
 383 116 383 116 401 170 c 128,-1,9
 419 224 419 224 419 362 c 0,10,11
 419 514 419 514 391 554 c 0,12,13
 364 592 364 592 308 592 c 128,-1,4
 252 592 252 592 234 537.5 c 128,-1,5
327 720 m 0,14,15
 595 720 595 720 595 367 c 0,16,17
 595 187 595 187 523 87.5 c 128,-1,18
 451 -12 451 -12 308 -12 c 0,19,20
 40 -12 40 -12 40 340 c 0,21,22
 40 520 40 520 112 620 c 128,-1,23
 184 720 184 720 327 720 c 0,14,15
EndSplineSet
EndChar

StartChar: Oacute
Encoding: 211 211 147
Width: 635
GlyphClass: 2
Flags: W
LayerCount: 2
Fore
SplineSet
450 932 m 1,0,-1
 501 826 l 1,1,-1
 269 740 l 1,2,-1
 225 821 l 1,3,-1
 450 932 l 1,0,-1
234 537.5 m 128,-1,5
 216 483 216 483 216 352.5 c 128,-1,6
 216 222 216 222 236 169 c 128,-1,7
 256 116 256 116 319.5 116 c 128,-1,8
 383 116 383 116 401 170 c 128,-1,9
 419 224 419 224 419 362 c 0,10,11
 419 514 419 514 391 554 c 0,12,13
 364 592 364 592 308 592 c 128,-1,4
 252 592 252 592 234 537.5 c 128,-1,5
327 720 m 0,14,15
 595 720 595 720 595 367 c 0,16,17
 595 187 595 187 523 87.5 c 128,-1,18
 451 -12 451 -12 308 -12 c 0,19,20
 40 -12 40 -12 40 340 c 0,21,22
 40 520 40 520 112 620 c 128,-1,23
 184 720 184 720 327 720 c 0,14,15
EndSplineSet
EndChar

StartChar: Ocircumflex
Encoding: 212 212 148
Width: 635
GlyphClass: 2
Flags: W
LayerCount: 2
Fore
SplineSet
356 924 m 1,0,-1
 488 800 l 1,1,-1
 433 743 l 1,2,-1
 322 824 l 1,3,-1
 211 743 l 1,4,-1
 156 800 l 1,5,-1
 288 924 l 1,6,-1
 356 924 l 1,0,-1
234 537.5 m 128,-1,8
 216 483 216 483 216 352.5 c 128,-1,9
 216 222 216 222 236 169 c 128,-1,10
 256 116 256 116 319.5 116 c 128,-1,11
 383 116 383 116 401 170 c 128,-1,12
 419 224 419 224 419 362 c 0,13,14
 419 514 419 514 391 554 c 0,15,16
 364 592 364 592 308 592 c 128,-1,7
 252 592 252 592 234 537.5 c 128,-1,8
327 720 m 0,17,18
 595 720 595 720 595 367 c 0,19,20
 595 187 595 187 523 87.5 c 128,-1,21
 451 -12 451 -12 308 -12 c 0,22,23
 40 -12 40 -12 40 340 c 0,24,25
 40 520 40 520 112 620 c 128,-1,26
 184 720 184 720 327 720 c 0,17,18
EndSplineSet
EndChar

StartChar: Otilde
Encoding: 213 213 149
Width: 635
GlyphClass: 2
Flags: W
LayerCount: 2
Fore
SplineSet
234 537.5 m 128,-1,1
 216 483 216 483 216 352.5 c 128,-1,2
 216 222 216 222 236 169 c 128,-1,3
 256 116 256 116 319.5 116 c 128,-1,4
 383 116 383 116 401 170 c 128,-1,5
 419 224 419 224 419 362 c 0,6,7
 419 514 419 514 391 554 c 0,8,9
 364 592 364 592 308 592 c 128,-1,0
 252 592 252 592 234 537.5 c 128,-1,1
327 719 m 0,10,11
 595 719 595 719 595 367 c 0,12,13
 595 187 595 187 523 87.5 c 128,-1,14
 451 -12 451 -12 308 -12 c 0,15,16
 40 -12 40 -12 40 340 c 0,17,18
 40 520 40 520 112 619.5 c 128,-1,19
 184 719 184 719 327 719 c 0,10,11
379 768 m 0,20,21
 353 768 353 768 315.5 783.5 c 128,-1,22
 278 799 278 799 259 799 c 0,23,24
 223 799 223 799 180 770 c 1,25,-1
 148 842 l 1,26,27
 209 902 209 902 276 902 c 0,28,29
 302 902 302 902 338 886.5 c 128,-1,30
 374 871 374 871 399.5 871 c 128,-1,31
 425 871 425 871 475 901 c 1,32,-1
 504 827 l 1,33,34
 436 768 436 768 379 768 c 0,20,21
EndSplineSet
EndChar

StartChar: Odieresis
Encoding: 214 214 150
Width: 635
GlyphClass: 2
Flags: W
LayerCount: 2
Fore
SplineSet
222 918 m 0,0,1
 297 918 297 918 297 835 c 0,2,3
 297 802 297 802 277 781 c 128,-1,4
 257 760 257 760 214 760 c 0,5,6
 138 760 138 760 138 842 c 0,7,8
 138 875 138 875 158 896.5 c 128,-1,9
 178 918 178 918 222 918 c 0,0,1
430 918 m 0,10,11
 505 918 505 918 505 835 c 0,12,13
 505 760 505 760 422 760 c 0,14,15
 347 760 347 760 347 842 c 0,16,17
 347 875 347 875 367 896.5 c 128,-1,18
 387 918 387 918 430 918 c 0,10,11
234 537.5 m 128,-1,20
 216 483 216 483 216 352.5 c 128,-1,21
 216 222 216 222 236 169 c 128,-1,22
 256 116 256 116 319.5 116 c 128,-1,23
 383 116 383 116 401 170 c 128,-1,24
 419 224 419 224 419 362 c 0,25,26
 419 514 419 514 391 554 c 0,27,28
 364 592 364 592 308 592 c 128,-1,19
 252 592 252 592 234 537.5 c 128,-1,20
327 719 m 0,29,30
 595 719 595 719 595 367 c 0,31,32
 595 187 595 187 523 87.5 c 128,-1,33
 451 -12 451 -12 308 -12 c 0,34,35
 40 -12 40 -12 40 340 c 0,36,37
 40 520 40 520 112 619.5 c 128,-1,38
 184 719 184 719 327 719 c 0,29,30
EndSplineSet
EndChar

StartChar: multiply
Encoding: 215 215 151
Width: 539
GlyphClass: 2
Flags: W
LayerCount: 2
Fore
SplineSet
478 403 m 1,0,-1
 351 276 l 1,1,-1
 464 163 l 1,2,-1
 386 66 l 1,3,-1
 263 188 l 1,4,-1
 155 79 l 1,5,-1
 51 149 l 1,6,-1
 176 275 l 1,7,-1
 66 386 l 1,8,-1
 142 485 l 1,9,-1
 263 363 l 1,10,-1
 376 476 l 1,11,-1
 478 403 l 1,0,-1
EndSplineSet
EndChar

StartChar: Oslash
Encoding: 216 216 152
Width: 634
GlyphClass: 2
Flags: W
LayerCount: 2
Fore
SplineSet
595 367 m 0,0,1
 595 187 595 187 523 87.5 c 128,-1,2
 451 -12 451 -12 308 -12 c 0,3,4
 255 -12 255 -12 208 3 c 1,5,-1
 172 -82 l 1,6,-1
 106 -54 l 1,7,-1
 145 37 l 1,8,9
 40 116 40 116 40 340 c 0,10,11
 40 520 40 520 112 620 c 128,-1,12
 184 720 184 720 327 720 c 0,13,14
 383 720 383 720 432 702 c 1,15,-1
 465 781 l 1,16,-1
 532 752 l 1,17,-1
 495 666 l 1,18,19
 595 585 595 585 595 367 c 0,0,1
374 572 m 1,20,21
 349 592 349 592 315 592 c 128,-1,22
 281 592 281 592 261 578.5 c 128,-1,23
 241 565 241 565 230.5 540.5 c 128,-1,24
 220 516 220 516 214.5 482 c 128,-1,25
 209 448 209 448 209 406 c 128,-1,26
 209 364 209 364 211 309 c 128,-1,27
 213 254 213 254 228 219 c 1,28,-1
 374 572 l 1,20,21
266 131 m 1,29,30
 287 116 287 116 320.5 116 c 128,-1,31
 354 116 354 116 374 129 c 128,-1,32
 394 142 394 142 404 166 c 1,33,34
 426 213 426 213 426 328 c 0,35,36
 426 437 426 437 410 479 c 1,37,-1
 266 131 l 1,29,30
EndSplineSet
EndChar

StartChar: Ugrave
Encoding: 217 217 153
Width: 625
GlyphClass: 2
Flags: W
LayerCount: 2
Fore
SplineSet
433 821 m 1,0,-1
 389 740 l 1,1,-1
 158 826 l 1,2,-1
 208 932 l 1,3,-1
 433 821 l 1,0,-1
558 708 m 1,4,-1
 558 167 l 1,5,-1
 569 9 l 1,6,-1
 450 -7 l 1,7,-1
 430 51 l 1,8,-1
 425 50 l 1,9,10
 361 -12 361 -12 267.5 -12 c 128,-1,11
 174 -12 174 -12 117 37 c 128,-1,12
 60 86 60 86 60 185 c 2,13,-1
 60 708 l 1,14,-1
 224 708 l 1,15,-1
 224 203 l 2,16,17
 224 112 224 112 312 112 c 0,18,19
 367 112 367 112 394 153 c 1,20,-1
 394 708 l 1,21,-1
 558 708 l 1,4,-1
EndSplineSet
EndChar

StartChar: Uacute
Encoding: 218 218 154
Width: 625
GlyphClass: 2
Flags: W
LayerCount: 2
Fore
SplineSet
438 932 m 1,0,-1
 488 826 l 1,1,-1
 257 740 l 1,2,-1
 213 821 l 1,3,-1
 438 932 l 1,0,-1
558 708 m 1,4,-1
 558 167 l 1,5,-1
 569 9 l 1,6,-1
 450 -7 l 1,7,-1
 430 51 l 1,8,-1
 425 50 l 1,9,10
 361 -12 361 -12 267.5 -12 c 128,-1,11
 174 -12 174 -12 117 37 c 128,-1,12
 60 86 60 86 60 185 c 2,13,-1
 60 708 l 1,14,-1
 224 708 l 1,15,-1
 224 203 l 2,16,17
 224 112 224 112 312 112 c 0,18,19
 367 112 367 112 394 153 c 1,20,-1
 394 708 l 1,21,-1
 558 708 l 1,4,-1
EndSplineSet
EndChar

StartChar: Ucircumflex
Encoding: 219 219 155
Width: 625
GlyphClass: 2
Flags: W
LayerCount: 2
Fore
SplineSet
343 924 m 1,0,-1
 476 800 l 1,1,-1
 421 743 l 1,2,-1
 310 824 l 1,3,-1
 198 743 l 1,4,-1
 144 800 l 1,5,-1
 276 924 l 1,6,-1
 343 924 l 1,0,-1
558 708 m 1,7,-1
 558 167 l 1,8,-1
 569 9 l 1,9,-1
 450 -7 l 1,10,-1
 430 51 l 1,11,-1
 425 50 l 1,12,13
 361 -12 361 -12 267.5 -12 c 128,-1,14
 174 -12 174 -12 117 37 c 128,-1,15
 60 86 60 86 60 185 c 2,16,-1
 60 708 l 1,17,-1
 224 708 l 1,18,-1
 224 203 l 2,19,20
 224 112 224 112 312 112 c 0,21,22
 367 112 367 112 394 153 c 1,23,-1
 394 708 l 1,24,-1
 558 708 l 1,7,-1
EndSplineSet
EndChar

StartChar: Udieresis
Encoding: 220 220 156
Width: 628
GlyphClass: 2
Flags: W
LayerCount: 2
Fore
SplineSet
209 918 m 0,0,1
 284 918 284 918 284 835 c 0,2,3
 284 802 284 802 264 781 c 128,-1,4
 244 760 244 760 201 760 c 0,5,6
 126 760 126 760 126 842 c 0,7,8
 126 875 126 875 145.5 896.5 c 128,-1,9
 165 918 165 918 209 918 c 0,0,1
418 918 m 0,10,11
 493 918 493 918 493 835 c 0,12,13
 493 760 493 760 409 760 c 0,14,15
 334 760 334 760 334 842 c 0,16,17
 334 875 334 875 354 896.5 c 128,-1,18
 374 918 374 918 418 918 c 0,10,11
558 708 m 1,19,-1
 558 167 l 1,20,-1
 569 9 l 1,21,-1
 450 -7 l 1,22,-1
 430 51 l 1,23,-1
 425 50 l 1,24,25
 361 -12 361 -12 267.5 -12 c 128,-1,26
 174 -12 174 -12 117 37 c 128,-1,27
 60 86 60 86 60 185 c 2,28,-1
 60 708 l 1,29,-1
 224 708 l 1,30,-1
 224 203 l 2,31,32
 224 112 224 112 312 112 c 0,33,34
 367 112 367 112 394 153 c 1,35,-1
 394 708 l 1,36,-1
 558 708 l 1,19,-1
EndSplineSet
EndChar

StartChar: Yacute
Encoding: 221 221 157
Width: 530
GlyphClass: 2
Flags: W
LayerCount: 2
Fore
SplineSet
400 932 m 1,0,-1
 450 826 l 1,1,-1
 219 740 l 1,2,-1
 175 821 l 1,3,-1
 400 932 l 1,0,-1
350 0 m 1,4,-1
 187 0 l 1,5,-1
 187 245 l 1,6,7
 180 261 180 261 -8 693 c 1,8,-1
 148 713 l 1,9,-1
 266 395 l 1,10,-1
 272 395 l 1,11,-1
 395 713 l 1,12,-1
 538 692 l 1,13,-1
 350 245 l 1,14,-1
 350 0 l 1,4,-1
EndSplineSet
EndChar

StartChar: Thorn
Encoding: 222 222 158
Width: 554
GlyphClass: 2
Flags: W
LayerCount: 2
Fore
SplineSet
224 708 m 1,0,-1
 224 589 l 1,1,-1
 317 589 l 2,2,3
 447 589 447 589 498.5 531 c 128,-1,4
 550 473 550 473 550 376 c 0,5,6
 550 284 550 284 496 213 c 0,7,8
 467 175 467 175 408 152.5 c 128,-1,9
 349 130 349 130 267 130 c 2,10,-1
 224 130 l 1,11,-1
 224 0 l 1,12,-1
 60 0 l 1,13,-1
 60 708 l 1,14,-1
 224 708 l 1,0,-1
224 476 m 1,15,-1
 224 247 l 1,16,-1
 279 247 l 2,17,18
 330 247 330 247 352.5 274.5 c 128,-1,19
 375 302 375 302 375 360 c 128,-1,20
 375 418 375 418 356 447 c 128,-1,21
 337 476 337 476 279 476 c 2,22,-1
 224 476 l 1,15,-1
EndSplineSet
EndChar

StartChar: germandbls
Encoding: 223 223 159
Width: 614
GlyphClass: 2
Flags: W
LayerCount: 2
Fore
SplineSet
445.5 721.5 m 128,-1,1
 503 677 503 677 503 596 c 0,2,3
 503 517 503 517 464 477 c 0,4,5
 448 460 448 460 432 447 c 0,6,7
 394 416 394 416 394 393.5 c 128,-1,8
 394 371 394 371 413.5 354 c 128,-1,9
 433 337 433 337 461 322 c 128,-1,10
 489 307 489 307 517 289 c 128,-1,11
 545 271 545 271 564.5 239 c 128,-1,12
 584 207 584 207 584 165 c 0,13,14
 584 91 584 91 525.5 39.5 c 128,-1,15
 467 -12 467 -12 383 -12 c 128,-1,16
 299 -12 299 -12 237 19 c 1,17,-1
 279 118 l 1,18,19
 336 97 336 97 372.5 97 c 128,-1,20
 409 97 409 97 425.5 113 c 128,-1,21
 442 129 442 129 442 151 c 128,-1,22
 442 173 442 173 429 188.5 c 128,-1,23
 416 204 416 204 403 211.5 c 128,-1,24
 390 219 390 219 347 241.5 c 128,-1,25
 304 264 304 264 278.5 294 c 128,-1,26
 253 324 253 324 253 375 c 0,27,28
 253 427 253 427 292 462 c 0,29,30
 308 477 308 477 324 492 c 1,31,32
 364 526 364 526 364 581 c 0,33,34
 364 614 364 614 344.5 633 c 128,-1,35
 325 652 325 652 290 652 c 0,36,37
 211 652 211 652 211 561 c 2,38,-1
 211 0 l 1,39,-1
 62 0 l 1,40,-1
 62 554 l 2,41,42
 62 610 62 610 82.5 652.5 c 128,-1,43
 103 695 103 695 137 719 c 0,44,45
 204 766 204 766 296 766 c 128,-1,0
 388 766 388 766 445.5 721.5 c 128,-1,1
EndSplineSet
EndChar

StartChar: agrave
Encoding: 224 224 160
Width: 486
GlyphClass: 2
Flags: W
LayerCount: 2
Fore
SplineSet
317 646 m 1,0,-1
 270 568 l 1,1,-1
 46 665 l 1,2,-1
 101 768 l 1,3,-1
 317 646 l 1,0,-1
134.5 528.5 m 128,-1,5
 195 545 195 545 253.5 545 c 128,-1,6
 312 545 312 545 351.5 531 c 128,-1,7
 391 517 391 517 408.5 489.5 c 128,-1,8
 426 462 426 462 431.5 435 c 128,-1,9
 437 408 437 408 437 367 c 2,10,-1
 437 179 l 2,11,12
 437 142 437 142 444.5 119 c 128,-1,13
 452 96 452 96 477 69 c 1,14,-1
 390 -12 l 1,15,16
 367 -1 367 -1 345.5 21 c 128,-1,17
 324 43 324 43 314 62 c 1,18,-1
 310 62 l 1,19,20
 252 -12 252 -12 163 -12 c 0,21,22
 19 -12 19 -12 19 137 c 0,23,24
 19 216 19 216 64.5 255 c 128,-1,25
 110 294 110 294 196 309 c 2,26,-1
 283 324 l 1,27,-1
 283 364 l 2,28,29
 283 397 283 397 269 412.5 c 128,-1,30
 255 428 255 428 215 428 c 128,-1,31
 175 428 175 428 83 399 c 1,32,-1
 40 493 l 1,33,4
 74 512 74 512 134.5 528.5 c 128,-1,5
164 153 m 0,34,35
 164 104 164 104 216 104 c 0,36,37
 256 104 256 104 284 132 c 1,38,-1
 284 226 l 1,39,40
 220 217 220 217 192 201.5 c 128,-1,41
 164 186 164 186 164 153 c 0,34,35
EndSplineSet
EndChar

StartChar: aacute
Encoding: 225 225 161
Width: 486
GlyphClass: 2
Flags: W
LayerCount: 2
Fore
SplineSet
406 665 m 1,0,-1
 182 568 l 1,1,-1
 135 646 l 1,2,-1
 351 768 l 1,3,-1
 406 665 l 1,0,-1
134.5 528.5 m 128,-1,5
 195 545 195 545 253.5 545 c 128,-1,6
 312 545 312 545 351.5 531 c 128,-1,7
 391 517 391 517 408.5 489.5 c 128,-1,8
 426 462 426 462 431.5 435 c 128,-1,9
 437 408 437 408 437 367 c 2,10,-1
 437 179 l 2,11,12
 437 142 437 142 444.5 119 c 128,-1,13
 452 96 452 96 477 69 c 1,14,-1
 390 -12 l 1,15,16
 367 -1 367 -1 345.5 21 c 128,-1,17
 324 43 324 43 314 62 c 1,18,-1
 310 62 l 1,19,20
 252 -12 252 -12 163 -12 c 0,21,22
 19 -12 19 -12 19 137 c 0,23,24
 19 216 19 216 64.5 255 c 128,-1,25
 110 294 110 294 196 309 c 2,26,-1
 283 324 l 1,27,-1
 283 364 l 2,28,29
 283 397 283 397 269 412.5 c 128,-1,30
 255 428 255 428 215 428 c 128,-1,31
 175 428 175 428 83 399 c 1,32,-1
 40 493 l 1,33,4
 74 512 74 512 134.5 528.5 c 128,-1,5
164 153 m 0,34,35
 164 104 164 104 216 104 c 0,36,37
 256 104 256 104 284 132 c 1,38,-1
 284 226 l 1,39,40
 220 217 220 217 192 201.5 c 128,-1,41
 164 186 164 186 164 153 c 0,34,35
EndSplineSet
EndChar

StartChar: acircumflex
Encoding: 226 226 162
Width: 486
GlyphClass: 2
Flags: W
LayerCount: 2
Fore
SplineSet
263 752 m 1,0,-1
 395 623 l 1,1,-1
 340 566 l 1,2,-1
 229 651 l 1,3,-1
 118 566 l 1,4,-1
 63 623 l 1,5,-1
 194 752 l 1,6,-1
 263 752 l 1,0,-1
134.5 528.5 m 128,-1,8
 195 545 195 545 253.5 545 c 128,-1,9
 312 545 312 545 351.5 531 c 128,-1,10
 391 517 391 517 408.5 489.5 c 128,-1,11
 426 462 426 462 431.5 435 c 128,-1,12
 437 408 437 408 437 367 c 2,13,-1
 437 179 l 2,14,15
 437 142 437 142 444.5 119 c 128,-1,16
 452 96 452 96 477 69 c 1,17,-1
 390 -12 l 1,18,19
 367 -1 367 -1 345.5 21 c 128,-1,20
 324 43 324 43 314 62 c 1,21,-1
 310 62 l 1,22,23
 252 -12 252 -12 163 -12 c 0,24,25
 19 -12 19 -12 19 137 c 0,26,27
 19 216 19 216 64.5 255 c 128,-1,28
 110 294 110 294 196 309 c 2,29,-1
 283 324 l 1,30,-1
 283 364 l 2,31,32
 283 397 283 397 269 412.5 c 128,-1,33
 255 428 255 428 215 428 c 128,-1,34
 175 428 175 428 83 399 c 1,35,-1
 40 493 l 1,36,7
 74 512 74 512 134.5 528.5 c 128,-1,8
164 153 m 0,37,38
 164 104 164 104 216 104 c 0,39,40
 256 104 256 104 284 132 c 1,41,-1
 284 226 l 1,42,43
 220 217 220 217 192 201.5 c 128,-1,44
 164 186 164 186 164 153 c 0,37,38
EndSplineSet
EndChar

StartChar: atilde
Encoding: 227 227 163
Width: 486
GlyphClass: 2
Flags: W
LayerCount: 2
Fore
SplineSet
280 586 m 0,0,1
 254 586 254 586 216.5 602 c 128,-1,2
 179 618 179 618 160 618 c 0,3,4
 122 618 122 618 82 588 c 1,5,-1
 50 661 l 1,6,7
 110 720 110 720 177 720 c 0,8,9
 204 720 204 720 239 704.5 c 128,-1,10
 274 689 274 689 299 689 c 128,-1,11
 324 689 324 689 376 720 c 1,12,-1
 406 646 l 1,13,14
 337 586 337 586 280 586 c 0,0,1
283 364 m 2,15,16
 283 397 283 397 269 412.5 c 128,-1,17
 255 428 255 428 215 428 c 128,-1,18
 175 428 175 428 83 399 c 1,19,-1
 40 493 l 1,20,21
 74 512 74 512 134.5 528.5 c 128,-1,22
 195 545 195 545 253.5 545 c 128,-1,23
 312 545 312 545 351.5 531 c 128,-1,24
 391 517 391 517 408.5 489.5 c 128,-1,25
 426 462 426 462 431.5 435 c 128,-1,26
 437 408 437 408 437 367 c 2,27,-1
 437 179 l 2,28,29
 437 142 437 142 444.5 119 c 128,-1,30
 452 96 452 96 477 69 c 1,31,-1
 390 -12 l 1,32,33
 367 -1 367 -1 345.5 21 c 128,-1,34
 324 43 324 43 314 62 c 1,35,-1
 310 62 l 1,36,37
 252 -12 252 -12 163 -12 c 0,38,39
 19 -12 19 -12 19 137 c 0,40,41
 19 216 19 216 64.5 255 c 128,-1,42
 110 294 110 294 196 309 c 2,43,-1
 283 324 l 1,44,-1
 283 364 l 2,15,16
164 153 m 0,45,46
 164 104 164 104 216 104 c 0,47,48
 256 104 256 104 284 132 c 1,49,-1
 284 226 l 1,50,51
 220 217 220 217 192 201.5 c 128,-1,52
 164 186 164 186 164 153 c 0,45,46
EndSplineSet
EndChar

StartChar: adieresis
Encoding: 228 228 164
Width: 486
GlyphClass: 2
Flags: W
LayerCount: 2
Fore
SplineSet
137 736 m 0,0,1
 212 736 212 736 212 653 c 0,2,3
 212 621 212 621 192 600 c 128,-1,4
 172 579 172 579 129 579 c 0,5,6
 53 579 53 579 53 661 c 0,7,8
 53 736 53 736 137 736 c 0,0,1
345 736 m 0,9,10
 420 736 420 736 420 653 c 0,11,12
 420 579 420 579 337 579 c 0,13,14
 262 579 262 579 262 661 c 0,15,16
 262 694 262 694 282 715 c 128,-1,17
 302 736 302 736 345 736 c 0,9,10
134.5 528.5 m 128,-1,19
 195 545 195 545 253.5 545 c 128,-1,20
 312 545 312 545 351.5 531 c 128,-1,21
 391 517 391 517 408.5 489.5 c 128,-1,22
 426 462 426 462 431.5 435 c 128,-1,23
 437 408 437 408 437 367 c 2,24,-1
 437 179 l 2,25,26
 437 142 437 142 444.5 119 c 128,-1,27
 452 96 452 96 477 69 c 1,28,-1
 390 -12 l 1,29,30
 367 -1 367 -1 345.5 21 c 128,-1,31
 324 43 324 43 314 62 c 1,32,-1
 310 62 l 1,33,34
 252 -12 252 -12 163 -12 c 0,35,36
 19 -12 19 -12 19 137 c 0,37,38
 19 216 19 216 64.5 255 c 128,-1,39
 110 294 110 294 196 309 c 2,40,-1
 283 324 l 1,41,-1
 283 364 l 2,42,43
 283 397 283 397 269 412.5 c 128,-1,44
 255 428 255 428 215 428 c 128,-1,45
 175 428 175 428 83 399 c 1,46,-1
 40 493 l 1,47,18
 74 512 74 512 134.5 528.5 c 128,-1,19
164 153 m 0,48,49
 164 104 164 104 216 104 c 0,50,51
 256 104 256 104 284 132 c 1,52,-1
 284 226 l 1,53,54
 220 217 220 217 192 201.5 c 128,-1,55
 164 186 164 186 164 153 c 0,48,49
EndSplineSet
EndChar

StartChar: aring
Encoding: 229 229 165
Width: 486
GlyphClass: 2
Flags: W
LayerCount: 2
Fore
SplineSet
134.5 528.5 m 128,-1,1
 195 545 195 545 253.5 545 c 128,-1,2
 312 545 312 545 351.5 531 c 128,-1,3
 391 517 391 517 408.5 489.5 c 128,-1,4
 426 462 426 462 431.5 435 c 128,-1,5
 437 408 437 408 437 367 c 2,6,-1
 437 179 l 2,7,8
 437 142 437 142 444.5 119 c 128,-1,9
 452 96 452 96 477 69 c 1,10,-1
 390 -12 l 1,11,12
 367 -1 367 -1 345.5 21 c 128,-1,13
 324 43 324 43 314 62 c 1,14,-1
 310 62 l 1,15,16
 252 -12 252 -12 163 -12 c 0,17,18
 19 -12 19 -12 19 137 c 0,19,20
 19 216 19 216 64.5 255 c 128,-1,21
 110 294 110 294 196 309 c 2,22,-1
 283 324 l 1,23,-1
 283 364 l 2,24,25
 283 397 283 397 269 412.5 c 128,-1,26
 255 428 255 428 215 428 c 128,-1,27
 175 428 175 428 83 399 c 1,28,-1
 40 493 l 1,29,0
 74 512 74 512 134.5 528.5 c 128,-1,1
164 153 m 0,30,31
 164 104 164 104 216 104 c 0,32,33
 256 104 256 104 284 132 c 1,34,-1
 284 226 l 1,35,36
 220 217 220 217 192 201.5 c 128,-1,37
 164 186 164 186 164 153 c 0,30,31
246 769 m 128,-1,39
 296 769 296 769 320.5 741 c 128,-1,40
 345 713 345 713 345 671.5 c 128,-1,41
 345 630 345 630 317.5 598 c 128,-1,42
 290 566 290 566 241 566 c 128,-1,43
 192 566 192 566 167 595 c 128,-1,44
 142 624 142 624 142 666 c 128,-1,45
 142 708 142 708 169 738.5 c 128,-1,38
 196 769 196 769 246 769 c 128,-1,39
246 630 m 0,46,47
 261 630 261 630 270 640.5 c 128,-1,48
 279 651 279 651 279 666 c 0,49,50
 279 705 279 705 241 705 c 0,51,52
 225 705 225 705 216.5 695 c 128,-1,53
 208 685 208 685 208 669 c 0,54,55
 208 630 208 630 246 630 c 0,46,47
EndSplineSet
EndChar

StartChar: ae
Encoding: 230 230 166
Width: 738
GlyphClass: 2
Flags: W
LayerCount: 2
Fore
SplineSet
247 545 m 0,0,1
 337 545 337 545 374 488 c 1,2,3
 429 545 429 545 517 545 c 0,4,5
 614 545 614 545 661 490 c 0,6,7
 700 445 700 445 708 340 c 0,8,9
 712 298 712 298 712 235 c 1,10,-1
 641 225 l 1,11,-1
 437 225 l 1,12,13
 437 166 437 166 457.5 136.5 c 128,-1,14
 478 107 478 107 535.5 107 c 128,-1,15
 593 107 593 107 673 136 c 1,16,-1
 704 42 l 1,17,18
 609 -12 609 -12 505 -12 c 0,19,20
 383 -12 383 -12 329 70 c 1,21,22
 260 -12 260 -12 157 -12 c 0,23,24
 15 -12 15 -12 15 137 c 0,25,26
 15 216 15 216 60.5 255 c 128,-1,27
 106 294 106 294 192 310 c 1,28,-1
 279 325 l 1,29,-1
 279 364 l 2,30,31
 279 397 279 397 265 412.5 c 128,-1,32
 251 428 251 428 211 428 c 128,-1,33
 171 428 171 428 79 399 c 1,34,-1
 36 493 l 1,35,36
 70 513 70 513 130 529 c 128,-1,37
 190 545 190 545 247 545 c 0,0,1
160 153 m 0,38,39
 160 102 160 102 212 102 c 0,40,41
 256 102 256 102 280 138 c 1,42,-1
 280 227 l 1,43,44
 215 217 215 217 187.5 202 c 128,-1,45
 160 187 160 187 160 153 c 0,38,39
548.5 404 m 128,-1,47
 539 426 539 426 503.5 426 c 128,-1,48
 468 426 468 426 453.5 400.5 c 128,-1,49
 439 375 439 375 437 324 c 1,50,-1
 558 324 l 1,51,46
 558 382 558 382 548.5 404 c 128,-1,47
EndSplineSet
EndChar

StartChar: ccedilla
Encoding: 231 231 167
Width: 482
GlyphClass: 2
Flags: W
LayerCount: 2
Fore
SplineSet
92 468.5 m 128,-1,1
 155 545 155 545 266.5 545 c 128,-1,2
 378 545 378 545 415.5 494 c 128,-1,3
 453 443 453 443 453 338 c 1,4,-1
 308 332 l 1,5,6
 308 390 308 390 298.5 408 c 128,-1,7
 289 426 289 426 255 426 c 128,-1,8
 221 426 221 426 206.5 389.5 c 128,-1,9
 192 353 192 353 192 267 c 128,-1,10
 192 181 192 181 216.5 144 c 128,-1,11
 241 107 241 107 295.5 107 c 128,-1,12
 350 107 350 107 429 137 c 1,13,-1
 461 46 l 1,14,15
 380 -9 380 -9 270 -11 c 1,16,-1
 267 -40 l 1,17,18
 270 -41 270 -41 280 -43.5 c 128,-1,19
 290 -46 290 -46 294.5 -48 c 128,-1,20
 299 -50 299 -50 307.5 -53.5 c 128,-1,21
 316 -57 316 -57 320.5 -61.5 c 128,-1,22
 325 -66 325 -66 330 -72 c 0,23,24
 340 -84 340 -84 340 -109 c 0,25,26
 340 -152 340 -152 313 -174 c 128,-1,27
 286 -196 286 -196 240.5 -196 c 128,-1,28
 195 -196 195 -196 149 -174 c 1,29,-1
 170 -121 l 1,30,31
 211 -132 211 -132 233.5 -132 c 128,-1,32
 256 -132 256 -132 256 -112.5 c 128,-1,33
 256 -93 256 -93 190 -81 c 0,34,35
 188 -81 188 -81 186 -80.5 c 128,-1,36
 184 -80 184 -80 183 -80 c 2,37,-1
 201 -8 l 1,38,39
 29 23 29 23 29 259 c 0,40,0
 29 392 29 392 92 468.5 c 128,-1,1
EndSplineSet
EndChar

StartChar: egrave
Encoding: 232 232 168
Width: 495
GlyphClass: 2
Flags: W
LayerCount: 2
Fore
SplineSet
271 545 m 0,0,1
 371 545 371 545 418 490 c 0,2,3
 457 445 457 445 466 340 c 0,4,5
 469 298 469 298 469 235 c 1,6,-1
 398 225 l 1,7,-1
 192 225 l 1,8,9
 192 166 192 166 214 136.5 c 128,-1,10
 236 107 236 107 292.5 107 c 128,-1,11
 349 107 349 107 429 136 c 1,12,-1
 460 42 l 1,13,14
 365 -12 365 -12 262 -12 c 0,15,16
 29 -12 29 -12 29 264 c 0,17,18
 29 394 29 394 89.5 469.5 c 128,-1,19
 150 545 150 545 271 545 c 0,0,1
260 426 m 128,-1,21
 225 426 225 426 210 400.5 c 128,-1,22
 195 375 195 375 193 324 c 1,23,-1
 315 324 l 1,24,25
 315 381 315 381 305 403.5 c 128,-1,20
 295 426 295 426 260 426 c 128,-1,21
70 665 m 1,26,-1
 126 768 l 1,27,-1
 342 646 l 1,28,-1
 295 568 l 1,29,-1
 70 665 l 1,26,-1
EndSplineSet
EndChar

StartChar: eacute
Encoding: 233 233 169
Width: 495
GlyphClass: 2
Flags: W
LayerCount: 2
Fore
SplineSet
271 545 m 0,0,1
 371 545 371 545 418 490 c 0,2,3
 457 445 457 445 466 340 c 0,4,5
 469 298 469 298 469 235 c 1,6,-1
 398 225 l 1,7,-1
 192 225 l 1,8,9
 192 166 192 166 214 136.5 c 128,-1,10
 236 107 236 107 292.5 107 c 128,-1,11
 349 107 349 107 429 136 c 1,12,-1
 460 42 l 1,13,14
 365 -12 365 -12 262 -12 c 0,15,16
 29 -12 29 -12 29 264 c 0,17,18
 29 394 29 394 89.5 469.5 c 128,-1,19
 150 545 150 545 271 545 c 0,0,1
260 426 m 128,-1,21
 225 426 225 426 210 400.5 c 128,-1,22
 195 375 195 375 193 324 c 1,23,-1
 315 324 l 1,24,25
 315 381 315 381 305 403.5 c 128,-1,20
 295 426 295 426 260 426 c 128,-1,21
369 768 m 1,26,-1
 425 665 l 1,27,-1
 200 568 l 1,28,-1
 153 646 l 1,29,-1
 369 768 l 1,26,-1
EndSplineSet
EndChar

StartChar: ecircumflex
Encoding: 234 234 170
Width: 495
GlyphClass: 2
Flags: W
LayerCount: 2
Fore
SplineSet
271 545 m 0,0,1
 371 545 371 545 418 490 c 0,2,3
 457 445 457 445 466 340 c 0,4,5
 469 298 469 298 469 235 c 1,6,-1
 398 225 l 1,7,-1
 192 225 l 1,8,9
 192 166 192 166 214 136.5 c 128,-1,10
 236 107 236 107 292.5 107 c 128,-1,11
 349 107 349 107 429 136 c 1,12,-1
 460 42 l 1,13,14
 365 -12 365 -12 262 -12 c 0,15,16
 29 -12 29 -12 29 264 c 0,17,18
 29 394 29 394 89.5 469.5 c 128,-1,19
 150 545 150 545 271 545 c 0,0,1
260 426 m 128,-1,21
 225 426 225 426 210 400.5 c 128,-1,22
 195 375 195 375 193 324 c 1,23,-1
 315 324 l 1,24,25
 315 381 315 381 305 403.5 c 128,-1,20
 295 426 295 426 260 426 c 128,-1,21
292 752 m 1,26,-1
 424 623 l 1,27,-1
 369 566 l 1,28,-1
 258 651 l 1,29,-1
 147 566 l 1,30,-1
 92 623 l 1,31,-1
 223 752 l 1,32,-1
 292 752 l 1,26,-1
EndSplineSet
EndChar

StartChar: edieresis
Encoding: 235 235 171
Width: 495
GlyphClass: 2
Flags: W
LayerCount: 2
Fore
SplineSet
271 545 m 0,0,1
 371 545 371 545 418 490 c 0,2,3
 457 445 457 445 466 340 c 0,4,5
 469 298 469 298 469 235 c 1,6,-1
 398 225 l 1,7,-1
 192 225 l 1,8,9
 192 166 192 166 214 136.5 c 128,-1,10
 236 107 236 107 292.5 107 c 128,-1,11
 349 107 349 107 429 136 c 1,12,-1
 460 42 l 1,13,14
 365 -12 365 -12 262 -12 c 0,15,16
 29 -12 29 -12 29 264 c 0,17,18
 29 394 29 394 89.5 469.5 c 128,-1,19
 150 545 150 545 271 545 c 0,0,1
260 426 m 128,-1,21
 225 426 225 426 210 400.5 c 128,-1,22
 195 375 195 375 193 324 c 1,23,-1
 315 324 l 1,24,25
 315 381 315 381 305 403.5 c 128,-1,20
 295 426 295 426 260 426 c 128,-1,21
155 736 m 0,26,27
 229 736 229 736 229 653 c 0,28,29
 229 621 229 621 209.5 600 c 128,-1,30
 190 579 190 579 146 579 c 0,31,32
 71 579 71 579 71 661 c 0,33,34
 71 736 71 736 155 736 c 0,26,27
363 736 m 0,35,36
 438 736 438 736 438 653 c 0,37,38
 438 621 438 621 418.5 600 c 128,-1,39
 399 579 399 579 355 579 c 0,40,41
 280 579 280 579 280 661 c 0,42,43
 280 694 280 694 299.5 715 c 128,-1,44
 319 736 319 736 363 736 c 0,35,36
EndSplineSet
EndChar

StartChar: igrave
Encoding: 236 236 172
Width: 251
GlyphClass: 2
Flags: W
LayerCount: 2
Fore
SplineSet
49 0 m 1,0,-1
 49 524 l 1,1,-1
 202 540 l 1,2,-1
 202 0 l 1,3,-1
 49 0 l 1,0,-1
200 561 m 1,4,-1
 -24 658 l 1,5,-1
 32 762 l 1,6,-1
 247 640 l 1,7,-1
 200 561 l 1,4,-1
EndSplineSet
EndChar

StartChar: iacute
Encoding: 237 237 173
Width: 251
GlyphClass: 2
Flags: W
LayerCount: 2
Fore
SplineSet
223 762 m 1,0,-1
 279 658 l 1,1,-1
 55 561 l 1,2,-1
 7 640 l 1,3,-1
 223 762 l 1,0,-1
202 0 m 1,4,-1
 49 0 l 1,5,-1
 49 524 l 1,6,-1
 202 540 l 1,7,-1
 202 0 l 1,4,-1
EndSplineSet
EndChar

StartChar: icircumflex
Encoding: 238 238 174
Width: 251
GlyphClass: 2
Flags: W
LayerCount: 2
Fore
SplineSet
160 752 m 1,0,-1
 273 623 l 1,1,-1
 218 566 l 1,2,-1
 126 649 l 1,3,-1
 32 566 l 1,4,-1
 -22 623 l 1,5,-1
 91 752 l 1,6,-1
 160 752 l 1,0,-1
202 0 m 1,7,-1
 49 0 l 1,8,-1
 49 524 l 1,9,-1
 202 540 l 1,10,-1
 202 0 l 1,7,-1
EndSplineSet
EndChar

StartChar: idieresis
Encoding: 239 239 175
Width: 251
GlyphClass: 2
Flags: W
LayerCount: 2
Fore
SplineSet
42 732 m 0,0,1
 113 732 113 732 113 653 c 0,2,3
 113 623 113 623 94 603 c 128,-1,4
 75 583 75 583 35 583 c 0,5,6
 -36 583 -36 583 -36 661 c 0,7,8
 -36 692 -36 692 -18 712 c 128,-1,9
 0 732 0 732 42 732 c 0,0,1
217 732 m 0,10,11
 288 732 288 732 288 653 c 0,12,13
 288 623 288 623 269.5 603 c 128,-1,14
 251 583 251 583 209 583 c 0,15,16
 139 583 139 583 139 661 c 0,17,18
 139 692 139 692 157.5 712 c 128,-1,19
 176 732 176 732 217 732 c 0,10,11
202 0 m 1,20,-1
 49 0 l 1,21,-1
 49 524 l 1,22,-1
 202 540 l 1,23,-1
 202 0 l 1,20,-1
EndSplineSet
EndChar

StartChar: eth
Encoding: 240 240 176
Width: 551
GlyphClass: 2
Flags: W
LayerCount: 2
Fore
SplineSet
478.5 470 m 128,-1,1
 520 369 520 369 520 253 c 128,-1,2
 520 137 520 137 458.5 62.5 c 128,-1,3
 397 -12 397 -12 268 -12 c 0,4,5
 162 -12 162 -12 101 47 c 128,-1,6
 40 106 40 106 40 197 c 128,-1,7
 40 288 40 288 96 349.5 c 128,-1,8
 152 411 152 411 254 411 c 0,9,10
 283 411 283 411 314 400 c 128,-1,11
 345 389 345 389 355 376 c 1,12,13
 331 483 331 483 250 549 c 1,14,-1
 165 479 l 1,15,-1
 99 549 l 1,16,-1
 157 615 l 1,17,18
 114 640 114 640 66 658 c 1,19,-1
 124 761 l 1,20,21
 222 724 222 724 259 704 c 1,22,-1
 331 763 l 1,23,-1
 410 704 l 1,24,-1
 352 641 l 1,25,0
 437 571 437 571 478.5 470 c 128,-1,1
286 295 m 0,26,27
 201 295 201 295 201 200 c 128,-1,28
 201 105 201 105 278 105 c 0,29,30
 321 105 321 105 340.5 137 c 128,-1,31
 360 169 360 169 360 204 c 128,-1,32
 360 239 360 239 356 269 c 1,33,34
 330 295 330 295 286 295 c 0,26,27
EndSplineSet
EndChar

StartChar: ntilde
Encoding: 241 241 177
Width: 527
GlyphClass: 2
Flags: W
LayerCount: 2
Fore
SplineSet
324 545 m 0,0,1
 399 545 399 545 440 501 c 128,-1,2
 481 457 481 457 481 378 c 2,3,-1
 481 0 l 1,4,-1
 327 0 l 1,5,-1
 327 361 l 2,6,7
 327 426 327 426 265 426 c 0,8,9
 229 426 229 426 202 397 c 1,10,-1
 202 0 l 1,11,-1
 49 0 l 1,12,-1
 49 378 l 1,13,-1
 38 525 l 1,14,-1
 157 540 l 1,15,-1
 171 480 l 1,16,-1
 176 480 l 1,17,18
 230 545 230 545 324 545 c 0,0,1
314 586 m 0,19,20
 288 586 288 586 251 602 c 128,-1,21
 214 618 214 618 194 618 c 0,22,23
 158 618 158 618 116 588 c 1,24,-1
 84 661 l 1,25,26
 144 720 144 720 211 720 c 0,27,28
 238 720 238 720 273 704.5 c 128,-1,29
 308 689 308 689 333 689 c 128,-1,30
 358 689 358 689 410 720 c 1,31,-1
 440 646 l 1,32,33
 372 586 372 586 314 586 c 0,19,20
EndSplineSet
EndChar

StartChar: ograve
Encoding: 242 242 178
Width: 528
GlyphClass: 2
Flags: W
LayerCount: 2
Fore
SplineSet
360 646 m 1,0,-1
 313 568 l 1,1,-1
 89 665 l 1,2,-1
 145 768 l 1,3,-1
 360 646 l 1,0,-1
278 545 m 0,4,5
 333 545 333 545 374 528 c 128,-1,6
 415 511 415 511 438.5 484.5 c 128,-1,7
 462 458 462 458 476 419 c 0,8,9
 499 355 499 355 499 262 c 0,10,11
 499 119 499 119 419 45 c 0,12,13
 358 -12 358 -12 251 -12 c 0,14,15
 196 -12 196 -12 155 5 c 128,-1,16
 114 22 114 22 90.5 48.5 c 128,-1,17
 67 75 67 75 52 114 c 0,18,19
 29 176 29 176 29 271 c 0,20,21
 29 359 29 359 64 426 c 0,22,23
 125 545 125 545 278 545 c 0,4,5
322 390.5 m 128,-1,25
 308 426 308 426 262.5 426 c 128,-1,26
 217 426 217 426 204.5 392 c 128,-1,27
 192 358 192 358 192 268 c 128,-1,28
 192 178 192 178 206 142.5 c 128,-1,29
 220 107 220 107 266 107 c 128,-1,30
 312 107 312 107 324 140.5 c 128,-1,31
 336 174 336 174 336 264.5 c 128,-1,24
 336 355 336 355 322 390.5 c 128,-1,25
EndSplineSet
EndChar

StartChar: oacute
Encoding: 243 243 179
Width: 528
GlyphClass: 2
Flags: W
LayerCount: 2
Fore
SplineSet
386 768 m 1,0,-1
 442 665 l 1,1,-1
 218 568 l 1,2,-1
 171 646 l 1,3,-1
 386 768 l 1,0,-1
250 -12 m 0,4,5
 196 -12 196 -12 155 5 c 128,-1,6
 114 22 114 22 90.5 48.5 c 128,-1,7
 67 75 67 75 52 114 c 0,8,9
 29 176 29 176 29 271 c 0,10,11
 29 359 29 359 64 426 c 0,12,13
 125 545 125 545 278 545 c 0,14,15
 333 545 333 545 374 528 c 128,-1,16
 415 511 415 511 438.5 484.5 c 128,-1,17
 462 458 462 458 476 419 c 0,18,19
 499 355 499 355 499 262 c 0,20,21
 499 119 499 119 419 45 c 0,22,23
 358 -12 358 -12 250 -12 c 0,4,5
266 107 m 128,-1,25
 312 107 312 107 324 140.5 c 128,-1,26
 336 174 336 174 336 264.5 c 128,-1,27
 336 355 336 355 322 390.5 c 128,-1,28
 308 426 308 426 262.5 426 c 128,-1,29
 217 426 217 426 204.5 392 c 128,-1,30
 192 358 192 358 192 268 c 128,-1,31
 192 178 192 178 206 142.5 c 128,-1,24
 220 107 220 107 266 107 c 128,-1,25
EndSplineSet
EndChar

StartChar: ocircumflex
Encoding: 244 244 180
Width: 528
GlyphClass: 2
Flags: W
LayerCount: 2
Fore
SplineSet
300 752 m 1,0,-1
 431 623 l 1,1,-1
 376 566 l 1,2,-1
 265 651 l 1,3,-1
 154 566 l 1,4,-1
 99 623 l 1,5,-1
 231 752 l 1,6,-1
 300 752 l 1,0,-1
278 545 m 0,7,8
 333 545 333 545 374 528 c 128,-1,9
 415 511 415 511 438.5 484.5 c 128,-1,10
 462 458 462 458 476 419 c 0,11,12
 499 355 499 355 499 262 c 0,13,14
 499 119 499 119 419 45 c 0,15,16
 358 -12 358 -12 251 -12 c 0,17,18
 196 -12 196 -12 155 5 c 128,-1,19
 114 22 114 22 90.5 48.5 c 128,-1,20
 67 75 67 75 52 114 c 0,21,22
 29 176 29 176 29 271 c 0,23,24
 29 359 29 359 64 426 c 0,25,26
 125 545 125 545 278 545 c 0,7,8
322 390.5 m 128,-1,28
 308 426 308 426 262.5 426 c 128,-1,29
 217 426 217 426 204.5 392 c 128,-1,30
 192 358 192 358 192 268 c 128,-1,31
 192 178 192 178 206 142.5 c 128,-1,32
 220 107 220 107 266 107 c 128,-1,33
 312 107 312 107 324 140.5 c 128,-1,34
 336 174 336 174 336 264.5 c 128,-1,27
 336 355 336 355 322 390.5 c 128,-1,28
EndSplineSet
EndChar

StartChar: otilde
Encoding: 245 245 181
Width: 528
GlyphClass: 2
Flags: W
LayerCount: 2
Fore
SplineSet
316 586 m 0,0,1
 290 586 290 586 252.5 602 c 128,-1,2
 215 618 215 618 196 618 c 0,3,4
 158 618 158 618 118 588 c 1,5,-1
 86 661 l 1,6,7
 146 720 146 720 213 720 c 0,8,9
 240 720 240 720 275 704.5 c 128,-1,10
 310 689 310 689 335 689 c 128,-1,11
 360 689 360 689 412 720 c 1,12,-1
 442 646 l 1,13,14
 373 586 373 586 316 586 c 0,0,1
278 545 m 0,15,16
 333 545 333 545 374 528 c 128,-1,17
 415 511 415 511 438.5 484.5 c 128,-1,18
 462 458 462 458 476 419 c 0,19,20
 499 355 499 355 499 262 c 0,21,22
 499 119 499 119 419 45 c 0,23,24
 358 -12 358 -12 251 -12 c 0,25,26
 196 -12 196 -12 155 5 c 128,-1,27
 114 22 114 22 90.5 48.5 c 128,-1,28
 67 75 67 75 52 114 c 0,29,30
 29 176 29 176 29 271 c 0,31,32
 29 359 29 359 64 426 c 0,33,34
 125 545 125 545 278 545 c 0,15,16
322 390.5 m 128,-1,36
 308 426 308 426 262.5 426 c 128,-1,37
 217 426 217 426 204.5 392 c 128,-1,38
 192 358 192 358 192 268 c 128,-1,39
 192 178 192 178 206 142.5 c 128,-1,40
 220 107 220 107 266 107 c 128,-1,41
 312 107 312 107 324 140.5 c 128,-1,42
 336 174 336 174 336 264.5 c 128,-1,35
 336 355 336 355 322 390.5 c 128,-1,36
EndSplineSet
EndChar

StartChar: odieresis
Encoding: 246 246 182
Width: 528
GlyphClass: 2
Flags: W
LayerCount: 2
Fore
SplineSet
165 736 m 0,0,1
 239 736 239 736 239 653 c 0,2,3
 239 621 239 621 219.5 600 c 128,-1,4
 200 579 200 579 156 579 c 0,5,6
 81 579 81 579 81 661 c 0,7,8
 81 736 81 736 165 736 c 0,0,1
373 736 m 0,9,10
 448 736 448 736 448 653 c 0,11,12
 448 621 448 621 428.5 600 c 128,-1,13
 409 579 409 579 365 579 c 0,14,15
 290 579 290 579 290 661 c 0,16,17
 290 694 290 694 309.5 715 c 128,-1,18
 329 736 329 736 373 736 c 0,9,10
278 545 m 0,19,20
 333 545 333 545 374 528 c 128,-1,21
 415 511 415 511 438.5 484.5 c 128,-1,22
 462 458 462 458 476 419 c 0,23,24
 499 355 499 355 499 262 c 0,25,26
 499 119 499 119 419 45 c 0,27,28
 358 -12 358 -12 251 -12 c 0,29,30
 196 -12 196 -12 155 5 c 128,-1,31
 114 22 114 22 90.5 48.5 c 128,-1,32
 67 75 67 75 52 114 c 0,33,34
 29 176 29 176 29 271 c 0,35,36
 29 359 29 359 64 426 c 0,37,38
 125 545 125 545 278 545 c 0,19,20
322 390.5 m 128,-1,40
 308 426 308 426 262.5 426 c 128,-1,41
 217 426 217 426 204.5 392 c 128,-1,42
 192 358 192 358 192 268 c 128,-1,43
 192 178 192 178 206 142.5 c 128,-1,44
 220 107 220 107 266 107 c 128,-1,45
 312 107 312 107 324 140.5 c 128,-1,46
 336 174 336 174 336 264.5 c 128,-1,39
 336 355 336 355 322 390.5 c 128,-1,40
EndSplineSet
EndChar

StartChar: divide
Encoding: 247 247 183
Width: 572
GlyphClass: 2
Flags: W
LayerCount: 2
Fore
SplineSet
202 100 m 0,0,1
 202 134 202 134 224.5 158.5 c 128,-1,2
 247 183 247 183 293 183 c 0,3,4
 376 183 376 183 376 92 c 0,5,6
 376 58 376 58 353.5 33.5 c 128,-1,7
 331 9 331 9 284 9 c 0,8,9
 202 9 202 9 202 100 c 0,0,1
202 490 m 0,10,11
 202 524 202 524 224.5 548.5 c 128,-1,12
 247 573 247 573 293 573 c 0,13,14
 376 573 376 573 376 482 c 0,15,16
 376 448 376 448 353.5 423.5 c 128,-1,17
 331 399 331 399 284 399 c 0,18,19
 202 399 202 399 202 490 c 0,10,11
548 350 m 1,20,-1
 530 233 l 1,21,-1
 27 233 l 1,22,-1
 44 350 l 1,23,-1
 548 350 l 1,20,-1
EndSplineSet
EndChar

StartChar: oslash
Encoding: 248 248 184
Width: 534
GlyphClass: 2
Flags: W
LayerCount: 2
Fore
SplineSet
32 271 m 0,0,1
 32 359 32 359 66 426 c 0,2,3
 128 545 128 545 282 545 c 0,4,5
 314 545 314 545 341 539 c 1,6,-1
 370 617 l 1,7,-1
 427 596 l 1,8,-1
 398 519 l 1,9,10
 502 460 502 460 502 262 c 0,11,12
 502 119 502 119 422 45 c 0,13,14
 361 -12 361 -12 254 -12 c 0,15,16
 231 -12 231 -12 195 -6 c 1,17,-1
 165 -87 l 1,18,-1
 110 -67 l 1,19,-1
 140 13 l 1,20,21
 32 69 32 69 32 271 c 0,0,1
202.5 392.5 m 128,-1,23
 189 358 189 358 189 278 c 128,-1,24
 189 198 189 198 203 174 c 1,25,-1
 295 422 l 1,26,27
 285 427 285 427 266 427 c 0,28,22
 216 427 216 427 202.5 392.5 c 128,-1,23
269 106 m 0,29,30
 319 106 319 106 332 140 c 128,-1,31
 345 174 345 174 345 253 c 128,-1,32
 345 332 345 332 333 355 c 1,33,-1
 241 110 l 1,34,35
 252 106 252 106 269 106 c 0,29,30
EndSplineSet
EndChar

StartChar: ugrave
Encoding: 249 249 185
Width: 527
GlyphClass: 2
Flags: W
LayerCount: 2
Fore
SplineSet
200 -12 m 0,0,1
 128 -12 128 -12 87 32 c 128,-1,2
 46 76 46 76 46 153 c 2,3,-1
 46 526 l 1,4,-1
 199 540 l 1,5,-1
 199 172 l 2,6,7
 199 107 199 107 259 107 c 0,8,9
 297 107 297 107 324 136 c 1,10,-1
 324 526 l 1,11,-1
 478 540 l 1,12,-1
 478 154 l 1,13,-1
 489 9 l 1,14,-1
 369 -6 l 1,15,-1
 356 55 l 1,16,-1
 352 55 l 1,17,18
 293 -12 293 -12 200 -12 c 0,0,1
353 640 m 1,19,-1
 306 561 l 1,20,-1
 82 658 l 1,21,-1
 137 762 l 1,22,-1
 353 640 l 1,19,-1
EndSplineSet
EndChar

StartChar: uacute
Encoding: 250 250 186
Width: 527
GlyphClass: 2
Flags: W
LayerCount: 2
Fore
SplineSet
200 -12 m 0,0,1
 128 -12 128 -12 87 32 c 128,-1,2
 46 76 46 76 46 153 c 2,3,-1
 46 526 l 1,4,-1
 199 540 l 1,5,-1
 199 172 l 2,6,7
 199 107 199 107 259 107 c 0,8,9
 297 107 297 107 324 136 c 1,10,-1
 324 526 l 1,11,-1
 478 540 l 1,12,-1
 478 154 l 1,13,-1
 489 9 l 1,14,-1
 369 -6 l 1,15,-1
 356 55 l 1,16,-1
 352 55 l 1,17,18
 293 -12 293 -12 200 -12 c 0,0,1
386 768 m 1,19,-1
 441 665 l 1,20,-1
 217 568 l 1,21,-1
 170 646 l 1,22,-1
 386 768 l 1,19,-1
EndSplineSet
EndChar

StartChar: ucircumflex
Encoding: 251 251 187
Width: 527
GlyphClass: 2
Flags: W
LayerCount: 2
Fore
SplineSet
200 -12 m 0,0,1
 128 -12 128 -12 87 32 c 128,-1,2
 46 76 46 76 46 153 c 2,3,-1
 46 526 l 1,4,-1
 199 540 l 1,5,-1
 199 172 l 2,6,7
 199 107 199 107 259 107 c 0,8,9
 297 107 297 107 324 136 c 1,10,-1
 324 526 l 1,11,-1
 478 540 l 1,12,-1
 478 154 l 1,13,-1
 489 9 l 1,14,-1
 369 -6 l 1,15,-1
 356 55 l 1,16,-1
 352 55 l 1,17,18
 293 -12 293 -12 200 -12 c 0,0,1
297 752 m 1,19,-1
 429 623 l 1,20,-1
 374 566 l 1,21,-1
 263 651 l 1,22,-1
 152 566 l 1,23,-1
 97 623 l 1,24,-1
 228 752 l 1,25,-1
 297 752 l 1,19,-1
EndSplineSet
EndChar

StartChar: udieresis
Encoding: 252 252 188
Width: 527
GlyphClass: 2
Flags: W
LayerCount: 2
Fore
SplineSet
200 -12 m 0,0,1
 128 -12 128 -12 87 32 c 128,-1,2
 46 76 46 76 46 153 c 2,3,-1
 46 526 l 1,4,-1
 199 540 l 1,5,-1
 199 172 l 2,6,7
 199 107 199 107 259 107 c 0,8,9
 297 107 297 107 324 136 c 1,10,-1
 324 526 l 1,11,-1
 478 540 l 1,12,-1
 478 154 l 1,13,-1
 489 9 l 1,14,-1
 369 -6 l 1,15,-1
 356 55 l 1,16,-1
 352 55 l 1,17,18
 293 -12 293 -12 200 -12 c 0,0,1
162 736 m 0,19,20
 237 736 237 736 237 653 c 0,21,22
 237 621 237 621 217 600 c 128,-1,23
 197 579 197 579 154 579 c 0,24,25
 79 579 79 579 79 661 c 0,26,27
 79 736 79 736 162 736 c 0,19,20
370 736 m 0,28,29
 446 736 446 736 446 653 c 0,30,31
 446 621 446 621 426 600 c 128,-1,32
 406 579 406 579 362 579 c 0,33,34
 287 579 287 579 287 661 c 0,35,36
 287 694 287 694 307 715 c 128,-1,37
 327 736 327 736 370 736 c 0,28,29
EndSplineSet
EndChar

StartChar: yacute
Encoding: 253 253 189
Width: 453
GlyphClass: 2
Flags: W
LayerCount: 2
Fore
SplineSet
311 540 m 1,0,-1
 448 525 l 1,1,-1
 326 92 l 2,2,3
 308 26 308 26 287.5 -17.5 c 128,-1,4
 267 -61 267 -61 235 -103.5 c 128,-1,5
 203 -146 203 -146 154.5 -171.5 c 128,-1,6
 106 -197 106 -197 57 -200 c 1,7,-1
 3 -104 l 1,8,9
 124 -82 124 -82 145 8 c 1,10,11
 119 94 119 94 67.5 277 c 128,-1,12
 16 460 16 460 -3 525 c 1,13,-1
 148 540 l 1,14,-1
 222 143 l 1,15,-1
 229 143 l 1,16,-1
 311 540 l 1,0,-1
351 768 m 1,17,-1
 406 665 l 1,18,-1
 182 568 l 1,19,-1
 135 646 l 1,20,-1
 351 768 l 1,17,-1
EndSplineSet
EndChar

StartChar: thorn
Encoding: 254 254 190
Width: 540
GlyphClass: 2
Flags: W
LayerCount: 2
Fore
SplineSet
202 123 m 1,0,1
 229 107 229 107 251.5 107 c 128,-1,2
 274 107 274 107 285.5 112 c 128,-1,3
 297 117 297 117 310 132 c 0,4,5
 339 164 339 164 339 263.5 c 128,-1,6
 339 363 339 363 320.5 395 c 128,-1,7
 302 427 302 427 263.5 427 c 128,-1,8
 225 427 225 427 202 400 c 1,9,-1
 202 123 l 1,0,1
304 545 m 0,10,11
 502 545 502 545 502 276 c 0,12,13
 502 195 502 195 481.5 135.5 c 128,-1,14
 461 76 461 76 427 46 c 0,15,16
 363 -12 363 -12 290.5 -12 c 128,-1,17
 218 -12 218 -12 184 12 c 1,18,-1
 181 8 l 1,19,-1
 202 -20 l 1,20,-1
 202 -207 l 1,21,-1
 49 -223 l 1,22,-1
 49 752 l 1,23,-1
 202 769 l 1,24,-1
 202 550 l 1,25,-1
 188 513 l 1,26,-1
 192 510 l 1,27,28
 232 545 232 545 304 545 c 0,10,11
EndSplineSet
EndChar

StartChar: ydieresis
Encoding: 255 255 191
Width: 453
GlyphClass: 2
Flags: W
LayerCount: 2
Fore
SplineSet
311 540 m 1,0,-1
 448 525 l 1,1,-1
 326 92 l 2,2,3
 308 26 308 26 287.5 -17.5 c 128,-1,4
 267 -61 267 -61 235 -103.5 c 128,-1,5
 203 -146 203 -146 154.5 -171.5 c 128,-1,6
 106 -197 106 -197 57 -200 c 1,7,-1
 3 -104 l 1,8,9
 124 -82 124 -82 145 8 c 1,10,11
 119 94 119 94 67.5 277 c 128,-1,12
 16 460 16 460 -3 525 c 1,13,-1
 148 540 l 1,14,-1
 222 143 l 1,15,-1
 229 143 l 1,16,-1
 311 540 l 1,0,-1
130 738 m 0,17,18
 205 738 205 738 205 655 c 0,19,20
 205 623 205 623 185 601.5 c 128,-1,21
 165 580 165 580 122 580 c 0,22,23
 47 580 47 580 47 663 c 0,24,25
 47 738 47 738 130 738 c 0,17,18
338 738 m 0,26,27
 413 738 413 738 413 655 c 0,28,29
 413 622 413 622 393.5 601 c 128,-1,30
 374 580 374 580 330 580 c 0,31,32
 255 580 255 580 255 663 c 0,33,34
 255 696 255 696 275 717 c 128,-1,35
 295 738 295 738 338 738 c 0,26,27
EndSplineSet
EndChar

StartChar: Amacron
Encoding: 256 256 192
Width: 568
GlyphClass: 2
Flags: W
LayerCount: 2
Fore
SplineSet
373 713 m 1,0,-1
 564 0 l 1,1,-1
 399 0 l 1,2,-1
 359 173 l 1,3,-1
 206 173 l 1,4,-1
 165 0 l 1,5,-1
 3 0 l 1,6,-1
 190 696 l 1,7,-1
 373 713 l 1,0,-1
280 533 m 1,8,-1
 228 292 l 1,9,-1
 338 292 l 1,10,-1
 292 533 l 1,11,-1
 280 533 l 1,8,-1
422 880 m 1,12,-1
 422 779 l 1,13,-1
 146 779 l 1,14,-1
 146 880 l 1,15,-1
 422 880 l 1,12,-1
EndSplineSet
EndChar

StartChar: amacron
Encoding: 257 257 193
Width: 482
GlyphClass: 2
Flags: W
LayerCount: 2
Fore
SplineSet
102 708 m 1,0,-1
 378 708 l 1,1,-1
 378 608 l 1,2,-1
 102 608 l 1,3,-1
 102 708 l 1,0,-1
279 364 m 2,4,5
 279 397 279 397 265 412.5 c 128,-1,6
 251 428 251 428 211 428 c 128,-1,7
 171 428 171 428 79 399 c 1,8,-1
 36 493 l 1,9,10
 70 512 70 512 130.5 528.5 c 128,-1,11
 191 545 191 545 249.5 545 c 128,-1,12
 308 545 308 545 347.5 531 c 128,-1,13
 387 517 387 517 404.5 489.5 c 128,-1,14
 422 462 422 462 427.5 435 c 128,-1,15
 433 408 433 408 433 367 c 2,16,-1
 433 179 l 2,17,18
 433 142 433 142 440.5 119 c 128,-1,19
 448 96 448 96 473 69 c 1,20,-1
 386 -12 l 1,21,22
 363 -1 363 -1 341.5 21 c 128,-1,23
 320 43 320 43 310 62 c 1,24,-1
 306 62 l 1,25,26
 248 -12 248 -12 159 -12 c 0,27,28
 15 -12 15 -12 15 137 c 0,29,30
 15 216 15 216 60.5 255 c 128,-1,31
 106 294 106 294 192 309 c 2,32,-1
 279 324 l 1,33,-1
 279 364 l 2,4,5
160 153 m 0,34,35
 160 104 160 104 212 104 c 0,36,37
 250 104 250 104 280 130 c 1,38,-1
 280 226 l 1,39,40
 216 217 216 217 188 201.5 c 128,-1,41
 160 186 160 186 160 153 c 0,34,35
EndSplineSet
EndChar

StartChar: Abreve
Encoding: 258 258 194
Width: 568
GlyphClass: 2
Flags: W
LayerCount: 2
Fore
SplineSet
373 713 m 1,0,-1
 564 0 l 1,1,-1
 399 0 l 1,2,-1
 359 173 l 1,3,-1
 206 173 l 1,4,-1
 165 0 l 1,5,-1
 3 0 l 1,6,-1
 190 696 l 1,7,-1
 373 713 l 1,0,-1
280 533 m 1,8,-1
 228 292 l 1,9,-1
 338 292 l 1,10,-1
 292 533 l 1,11,-1
 280 533 l 1,8,-1
444 852 m 1,12,13
 383 768 383 768 285 768 c 128,-1,14
 187 768 187 768 124 852 c 1,15,-1
 175 905 l 1,16,17
 231 861 231 861 282 861 c 128,-1,18
 333 861 333 861 394 905 c 1,19,-1
 444 852 l 1,12,13
EndSplineSet
EndChar

StartChar: abreve
Encoding: 259 259 195
Width: 482
GlyphClass: 2
Flags: W
LayerCount: 2
Fore
SplineSet
279 364 m 2,0,1
 279 397 279 397 265 412.5 c 128,-1,2
 251 428 251 428 211 428 c 128,-1,3
 171 428 171 428 79 399 c 1,4,-1
 36 493 l 1,5,6
 70 512 70 512 130.5 528.5 c 128,-1,7
 191 545 191 545 249.5 545 c 128,-1,8
 308 545 308 545 347.5 531 c 128,-1,9
 387 517 387 517 404.5 489.5 c 128,-1,10
 422 462 422 462 427.5 435 c 128,-1,11
 433 408 433 408 433 367 c 2,12,-1
 433 179 l 2,13,14
 433 142 433 142 440.5 119 c 128,-1,15
 448 96 448 96 473 69 c 1,16,-1
 386 -12 l 1,17,18
 365 -1 365 -1 344 21 c 128,-1,19
 323 43 323 43 313 62 c 1,20,-1
 310 62 l 1,21,22
 250 -12 250 -12 159 -12 c 0,23,24
 15 -12 15 -12 15 137 c 0,25,26
 15 216 15 216 60.5 255 c 128,-1,27
 106 294 106 294 192 309 c 2,28,-1
 279 324 l 1,29,-1
 279 364 l 2,0,1
160 150 m 0,30,31
 160 97 160 97 212 97 c 0,32,33
 251 97 251 97 280 124 c 1,34,-1
 280 226 l 1,35,36
 216 216 216 216 188 200.5 c 128,-1,37
 160 185 160 185 160 150 c 0,30,31
400 672 m 1,38,39
 339 588 339 588 242 588 c 128,-1,40
 145 588 145 588 80 672 c 1,41,-1
 131 725 l 1,42,43
 187 681 187 681 238 681 c 128,-1,44
 289 681 289 681 350 725 c 1,45,-1
 400 672 l 1,38,39
EndSplineSet
EndChar

StartChar: Aogonek
Encoding: 260 260 196
Width: 568
GlyphClass: 2
Flags: W
LayerCount: 2
Fore
SplineSet
563 -175 m 1,0,1
 518 -196 518 -196 483.5 -196 c 128,-1,2
 449 -196 449 -196 422.5 -172 c 128,-1,3
 396 -148 396 -148 396 -108 c 0,4,5
 396 -55 396 -55 457 -10 c 0,6,7
 470 -1 470 -1 471 0 c 1,8,-1
 399 0 l 1,9,-1
 359 173 l 1,10,-1
 206 173 l 1,11,-1
 165 0 l 1,12,-1
 3 0 l 1,13,-1
 190 696 l 1,14,-1
 373 713 l 1,15,-1
 564 0 l 1,16,17
 483 -63 483 -63 483 -96 c 0,18,19
 483 -109 483 -109 491 -116.5 c 128,-1,20
 499 -124 499 -124 512.5 -124 c 128,-1,21
 526 -124 526 -124 548 -118 c 1,22,-1
 563 -175 l 1,0,1
338 292 m 1,23,-1
 292 533 l 1,24,-1
 280 533 l 1,25,-1
 228 292 l 1,26,-1
 338 292 l 1,23,-1
EndSplineSet
EndChar

StartChar: aogonek
Encoding: 261 261 197
Width: 482
GlyphClass: 2
Flags: W
LayerCount: 2
Fore
SplineSet
279 364 m 2,0,1
 279 397 279 397 265 412.5 c 128,-1,2
 251 428 251 428 211 428 c 128,-1,3
 171 428 171 428 79 399 c 1,4,-1
 36 493 l 1,5,6
 70 512 70 512 130.5 528.5 c 128,-1,7
 191 545 191 545 249.5 545 c 128,-1,8
 308 545 308 545 347.5 531 c 128,-1,9
 387 517 387 517 404.5 489.5 c 128,-1,10
 422 462 422 462 427.5 435 c 128,-1,11
 433 408 433 408 433 367 c 2,12,-1
 433 179 l 2,13,14
 433 142 433 142 440.5 119 c 128,-1,15
 448 96 448 96 473 69 c 1,16,17
 447 44 447 44 414 13.5 c 128,-1,18
 381 -17 381 -17 372 -26 c 0,19,20
 323 -77 323 -77 323 -93 c 128,-1,21
 323 -109 323 -109 331 -116.5 c 128,-1,22
 339 -124 339 -124 352.5 -124 c 128,-1,23
 366 -124 366 -124 388 -118 c 1,24,-1
 403 -175 l 1,25,26
 358 -196 358 -196 323.5 -196 c 128,-1,27
 289 -196 289 -196 262.5 -172.5 c 128,-1,28
 236 -149 236 -149 236 -107.5 c 128,-1,29
 236 -66 236 -66 275 -31 c 1,30,31
 292 -14 292 -14 340 24 c 1,32,33
 321 45 321 45 313 62 c 1,34,-1
 310 62 l 1,35,36
 250 -12 250 -12 159 -12 c 0,37,38
 15 -12 15 -12 15 137 c 0,39,40
 15 216 15 216 60.5 255 c 128,-1,41
 106 294 106 294 192 309 c 2,42,-1
 279 324 l 1,43,-1
 279 364 l 2,0,1
160 153 m 0,44,45
 160 104 160 104 212 104 c 0,46,47
 250 104 250 104 280 130 c 1,48,-1
 280 226 l 1,49,50
 216 217 216 217 188 201.5 c 128,-1,51
 160 186 160 186 160 153 c 0,44,45
EndSplineSet
EndChar

StartChar: Cacute
Encoding: 262 262 198
Width: 556
GlyphClass: 2
Flags: W
LayerCount: 2
Fore
SplineSet
150.5 667.5 m 128,-1,1
 216 720 216 720 324 720 c 128,-1,2
 432 720 432 720 481 664.5 c 128,-1,3
 530 609 530 609 530 481 c 1,4,-1
 367 473 l 1,5,6
 367 546 367 546 352 569 c 128,-1,7
 337 592 337 592 301 592 c 0,8,9
 245 592 245 592 225.5 532 c 128,-1,10
 206 472 206 472 206 350 c 128,-1,11
 206 228 206 228 242 172.5 c 128,-1,12
 278 117 278 117 361 117 c 0,13,14
 412 117 412 117 505 147 c 1,15,-1
 538 43 l 1,16,17
 430 -12 430 -12 315 -12 c 0,18,19
 30 -12 30 -12 30 352 c 0,20,21
 30 455 30 455 57.5 535 c 128,-1,0
 85 615 85 615 150.5 667.5 c 128,-1,1
412 932 m 1,22,-1
 463 826 l 1,23,-1
 231 740 l 1,24,-1
 187 821 l 1,25,-1
 412 932 l 1,22,-1
EndSplineSet
EndChar

StartChar: cacute
Encoding: 263 263 199
Width: 482
GlyphClass: 2
Flags: W
LayerCount: 2
Fore
SplineSet
92 468.5 m 128,-1,1
 155 545 155 545 266.5 545 c 128,-1,2
 378 545 378 545 415.5 494 c 128,-1,3
 453 443 453 443 453 338 c 1,4,-1
 308 332 l 1,5,6
 308 390 308 390 298.5 408 c 128,-1,7
 289 426 289 426 255 426 c 128,-1,8
 221 426 221 426 206.5 389.5 c 128,-1,9
 192 353 192 353 192 267 c 128,-1,10
 192 181 192 181 216.5 144 c 128,-1,11
 241 107 241 107 295.5 107 c 128,-1,12
 350 107 350 107 429 137 c 1,13,-1
 461 46 l 1,14,15
 377 -12 377 -12 259 -12 c 0,16,17
 29 -12 29 -12 29 259 c 0,18,0
 29 392 29 392 92 468.5 c 128,-1,1
364 762 m 1,19,-1
 420 659 l 1,20,-1
 196 562 l 1,21,-1
 148 641 l 1,22,-1
 364 762 l 1,19,-1
EndSplineSet
EndChar

StartChar: Ccircumflex
Encoding: 264 264 200
Width: 556
GlyphClass: 2
Flags: W
LayerCount: 2
Fore
SplineSet
150.5 667.5 m 128,-1,1
 216 720 216 720 324 720 c 128,-1,2
 432 720 432 720 481 664.5 c 128,-1,3
 530 609 530 609 530 481 c 1,4,-1
 367 473 l 1,5,6
 367 546 367 546 352 569 c 128,-1,7
 337 592 337 592 301 592 c 0,8,9
 245 592 245 592 225.5 532 c 128,-1,10
 206 472 206 472 206 350 c 128,-1,11
 206 228 206 228 242 172.5 c 128,-1,12
 278 117 278 117 361 117 c 0,13,14
 412 117 412 117 505 147 c 1,15,-1
 538 43 l 1,16,17
 430 -12 430 -12 315 -12 c 0,18,19
 30 -12 30 -12 30 352 c 0,20,21
 30 455 30 455 57.5 535 c 128,-1,0
 85 615 85 615 150.5 667.5 c 128,-1,1
331 924 m 1,22,-1
 463 800 l 1,23,-1
 408 743 l 1,24,-1
 297 824 l 1,25,-1
 186 743 l 1,26,-1
 131 800 l 1,27,-1
 263 924 l 1,28,-1
 331 924 l 1,22,-1
EndSplineSet
EndChar

StartChar: Cdotaccent
Encoding: 266 266 201
Width: 556
GlyphClass: 2
Flags: W
LayerCount: 2
Fore
SplineSet
150.5 667.5 m 128,-1,1
 216 720 216 720 324 720 c 128,-1,2
 432 720 432 720 481 664.5 c 128,-1,3
 530 609 530 609 530 481 c 1,4,-1
 367 473 l 1,5,6
 367 546 367 546 352 569 c 128,-1,7
 337 592 337 592 301 592 c 0,8,9
 245 592 245 592 225.5 532 c 128,-1,10
 206 472 206 472 206 350 c 128,-1,11
 206 228 206 228 242 172.5 c 128,-1,12
 278 117 278 117 361 117 c 0,13,14
 412 117 412 117 505 147 c 1,15,-1
 538 43 l 1,16,17
 430 -12 430 -12 315 -12 c 0,18,19
 30 -12 30 -12 30 352 c 0,20,21
 30 455 30 455 57.5 535 c 128,-1,0
 85 615 85 615 150.5 667.5 c 128,-1,1
302 924 m 0,22,23
 381 924 381 924 381 834 c 0,24,25
 381 755 381 755 291 755 c 0,26,27
 212 755 212 755 212 845 c 0,28,29
 212 879 212 879 233 901.5 c 128,-1,30
 254 924 254 924 302 924 c 0,22,23
EndSplineSet
EndChar

StartChar: cdotaccent
Encoding: 267 267 202
Width: 482
GlyphClass: 2
Flags: W
LayerCount: 2
Fore
SplineSet
92 468.5 m 128,-1,1
 155 545 155 545 266.5 545 c 128,-1,2
 378 545 378 545 415.5 494 c 128,-1,3
 453 443 453 443 453 338 c 1,4,-1
 308 332 l 1,5,6
 308 390 308 390 298.5 408 c 128,-1,7
 289 426 289 426 255 426 c 128,-1,8
 221 426 221 426 206.5 389.5 c 128,-1,9
 192 353 192 353 192 267 c 128,-1,10
 192 181 192 181 216.5 144 c 128,-1,11
 241 107 241 107 295.5 107 c 128,-1,12
 350 107 350 107 429 137 c 1,13,-1
 461 46 l 1,14,15
 377 -12 377 -12 259 -12 c 0,16,17
 29 -12 29 -12 29 259 c 0,18,0
 29 392 29 392 92 468.5 c 128,-1,1
249 569 m 0,19,20
 167 569 167 569 167 662 c 0,21,22
 167 698 167 698 189 721.5 c 128,-1,23
 211 745 211 745 260 745 c 0,24,25
 343 745 343 745 343 651 c 0,26,27
 343 615 343 615 321 592 c 128,-1,28
 299 569 299 569 249 569 c 0,19,20
EndSplineSet
EndChar

StartChar: Ccaron
Encoding: 268 268 203
Width: 556
GlyphClass: 2
Flags: W
LayerCount: 2
Fore
SplineSet
150.5 667.5 m 128,-1,1
 216 720 216 720 324 720 c 128,-1,2
 432 720 432 720 481 664.5 c 128,-1,3
 530 609 530 609 530 481 c 1,4,-1
 367 473 l 1,5,6
 367 546 367 546 352 569 c 128,-1,7
 337 592 337 592 301 592 c 0,8,9
 245 592 245 592 225.5 532 c 128,-1,10
 206 472 206 472 206 350 c 128,-1,11
 206 228 206 228 242 172.5 c 128,-1,12
 278 117 278 117 361 117 c 0,13,14
 412 117 412 117 505 147 c 1,15,-1
 538 43 l 1,16,17
 430 -12 430 -12 315 -12 c 0,18,19
 30 -12 30 -12 30 352 c 0,20,21
 30 455 30 455 57.5 535 c 128,-1,0
 85 615 85 615 150.5 667.5 c 128,-1,1
463 868 m 1,22,-1
 331 743 l 1,23,-1
 263 743 l 1,24,-1
 131 868 l 1,25,-1
 186 925 l 1,26,-1
 297 844 l 1,27,-1
 408 925 l 1,28,-1
 463 868 l 1,22,-1
EndSplineSet
EndChar

StartChar: ccaron
Encoding: 269 269 204
Width: 482
GlyphClass: 2
Flags: W
LayerCount: 2
Fore
SplineSet
92 468.5 m 128,-1,1
 155 545 155 545 266.5 545 c 128,-1,2
 378 545 378 545 415.5 494 c 128,-1,3
 453 443 453 443 453 338 c 1,4,-1
 308 332 l 1,5,6
 308 390 308 390 298.5 408 c 128,-1,7
 289 426 289 426 255 426 c 128,-1,8
 221 426 221 426 206.5 389.5 c 128,-1,9
 192 353 192 353 192 267 c 128,-1,10
 192 181 192 181 216.5 144 c 128,-1,11
 241 107 241 107 295.5 107 c 128,-1,12
 350 107 350 107 429 137 c 1,13,-1
 461 46 l 1,14,15
 377 -12 377 -12 259 -12 c 0,16,17
 29 -12 29 -12 29 259 c 0,18,0
 29 392 29 392 92 468.5 c 128,-1,1
428 695 m 1,19,-1
 296 573 l 1,20,-1
 227 573 l 1,21,-1
 96 695 l 1,22,-1
 151 752 l 1,23,-1
 262 668 l 1,24,-1
 373 752 l 1,25,-1
 428 695 l 1,19,-1
EndSplineSet
EndChar

StartChar: Dcaron
Encoding: 270 270 205
Width: 599
GlyphClass: 2
Flags: W
LayerCount: 2
Fore
SplineSet
61 708 m 1,0,-1
 289 708 l 2,1,2
 358 708 358 708 409.5 687 c 128,-1,3
 461 666 461 666 491 633.5 c 128,-1,4
 521 601 521 601 539 552 c 128,-1,5
 557 503 557 503 562.5 456.5 c 128,-1,6
 568 410 568 410 568 353 c 128,-1,7
 568 296 568 296 559.5 246 c 128,-1,8
 551 196 551 196 530 150.5 c 128,-1,9
 509 105 509 105 478 72 c 0,10,11
 410 0 410 0 291 0 c 2,12,-1
 61 0 l 1,13,-1
 61 708 l 1,0,-1
225 583 m 1,14,-1
 225 124 l 1,15,-1
 288 124 l 2,16,17
 351 124 351 124 372 182.5 c 128,-1,18
 393 241 393 241 393 359 c 128,-1,19
 393 477 393 477 368.5 530 c 128,-1,20
 344 583 344 583 280 583 c 2,21,-1
 225 583 l 1,14,-1
458 868 m 1,22,-1
 326 743 l 1,23,-1
 258 743 l 1,24,-1
 126 868 l 1,25,-1
 181 925 l 1,26,-1
 292 844 l 1,27,-1
 403 925 l 1,28,-1
 458 868 l 1,22,-1
EndSplineSet
EndChar

StartChar: dcaron
Encoding: 271 271 206
Width: 671
GlyphClass: 2
Flags: W
LayerCount: 2
Fore
SplineSet
683 759 m 1,0,1
 695 696 695 696 695 655 c 128,-1,2
 695 614 695 614 674 581.5 c 128,-1,3
 653 549 653 549 584 484 c 1,4,-1
 522 545 l 1,5,6
 579 603 579 603 579 636 c 0,7,8
 579 654 579 654 566 734 c 1,9,-1
 683 759 l 1,0,1
329 410 m 1,10,11
 305 426 305 426 282 426 c 128,-1,12
 259 426 259 426 247 421.5 c 128,-1,13
 235 417 235 417 221 402 c 0,14,15
 192 371 192 371 192 270.5 c 128,-1,16
 192 170 192 170 209 138.5 c 128,-1,17
 226 107 226 107 265.5 107 c 128,-1,18
 305 107 305 107 329 137 c 1,19,-1
 329 410 l 1,10,11
170 531 m 128,-1,21
 204 545 204 545 255.5 545 c 128,-1,22
 307 545 307 545 341 524 c 1,23,-1
 344 527 l 1,24,-1
 329 554 l 1,25,-1
 329 753 l 1,26,-1
 482 769 l 1,27,-1
 482 158 l 1,28,-1
 493 9 l 1,29,-1
 374 -6 l 1,30,-1
 360 57 l 1,31,-1
 356 57 l 1,32,33
 300 -12 300 -12 221 -12 c 0,34,35
 29 -12 29 -12 29 255 c 0,36,37
 29 336 29 336 49.5 396 c 128,-1,38
 70 456 70 456 103 486.5 c 128,-1,20
 136 517 136 517 170 531 c 128,-1,21
EndSplineSet
EndChar

StartChar: Dcroat
Encoding: 272 272 207
Width: 599
GlyphClass: 2
Flags: W
LayerCount: 2
Fore
SplineSet
61 708 m 1,0,-1
 289 708 l 2,1,2
 358 708 358 708 409.5 687 c 128,-1,3
 461 666 461 666 491 633.5 c 128,-1,4
 521 601 521 601 539 552 c 128,-1,5
 557 503 557 503 562.5 456.5 c 128,-1,6
 568 410 568 410 568 353 c 128,-1,7
 568 296 568 296 559.5 246 c 128,-1,8
 551 196 551 196 530 150.5 c 128,-1,9
 509 105 509 105 478 72 c 0,10,11
 410 0 410 0 291 0 c 2,12,-1
 61 0 l 1,13,-1
 61 301 l 1,14,-1
 -10 301 l 1,15,-1
 2 397 l 1,16,-1
 61 409 l 1,17,-1
 61 708 l 1,0,-1
280 584 m 2,18,-1
 225 584 l 1,19,-1
 225 409 l 1,20,-1
 321 409 l 1,21,-1
 308 301 l 1,22,-1
 225 301 l 1,23,-1
 225 124 l 1,24,-1
 288 124 l 2,25,26
 351 124 351 124 372 182.5 c 128,-1,27
 393 241 393 241 393 359 c 128,-1,28
 393 477 393 477 368.5 530.5 c 128,-1,29
 344 584 344 584 280 584 c 2,18,-1
EndSplineSet
EndChar

StartChar: dcroat
Encoding: 273 273 208
Width: 535
GlyphClass: 2
Flags: W
LayerCount: 2
Fore
SplineSet
172 531 m 128,-1,1
 206 545 206 545 257.5 545 c 128,-1,2
 309 545 309 545 343 524 c 1,3,-1
 346 527 l 1,4,-1
 330 554 l 1,5,-1
 330 605 l 1,6,-1
 206 605 l 1,7,-1
 206 693 l 1,8,-1
 330 693 l 1,9,-1
 330 753 l 1,10,-1
 484 769 l 1,11,-1
 484 693 l 1,12,-1
 546 693 l 1,13,-1
 546 605 l 1,14,-1
 484 605 l 1,15,-1
 484 158 l 1,16,-1
 495 9 l 1,17,-1
 375 -6 l 1,18,-1
 362 57 l 1,19,-1
 358 57 l 1,20,21
 300 -12 300 -12 223 -12 c 0,22,23
 30 -12 30 -12 30 255 c 0,24,25
 30 336 30 336 50.5 396 c 128,-1,26
 71 456 71 456 104.5 486.5 c 128,-1,0
 138 517 138 517 172 531 c 128,-1,1
330 410 m 1,27,28
 308 426 308 426 284.5 426 c 128,-1,29
 261 426 261 426 249 421.5 c 128,-1,30
 237 417 237 417 223 402 c 0,31,32
 194 371 194 371 194 270.5 c 128,-1,33
 194 170 194 170 211 138.5 c 128,-1,34
 228 107 228 107 268 107 c 128,-1,35
 308 107 308 107 330 137 c 1,36,-1
 330 410 l 1,27,28
EndSplineSet
EndChar

StartChar: Emacron
Encoding: 274 274 209
Width: 522
GlyphClass: 2
Flags: W
LayerCount: 2
Fore
SplineSet
231 583 m 1,0,-1
 231 422 l 1,1,-1
 457 422 l 1,2,-1
 440 300 l 1,3,-1
 231 300 l 1,4,-1
 231 124 l 1,5,-1
 504 124 l 1,6,-1
 486 0 l 1,7,-1
 67 0 l 1,8,-1
 67 708 l 1,9,-1
 499 708 l 1,10,-1
 481 583 l 1,11,-1
 231 583 l 1,0,-1
142 880 m 1,12,-1
 418 880 l 1,13,-1
 418 779 l 1,14,-1
 142 779 l 1,15,-1
 142 880 l 1,12,-1
EndSplineSet
EndChar

StartChar: emacron
Encoding: 275 275 210
Width: 495
GlyphClass: 2
Flags: W
LayerCount: 2
Fore
SplineSet
271 545 m 0,0,1
 371 545 371 545 418 490 c 0,2,3
 457 445 457 445 466 340 c 0,4,5
 469 298 469 298 469 235 c 1,6,-1
 398 225 l 1,7,-1
 192 225 l 1,8,9
 192 166 192 166 214 136.5 c 128,-1,10
 236 107 236 107 292.5 107 c 128,-1,11
 349 107 349 107 429 136 c 1,12,-1
 460 42 l 1,13,14
 365 -12 365 -12 262 -12 c 0,15,16
 29 -12 29 -12 29 264 c 0,17,18
 29 394 29 394 89.5 469.5 c 128,-1,19
 150 545 150 545 271 545 c 0,0,1
260 426 m 128,-1,21
 225 426 225 426 210 400.5 c 128,-1,22
 195 375 195 375 193 324 c 1,23,-1
 315 324 l 1,24,25
 315 381 315 381 305 403.5 c 128,-1,20
 295 426 295 426 260 426 c 128,-1,21
123 708 m 1,26,-1
 399 708 l 1,27,-1
 399 608 l 1,28,-1
 123 608 l 1,29,-1
 123 708 l 1,26,-1
EndSplineSet
EndChar

StartChar: Ebreve
Encoding: 276 276 211
Width: 522
GlyphClass: 2
Flags: W
LayerCount: 2
Fore
SplineSet
67 708 m 1,0,-1
 499 708 l 1,1,-1
 481 583 l 1,2,-1
 231 583 l 1,3,-1
 231 422 l 1,4,-1
 457 422 l 1,5,-1
 440 300 l 1,6,-1
 231 300 l 1,7,-1
 231 124 l 1,8,-1
 504 124 l 1,9,-1
 486 0 l 1,10,-1
 67 0 l 1,11,-1
 67 708 l 1,0,-1
440 852 m 1,12,13
 379 768 379 768 281 768 c 128,-1,14
 183 768 183 768 120 852 c 1,15,-1
 171 905 l 1,16,17
 227 861 227 861 278 861 c 128,-1,18
 329 861 329 861 390 905 c 1,19,-1
 440 852 l 1,12,13
EndSplineSet
EndChar

StartChar: ebreve
Encoding: 277 277 212
Width: 495
GlyphClass: 2
Flags: W
LayerCount: 2
Fore
SplineSet
271 545 m 0,0,1
 371 545 371 545 418 490 c 0,2,3
 457 445 457 445 466 340 c 0,4,5
 469 298 469 298 469 235 c 1,6,-1
 398 225 l 1,7,-1
 192 225 l 1,8,9
 192 166 192 166 214 136.5 c 128,-1,10
 236 107 236 107 292.5 107 c 128,-1,11
 349 107 349 107 429 136 c 1,12,-1
 460 42 l 1,13,14
 365 -12 365 -12 262 -12 c 0,15,16
 29 -12 29 -12 29 264 c 0,17,18
 29 394 29 394 89.5 469.5 c 128,-1,19
 150 545 150 545 271 545 c 0,0,1
260 426 m 128,-1,21
 225 426 225 426 210 400.5 c 128,-1,22
 195 375 195 375 193 324 c 1,23,-1
 315 324 l 1,24,25
 315 381 315 381 305 403.5 c 128,-1,20
 295 426 295 426 260 426 c 128,-1,21
421 672 m 1,26,27
 360 588 360 588 263 588 c 128,-1,28
 166 588 166 588 101 672 c 1,29,-1
 152 725 l 1,30,31
 208 681 208 681 259 681 c 128,-1,32
 310 681 310 681 371 725 c 1,33,-1
 421 672 l 1,26,27
EndSplineSet
EndChar

StartChar: Edotaccent
Encoding: 278 278 213
Width: 522
GlyphClass: 2
Flags: W
LayerCount: 2
Fore
SplineSet
231 583 m 1,0,-1
 231 422 l 1,1,-1
 457 422 l 1,2,-1
 440 300 l 1,3,-1
 231 300 l 1,4,-1
 231 124 l 1,5,-1
 504 124 l 1,6,-1
 486 0 l 1,7,-1
 67 0 l 1,8,-1
 67 708 l 1,9,-1
 499 708 l 1,10,-1
 481 583 l 1,11,-1
 231 583 l 1,0,-1
285 924 m 0,12,13
 364 924 364 924 364 834 c 0,14,15
 364 755 364 755 274 755 c 0,16,17
 195 755 195 755 195 845 c 0,18,19
 195 879 195 879 216 901.5 c 128,-1,20
 237 924 237 924 285 924 c 0,12,13
EndSplineSet
EndChar

StartChar: edotaccent
Encoding: 279 279 214
Width: 495
GlyphClass: 2
Flags: W
LayerCount: 2
Fore
SplineSet
271 545 m 0,0,1
 371 545 371 545 418 490 c 0,2,3
 457 445 457 445 466 340 c 0,4,5
 469 298 469 298 469 235 c 1,6,-1
 398 225 l 1,7,-1
 192 225 l 1,8,9
 192 166 192 166 214 136.5 c 128,-1,10
 236 107 236 107 292.5 107 c 128,-1,11
 349 107 349 107 429 136 c 1,12,-1
 460 42 l 1,13,14
 365 -12 365 -12 262 -12 c 0,15,16
 29 -12 29 -12 29 264 c 0,17,18
 29 394 29 394 89.5 469.5 c 128,-1,19
 150 545 150 545 271 545 c 0,0,1
260 426 m 128,-1,21
 225 426 225 426 210 400.5 c 128,-1,22
 195 375 195 375 193 324 c 1,23,-1
 315 324 l 1,24,25
 315 381 315 381 305 403.5 c 128,-1,20
 295 426 295 426 260 426 c 128,-1,21
255 569 m 0,26,27
 173 569 173 569 173 662 c 0,28,29
 173 698 173 698 195 721.5 c 128,-1,30
 217 745 217 745 266 745 c 0,31,32
 349 745 349 745 349 651 c 0,33,34
 349 615 349 615 327 592 c 128,-1,35
 305 569 305 569 255 569 c 0,26,27
EndSplineSet
EndChar

StartChar: Eogonek
Encoding: 280 280 215
Width: 522
GlyphClass: 2
Flags: W
LayerCount: 2
Fore
SplineSet
318 -108 m 0,0,1
 318 -53 318 -53 394 0 c 1,2,-1
 67 0 l 1,3,-1
 67 708 l 1,4,-1
 499 708 l 1,5,-1
 481 583 l 1,6,-1
 231 583 l 1,7,-1
 231 422 l 1,8,-1
 457 422 l 1,9,-1
 440 300 l 1,10,-1
 231 300 l 1,11,-1
 231 124 l 1,12,-1
 504 124 l 1,13,-1
 486 0 l 1,14,15
 464 -17 464 -17 443 -38 c 0,16,17
 405 -74 405 -74 405 -96 c 0,18,19
 405 -109 405 -109 413 -116.5 c 128,-1,20
 421 -124 421 -124 434.5 -124 c 128,-1,21
 448 -124 448 -124 470 -118 c 1,22,-1
 485 -175 l 1,23,24
 440 -196 440 -196 405.5 -196 c 128,-1,25
 371 -196 371 -196 344.5 -172.5 c 128,-1,26
 318 -149 318 -149 318 -108 c 0,0,1
EndSplineSet
EndChar

StartChar: eogonek
Encoding: 281 281 216
Width: 495
GlyphClass: 2
Flags: W
LayerCount: 2
Fore
SplineSet
271 545 m 0,0,1
 371 545 371 545 418 490 c 0,2,3
 457 445 457 445 466 340 c 0,4,5
 469 298 469 298 469 235 c 1,6,-1
 383 225 l 1,7,-1
 192 225 l 1,8,9
 192 166 192 166 214 136.5 c 128,-1,10
 236 107 236 107 292.5 107 c 128,-1,11
 349 107 349 107 429 136 c 1,12,-1
 460 42 l 1,13,14
 423 22 423 22 405.5 11.5 c 128,-1,15
 388 1 388 1 359 -24 c 128,-1,16
 330 -49 330 -49 319 -73 c 1,17,18
 301 -101 301 -101 319 -118 c 0,19,20
 326 -124 326 -124 339.5 -124 c 128,-1,21
 353 -124 353 -124 373 -118 c 1,22,-1
 388 -175 l 1,23,24
 343 -196 343 -196 308.5 -196 c 128,-1,25
 274 -196 274 -196 247.5 -172 c 128,-1,26
 221 -148 221 -148 221 -108 c 0,27,28
 221 -83 221 -83 228 -70.5 c 128,-1,29
 235 -58 235 -58 239 -51.5 c 128,-1,30
 243 -45 243 -45 250.5 -38 c 128,-1,31
 258 -31 258 -31 262 -28 c 0,32,33
 278 -14 278 -14 283 -11 c 1,34,35
 276 -12 276 -12 262 -12 c 0,36,37
 29 -12 29 -12 29 264 c 0,38,39
 29 394 29 394 89.5 469.5 c 128,-1,40
 150 545 150 545 271 545 c 0,0,1
260 426 m 128,-1,42
 225 426 225 426 210 400.5 c 128,-1,43
 195 375 195 375 193 324 c 1,44,-1
 315 324 l 1,45,46
 315 381 315 381 305 403.5 c 128,-1,41
 295 426 295 426 260 426 c 128,-1,42
EndSplineSet
EndChar

StartChar: Ecaron
Encoding: 282 282 217
Width: 522
GlyphClass: 2
Flags: W
LayerCount: 2
Fore
SplineSet
231 583 m 1,0,-1
 231 422 l 1,1,-1
 457 422 l 1,2,-1
 440 300 l 1,3,-1
 231 300 l 1,4,-1
 231 124 l 1,5,-1
 504 124 l 1,6,-1
 486 0 l 1,7,-1
 67 0 l 1,8,-1
 67 708 l 1,9,-1
 499 708 l 1,10,-1
 481 583 l 1,11,-1
 231 583 l 1,0,-1
446 868 m 1,12,-1
 314 743 l 1,13,-1
 246 743 l 1,14,-1
 114 868 l 1,15,-1
 169 925 l 1,16,-1
 280 844 l 1,17,-1
 391 925 l 1,18,-1
 446 868 l 1,12,-1
EndSplineSet
EndChar

StartChar: ecaron
Encoding: 283 283 218
Width: 495
GlyphClass: 2
Flags: W
LayerCount: 2
Fore
SplineSet
271 545 m 0,0,1
 371 545 371 545 418 490 c 0,2,3
 457 445 457 445 466 340 c 0,4,5
 469 298 469 298 469 235 c 1,6,-1
 398 225 l 1,7,-1
 192 225 l 1,8,9
 192 166 192 166 214 136.5 c 128,-1,10
 236 107 236 107 292.5 107 c 128,-1,11
 349 107 349 107 429 136 c 1,12,-1
 460 42 l 1,13,14
 365 -12 365 -12 262 -12 c 0,15,16
 29 -12 29 -12 29 264 c 0,17,18
 29 394 29 394 89.5 469.5 c 128,-1,19
 150 545 150 545 271 545 c 0,0,1
260 426 m 128,-1,21
 225 426 225 426 210 400.5 c 128,-1,22
 195 375 195 375 193 324 c 1,23,-1
 315 324 l 1,24,25
 315 381 315 381 305 403.5 c 128,-1,20
 295 426 295 426 260 426 c 128,-1,21
227 573 m 1,26,-1
 95 695 l 1,27,-1
 150 752 l 1,28,-1
 261 668 l 1,29,-1
 372 752 l 1,30,-1
 427 695 l 1,31,-1
 296 573 l 1,32,-1
 227 573 l 1,26,-1
EndSplineSet
EndChar

StartChar: Gcircumflex
Encoding: 284 284 219
Width: 599
GlyphClass: 2
Flags: W
LayerCount: 2
Fore
SplineSet
106 620 m 128,-1,1
 179 720 179 720 311 720 c 128,-1,2
 443 720 443 720 495 661 c 128,-1,3
 547 602 547 602 547 484 c 1,4,-1
 384 474 l 1,5,6
 384 543 384 543 369 567.5 c 128,-1,7
 354 592 354 592 316.5 592 c 128,-1,8
 279 592 279 592 257.5 573.5 c 128,-1,9
 236 555 236 555 226 518 c 0,10,11
 208 455 208 455 208 338 c 128,-1,12
 208 221 208 221 239 168.5 c 128,-1,13
 270 116 270 116 340 116 c 0,14,15
 375 116 375 116 402 124 c 1,16,-1
 402 240 l 1,17,-1
 305 240 l 1,18,-1
 321 354 l 1,19,-1
 552 354 l 1,20,-1
 552 45 l 1,21,22
 491 16 491 16 436.5 2 c 128,-1,23
 382 -12 382 -12 308.5 -12 c 128,-1,24
 235 -12 235 -12 182 11.5 c 128,-1,25
 129 35 129 35 101 69.5 c 128,-1,26
 73 104 73 104 57 158.5 c 128,-1,27
 41 213 41 213 37 257.5 c 128,-1,28
 33 302 33 302 33 364 c 0,29,0
 33 520 33 520 106 620 c 128,-1,1
345 924 m 1,30,-1
 477 800 l 1,31,-1
 422 743 l 1,32,-1
 311 824 l 1,33,-1
 200 743 l 1,34,-1
 145 800 l 1,35,-1
 277 924 l 1,36,-1
 345 924 l 1,30,-1
EndSplineSet
EndChar

StartChar: gcircumflex
Encoding: 285 285 220
Width: 490
GlyphClass: 2
Flags: W
LayerCount: 2
Fore
SplineSet
281 752 m 1,0,-1
 410 630 l 1,1,-1
 355 572 l 1,2,-1
 244 657 l 1,3,-1
 133 572 l 1,4,-1
 78 630 l 1,5,-1
 207 752 l 1,6,-1
 281 752 l 1,0,-1
243 545 m 1,7,8
 243 545 243 545 500 536 c 1,9,-1
 487 462 l 1,10,-1
 427 452 l 1,11,12
 444 414 444 414 444 363 c 0,13,14
 444 268 444 268 389 216.5 c 128,-1,15
 334 165 334 165 225 165 c 0,16,17
 197 165 197 165 185 166 c 1,18,19
 165 152 165 152 165 143 c 0,20,21
 165 120 165 120 207 117 c 2,22,-1
 287 111 l 1,23,24
 395 105 395 105 441 78 c 128,-1,25
 487 51 487 51 487 -22 c 0,26,27
 487 -111 487 -111 406 -155.5 c 128,-1,28
 325 -200 325 -200 209 -200 c 0,29,30
 -3 -200 -3 -200 -3 -75 c 0,31,32
 -3 -42 -3 -42 12.5 -25 c 128,-1,33
 28 -8 28 -8 35 -1 c 128,-1,34
 42 6 42 6 59 18.5 c 128,-1,35
 76 31 76 31 81 35 c 1,36,37
 46 62 46 62 46 107 c 0,38,39
 46 134 46 134 66 156 c 0,40,41
 71 161 71 161 89 174 c 128,-1,42
 107 187 107 187 108 188 c 1,43,44
 26 230 26 230 26 349 c 0,45,46
 26 445 26 445 81.5 495 c 128,-1,47
 137 545 137 545 243 545 c 1,7,8
122 -42 m 0,48,49
 122 -91 122 -91 241.5 -91 c 128,-1,50
 361 -91 361 -91 361 -48 c 0,51,52
 361 -24 361 -24 335.5 -15 c 128,-1,53
 310 -6 310 -6 238 -4 c 1,54,55
 179 0 179 0 152 6 c 1,56,57
 150 5 150 5 139.5 -5.5 c 128,-1,58
 129 -16 129 -16 128 -18.5 c 128,-1,59
 127 -21 127 -21 125 -25 c 0,60,61
 122 -31 122 -31 122 -42 c 0,48,49
282 415 m 128,-1,63
 266 432 266 432 231.5 432 c 128,-1,64
 197 432 197 432 184.5 413.5 c 128,-1,65
 172 395 172 395 172 354.5 c 128,-1,66
 172 314 172 314 188 296.5 c 128,-1,67
 204 279 204 279 238.5 279 c 128,-1,68
 273 279 273 279 285.5 298 c 128,-1,69
 298 317 298 317 298 357.5 c 128,-1,62
 298 398 298 398 282 415 c 128,-1,63
EndSplineSet
EndChar

StartChar: Gbreve
Encoding: 286 286 221
Width: 599
GlyphClass: 2
Flags: W
LayerCount: 2
Fore
SplineSet
106 620 m 128,-1,1
 179 720 179 720 311 720 c 128,-1,2
 443 720 443 720 495 661 c 128,-1,3
 547 602 547 602 547 484 c 1,4,-1
 384 474 l 1,5,6
 384 543 384 543 369 567.5 c 128,-1,7
 354 592 354 592 316.5 592 c 128,-1,8
 279 592 279 592 257.5 573.5 c 128,-1,9
 236 555 236 555 226 518 c 0,10,11
 208 455 208 455 208 338 c 128,-1,12
 208 221 208 221 239 168.5 c 128,-1,13
 270 116 270 116 340 116 c 0,14,15
 375 116 375 116 402 124 c 1,16,-1
 402 240 l 1,17,-1
 305 240 l 1,18,-1
 321 354 l 1,19,-1
 552 354 l 1,20,-1
 552 45 l 1,21,22
 491 16 491 16 436.5 2 c 128,-1,23
 382 -12 382 -12 308.5 -12 c 128,-1,24
 235 -12 235 -12 182 11.5 c 128,-1,25
 129 35 129 35 101 69.5 c 128,-1,26
 73 104 73 104 57 158.5 c 128,-1,27
 41 213 41 213 37 257.5 c 128,-1,28
 33 302 33 302 33 364 c 0,29,0
 33 520 33 520 106 620 c 128,-1,1
471 852 m 1,30,31
 410 768 410 768 313 768 c 128,-1,32
 216 768 216 768 151 852 c 1,33,-1
 202 905 l 1,34,35
 258 861 258 861 309 861 c 128,-1,36
 360 861 360 861 421 905 c 1,37,-1
 471 852 l 1,30,31
EndSplineSet
EndChar

StartChar: gbreve
Encoding: 287 287 222
Width: 490
GlyphClass: 2
Flags: W
LayerCount: 2
Fore
SplineSet
410 672 m 1,0,1
 349 588 349 588 252 588 c 128,-1,2
 155 588 155 588 90 672 c 1,3,-1
 141 725 l 1,4,5
 197 681 197 681 248 681 c 128,-1,6
 299 681 299 681 360 725 c 1,7,-1
 410 672 l 1,0,1
243 545 m 1,8,-1
 500 536 l 1,9,-1
 487 462 l 1,10,-1
 427 452 l 1,11,12
 444 414 444 414 444 363 c 0,13,14
 444 268 444 268 389 216.5 c 128,-1,15
 334 165 334 165 225 165 c 0,16,17
 197 165 197 165 185 166 c 1,18,19
 165 152 165 152 165 143 c 0,20,21
 165 120 165 120 207 117 c 2,22,-1
 287 111 l 1,23,24
 395 105 395 105 441 78 c 128,-1,25
 487 51 487 51 487 -22 c 0,26,27
 487 -111 487 -111 406 -155.5 c 128,-1,28
 325 -200 325 -200 209 -200 c 0,29,30
 -3 -200 -3 -200 -3 -75 c 0,31,32
 -3 -42 -3 -42 12.5 -25 c 128,-1,33
 28 -8 28 -8 35 -1 c 128,-1,34
 42 6 42 6 59 18.5 c 128,-1,35
 76 31 76 31 81 35 c 1,36,37
 46 62 46 62 46 107 c 0,38,39
 46 134 46 134 66 156 c 0,40,41
 71 161 71 161 89 174 c 128,-1,42
 107 187 107 187 108 188 c 1,43,44
 26 230 26 230 26 349 c 0,45,46
 26 445 26 445 81.5 495 c 128,-1,47
 137 545 137 545 243 545 c 1,8,-1
122 -42 m 0,48,49
 122 -91 122 -91 241.5 -91 c 128,-1,50
 361 -91 361 -91 361 -48 c 0,51,52
 361 -24 361 -24 335.5 -15 c 128,-1,53
 310 -6 310 -6 238 -4 c 1,54,55
 179 0 179 0 152 6 c 1,56,57
 150 5 150 5 139.5 -5.5 c 128,-1,58
 129 -16 129 -16 128 -18.5 c 128,-1,59
 127 -21 127 -21 125 -25 c 0,60,61
 122 -31 122 -31 122 -42 c 0,48,49
282 415 m 128,-1,63
 266 432 266 432 231.5 432 c 128,-1,64
 197 432 197 432 184.5 413.5 c 128,-1,65
 172 395 172 395 172 354.5 c 128,-1,66
 172 314 172 314 188 296.5 c 128,-1,67
 204 279 204 279 238.5 279 c 128,-1,68
 273 279 273 279 285.5 298 c 128,-1,69
 298 317 298 317 298 357.5 c 128,-1,62
 298 398 298 398 282 415 c 128,-1,63
EndSplineSet
EndChar

StartChar: Gdotaccent
Encoding: 288 288 223
Width: 599
GlyphClass: 2
Flags: W
LayerCount: 2
Fore
SplineSet
106 620 m 128,-1,1
 179 720 179 720 311 720 c 128,-1,2
 443 720 443 720 495 661 c 128,-1,3
 547 602 547 602 547 484 c 1,4,-1
 384 474 l 1,5,6
 384 543 384 543 369 567.5 c 128,-1,7
 354 592 354 592 316.5 592 c 128,-1,8
 279 592 279 592 257.5 573.5 c 128,-1,9
 236 555 236 555 226 518 c 0,10,11
 208 455 208 455 208 338 c 128,-1,12
 208 221 208 221 239 168.5 c 128,-1,13
 270 116 270 116 340 116 c 0,14,15
 375 116 375 116 402 124 c 1,16,-1
 402 240 l 1,17,-1
 305 240 l 1,18,-1
 321 354 l 1,19,-1
 552 354 l 1,20,-1
 552 45 l 1,21,22
 491 16 491 16 436.5 2 c 128,-1,23
 382 -12 382 -12 308.5 -12 c 128,-1,24
 235 -12 235 -12 182 11.5 c 128,-1,25
 129 35 129 35 101 69.5 c 128,-1,26
 73 104 73 104 57 158.5 c 128,-1,27
 41 213 41 213 37 257.5 c 128,-1,28
 33 302 33 302 33 364 c 0,29,0
 33 520 33 520 106 620 c 128,-1,1
316 924 m 0,30,31
 395 924 395 924 395 834 c 0,32,33
 395 755 395 755 305 755 c 0,34,35
 226 755 226 755 226 845 c 0,36,37
 226 879 226 879 247 901.5 c 128,-1,38
 268 924 268 924 316 924 c 0,30,31
EndSplineSet
EndChar

StartChar: gdotaccent
Encoding: 289 289 224
Width: 490
GlyphClass: 2
Flags: W
LayerCount: 2
Fore
SplineSet
244 569 m 0,0,1
 162 569 162 569 162 662 c 0,2,3
 162 698 162 698 184 721.5 c 128,-1,4
 206 745 206 745 255 745 c 0,5,6
 338 745 338 745 338 651 c 0,7,8
 338 615 338 615 316 592 c 128,-1,9
 294 569 294 569 244 569 c 0,0,1
243 545 m 1,10,11
 243 545 243 545 500 536 c 1,12,-1
 487 462 l 1,13,-1
 427 452 l 1,14,15
 444 414 444 414 444 363 c 0,16,17
 444 268 444 268 389 216.5 c 128,-1,18
 334 165 334 165 225 165 c 0,19,20
 197 165 197 165 185 166 c 1,21,22
 165 152 165 152 165 143 c 0,23,24
 165 120 165 120 207 117 c 2,25,-1
 287 111 l 1,26,27
 395 105 395 105 441 78 c 128,-1,28
 487 51 487 51 487 -22 c 0,29,30
 487 -111 487 -111 406 -155.5 c 128,-1,31
 325 -200 325 -200 209 -200 c 0,32,33
 -3 -200 -3 -200 -3 -75 c 0,34,35
 -3 -42 -3 -42 12.5 -25 c 128,-1,36
 28 -8 28 -8 35 -1 c 128,-1,37
 42 6 42 6 59 18.5 c 128,-1,38
 76 31 76 31 81 35 c 1,39,40
 46 62 46 62 46 107 c 0,41,42
 46 134 46 134 66 156 c 0,43,44
 71 161 71 161 89 174 c 128,-1,45
 107 187 107 187 108 188 c 1,46,47
 26 230 26 230 26 349 c 0,48,49
 26 445 26 445 81.5 495 c 128,-1,50
 137 545 137 545 243 545 c 1,10,11
122 -42 m 0,51,52
 122 -91 122 -91 241.5 -91 c 128,-1,53
 361 -91 361 -91 361 -48 c 0,54,55
 361 -24 361 -24 335.5 -15 c 128,-1,56
 310 -6 310 -6 238 -4 c 1,57,58
 179 0 179 0 152 6 c 1,59,60
 150 5 150 5 139.5 -5.5 c 128,-1,61
 129 -16 129 -16 128 -18.5 c 128,-1,62
 127 -21 127 -21 125 -25 c 0,63,64
 122 -31 122 -31 122 -42 c 0,51,52
282 415 m 128,-1,66
 266 432 266 432 231.5 432 c 128,-1,67
 197 432 197 432 184.5 413.5 c 128,-1,68
 172 395 172 395 172 354.5 c 128,-1,69
 172 314 172 314 188 296.5 c 128,-1,70
 204 279 204 279 238.5 279 c 128,-1,71
 273 279 273 279 285.5 298 c 128,-1,72
 298 317 298 317 298 357.5 c 128,-1,65
 298 398 298 398 282 415 c 128,-1,66
EndSplineSet
EndChar

StartChar: Gcommaaccent
Encoding: 290 290 225
Width: 599
GlyphClass: 2
Flags: W
LayerCount: 2
Fore
SplineSet
106 620 m 128,-1,1
 179 720 179 720 311 720 c 128,-1,2
 443 720 443 720 495 661 c 128,-1,3
 547 602 547 602 547 484 c 1,4,-1
 384 474 l 1,5,6
 384 543 384 543 369 567.5 c 128,-1,7
 354 592 354 592 316.5 592 c 128,-1,8
 279 592 279 592 257.5 573.5 c 128,-1,9
 236 555 236 555 226 518 c 0,10,11
 208 455 208 455 208 338 c 128,-1,12
 208 221 208 221 239 168.5 c 128,-1,13
 270 116 270 116 340 116 c 0,14,15
 375 116 375 116 402 124 c 1,16,-1
 402 240 l 1,17,-1
 305 240 l 1,18,-1
 321 354 l 1,19,-1
 552 354 l 1,20,-1
 552 45 l 1,21,22
 491 16 491 16 436.5 2 c 128,-1,23
 382 -12 382 -12 308.5 -12 c 128,-1,24
 235 -12 235 -12 182 11.5 c 128,-1,25
 129 35 129 35 101 69.5 c 128,-1,26
 73 104 73 104 57 158.5 c 128,-1,27
 41 213 41 213 37 257.5 c 128,-1,28
 33 302 33 302 33 364 c 0,29,0
 33 520 33 520 106 620 c 128,-1,1
360 -29 m 1,30,31
 368 -98 368 -98 368 -121.5 c 128,-1,32
 368 -145 368 -145 347 -172 c 128,-1,33
 326 -199 326 -199 261 -244 c 1,34,-1
 210 -195 l 1,35,36
 242 -163 242 -163 251.5 -148.5 c 128,-1,37
 261 -134 261 -134 261 -122.5 c 128,-1,38
 261 -111 261 -111 250 -40 c 1,39,-1
 360 -29 l 1,30,31
EndSplineSet
EndChar

StartChar: gcommaaccent
Encoding: 291 291 226
Width: 490
GlyphClass: 2
Flags: W
LayerCount: 2
Fore
SplineSet
298 651 m 1,0,-1
 304 580 l 1,1,-1
 177 567 l 1,2,3
 171 615 171 615 171 635 c 0,4,5
 171 692 171 692 195.5 720.5 c 128,-1,6
 220 749 220 749 305 803 c 1,7,-1
 366 733 l 1,8,9
 324 699 324 699 311 684 c 128,-1,10
 298 669 298 669 298 651 c 1,0,-1
243 545 m 1,11,-1
 500 536 l 1,12,-1
 487 462 l 1,13,-1
 427 452 l 1,14,15
 444 414 444 414 444 363 c 0,16,17
 444 268 444 268 389 216.5 c 128,-1,18
 334 165 334 165 225 165 c 0,19,20
 197 165 197 165 185 166 c 1,21,22
 165 152 165 152 165 143 c 0,23,24
 165 120 165 120 207 117 c 2,25,-1
 287 111 l 1,26,27
 395 105 395 105 441 78 c 128,-1,28
 487 51 487 51 487 -22 c 0,29,30
 487 -111 487 -111 406 -155.5 c 128,-1,31
 325 -200 325 -200 209 -200 c 0,32,33
 -3 -200 -3 -200 -3 -75 c 0,34,35
 -3 -42 -3 -42 12.5 -25 c 128,-1,36
 28 -8 28 -8 35 -1 c 128,-1,37
 42 6 42 6 59 18.5 c 128,-1,38
 76 31 76 31 81 35 c 1,39,40
 46 62 46 62 46 107 c 0,41,42
 46 134 46 134 66 156 c 0,43,44
 71 161 71 161 89 174 c 128,-1,45
 107 187 107 187 108 188 c 1,46,47
 26 230 26 230 26 349 c 0,48,49
 26 445 26 445 81.5 495 c 128,-1,50
 137 545 137 545 243 545 c 1,11,-1
122 -42 m 0,51,52
 122 -91 122 -91 241.5 -91 c 128,-1,53
 361 -91 361 -91 361 -48 c 0,54,55
 361 -24 361 -24 335.5 -15 c 128,-1,56
 310 -6 310 -6 238 -4 c 1,57,58
 179 0 179 0 152 6 c 1,59,60
 150 5 150 5 139.5 -5.5 c 128,-1,61
 129 -16 129 -16 128 -18.5 c 128,-1,62
 127 -21 127 -21 125 -25 c 0,63,64
 122 -31 122 -31 122 -42 c 0,51,52
282 415 m 128,-1,66
 266 432 266 432 231.5 432 c 128,-1,67
 197 432 197 432 184.5 413.5 c 128,-1,68
 172 395 172 395 172 354.5 c 128,-1,69
 172 314 172 314 188 296.5 c 128,-1,70
 204 279 204 279 238.5 279 c 128,-1,71
 273 279 273 279 285.5 298 c 128,-1,72
 298 317 298 317 298 357.5 c 128,-1,65
 298 398 298 398 282 415 c 128,-1,66
EndSplineSet
EndChar

StartChar: Hcircumflex
Encoding: 292 292 227
Width: 628
GlyphClass: 2
Flags: W
LayerCount: 2
Fore
SplineSet
560 708 m 1,0,-1
 560 0 l 1,1,-1
 397 0 l 1,2,-1
 397 296 l 1,3,-1
 231 296 l 1,4,-1
 231 0 l 1,5,-1
 67 0 l 1,6,-1
 67 708 l 1,7,-1
 231 708 l 1,8,-1
 231 426 l 1,9,-1
 397 426 l 1,10,-1
 397 708 l 1,11,-1
 560 708 l 1,0,-1
349 924 m 1,12,-1
 481 800 l 1,13,-1
 426 743 l 1,14,-1
 315 824 l 1,15,-1
 204 743 l 1,16,-1
 149 800 l 1,17,-1
 281 924 l 1,18,-1
 349 924 l 1,12,-1
EndSplineSet
EndChar

StartChar: hcircumflex
Encoding: 293 293 228
Width: 520
GlyphClass: 2
Flags: W
LayerCount: 2
Fore
SplineSet
392 743 m 1,0,-1
 499 625 l 1,1,-1
 448 572 l 1,2,-1
 358 656 l 1,3,-1
 268 572 l 1,4,-1
 217 625 l 1,5,-1
 323 743 l 1,6,-1
 392 743 l 1,0,-1
192 498 m 1,7,8
 245 545 245 545 322 545 c 128,-1,9
 399 545 399 545 440 501 c 128,-1,10
 481 457 481 457 481 377 c 2,11,-1
 481 0 l 1,12,-1
 327 0 l 1,13,-1
 327 361 l 2,14,15
 327 426 327 426 265 426 c 0,16,17
 228 426 228 426 202 397 c 1,18,-1
 202 0 l 1,19,-1
 49 0 l 1,20,-1
 49 753 l 1,21,-1
 202 769 l 1,22,-1
 202 541 l 1,23,-1
 188 500 l 1,24,-1
 192 498 l 1,7,8
EndSplineSet
EndChar

StartChar: Hbar
Encoding: 294 294 229
Width: 657
GlyphClass: 2
Flags: W
LayerCount: 2
Fore
SplineSet
575 708 m 1,0,-1
 575 607 l 1,1,-1
 635 607 l 1,2,-1
 635 509 l 1,3,-1
 575 509 l 1,4,-1
 575 0 l 1,5,-1
 412 0 l 1,6,-1
 412 296 l 1,7,-1
 246 296 l 1,8,-1
 246 0 l 1,9,-1
 82 0 l 1,10,-1
 82 509 l 1,11,-1
 22 509 l 1,12,-1
 22 607 l 1,13,-1
 82 607 l 1,14,-1
 82 708 l 1,15,-1
 246 708 l 1,16,-1
 246 607 l 1,17,-1
 412 607 l 1,18,-1
 412 708 l 1,19,-1
 575 708 l 1,0,-1
246 426 m 1,20,-1
 412 426 l 1,21,-1
 412 509 l 1,22,-1
 246 509 l 1,23,-1
 246 426 l 1,20,-1
EndSplineSet
EndChar

StartChar: hbar
Encoding: 295 295 230
Width: 529
GlyphClass: 2
Flags: W
LayerCount: 2
Fore
SplineSet
211 688 m 1,0,-1
 335 688 l 1,1,-1
 335 600 l 1,2,-1
 211 600 l 1,3,-1
 211 541 l 1,4,-1
 197 500 l 1,5,-1
 201 498 l 1,6,7
 254 545 254 545 331 545 c 128,-1,8
 408 545 408 545 449 501 c 128,-1,9
 490 457 490 457 490 377 c 2,10,-1
 490 0 l 1,11,-1
 336 0 l 1,12,-1
 336 361 l 2,13,14
 336 426 336 426 274 426 c 0,15,16
 237 426 237 426 211 397 c 1,17,-1
 211 0 l 1,18,-1
 58 0 l 1,19,-1
 58 600 l 1,20,-1
 4 600 l 1,21,-1
 4 688 l 1,22,-1
 58 688 l 1,23,-1
 58 753 l 1,24,-1
 211 769 l 1,25,-1
 211 688 l 1,0,-1
EndSplineSet
EndChar

StartChar: Itilde
Encoding: 296 296 231
Width: 298
GlyphClass: 2
Flags: W
LayerCount: 2
Fore
SplineSet
231 708 m 1,0,-1
 231 0 l 1,1,-1
 67 0 l 1,2,-1
 67 708 l 1,3,-1
 231 708 l 1,0,-1
198 768 m 0,4,5
 173 768 173 768 138 784 c 128,-1,6
 103 800 103 800 79.5 800 c 128,-1,7
 56 800 56 800 19 770 c 1,8,-1
 -13 846 l 1,9,10
 45 903 45 903 102 903 c 0,11,12
 128 903 128 903 161 887 c 128,-1,13
 194 871 194 871 217 871 c 128,-1,14
 240 871 240 871 284 898 c 1,15,-1
 311 820 l 1,16,17
 253 768 253 768 198 768 c 0,4,5
EndSplineSet
EndChar

StartChar: itilde
Encoding: 297 297 232
Width: 250
GlyphClass: 2
Flags: W
LayerCount: 2
Fore
SplineSet
202 0 m 1,0,-1
 49 0 l 1,1,-1
 49 524 l 1,2,-1
 202 540 l 1,3,-1
 202 0 l 1,0,-1
173 586 m 0,4,5
 148 586 148 586 113 602 c 128,-1,6
 78 618 78 618 56.5 618 c 128,-1,7
 35 618 35 618 5 598 c 1,8,-1
 -27 674 l 1,9,10
 25 720 25 720 77 720 c 0,11,12
 102 720 102 720 135.5 704.5 c 128,-1,13
 169 689 169 689 190 689 c 128,-1,14
 211 689 211 689 247 706 c 1,15,-1
 275 628 l 1,16,17
 223 586 223 586 173 586 c 0,4,5
EndSplineSet
EndChar

StartChar: imacron
Encoding: 299 299 233
Width: 253
GlyphClass: 2
Flags: W
LayerCount: 2
Fore
SplineSet
16 708 m 1,0,-1
 235 708 l 1,1,-1
 235 608 l 1,2,-1
 16 608 l 1,3,-1
 16 708 l 1,0,-1
204 0 m 1,4,-1
 50 0 l 1,5,-1
 48 524 l 1,6,-1
 204 540 l 1,7,-1
 204 0 l 1,4,-1
EndSplineSet
EndChar

StartChar: Ibreve
Encoding: 300 300 234
Width: 298
GlyphClass: 2
Flags: W
LayerCount: 2
Fore
SplineSet
231 708 m 1,0,-1
 231 0 l 1,1,-1
 67 0 l 1,2,-1
 67 708 l 1,3,-1
 231 708 l 1,0,-1
310 852 m 1,4,5
 249 768 249 768 152 768 c 128,-1,6
 55 768 55 768 -10 852 c 1,7,-1
 41 905 l 1,8,9
 97 861 97 861 148 861 c 128,-1,10
 199 861 199 861 260 905 c 1,11,-1
 310 852 l 1,4,5
EndSplineSet
EndChar

StartChar: Iogonek
Encoding: 302 302 235
Width: 298
GlyphClass: 2
Flags: W
LayerCount: 2
Fore
SplineSet
231 708 m 1,0,-1
 231 0 l 1,1,2
 207 -18 207 -18 187 -40 c 1,3,4
 151 -76 151 -76 151 -96 c 0,5,6
 151 -124 151 -124 177 -124 c 0,7,8
 195 -124 195 -124 215 -118 c 1,9,-1
 230 -175 l 1,10,11
 185 -196 185 -196 151 -196 c 128,-1,12
 117 -196 117 -196 90 -172 c 128,-1,13
 63 -148 63 -148 63 -107 c 128,-1,14
 63 -66 63 -66 102 -31 c 0,15,16
 113 -21 113 -21 139 0 c 1,17,-1
 67 0 l 1,18,-1
 67 708 l 1,19,-1
 231 708 l 1,0,-1
EndSplineSet
EndChar

StartChar: iogonek
Encoding: 303 303 236
Width: 251
GlyphClass: 2
Flags: W
LayerCount: 2
Fore
SplineSet
202 0 m 1,0,1
 114 -61 114 -61 114 -96 c 0,2,3
 114 -124 114 -124 140 -124 c 0,4,5
 158 -124 158 -124 178 -118 c 1,6,-1
 193 -175 l 1,7,8
 148 -196 148 -196 114 -196 c 128,-1,9
 80 -196 80 -196 53 -172 c 128,-1,10
 26 -148 26 -148 26 -108 c 0,11,12
 26 -55 26 -55 105 0 c 1,13,-1
 49 0 l 1,14,-1
 49 524 l 1,15,-1
 202 540 l 1,16,-1
 202 0 l 1,0,1
120 588 m 0,17,18
 39 588 39 588 39 680 c 0,19,20
 39 762 39 762 131 762 c 0,21,22
 212 762 212 762 212 669 c 0,23,24
 212 588 212 588 120 588 c 0,17,18
EndSplineSet
EndChar

StartChar: Idotaccent
Encoding: 304 304 237
Width: 298
GlyphClass: 2
Flags: W
LayerCount: 2
Fore
SplineSet
231 708 m 1,0,-1
 231 0 l 1,1,-1
 67 0 l 1,2,-1
 67 708 l 1,3,-1
 231 708 l 1,0,-1
155 924 m 0,4,5
 234 924 234 924 234 834 c 0,6,7
 234 755 234 755 144 755 c 0,8,9
 65 755 65 755 65 845 c 0,10,11
 65 879 65 879 86 901.5 c 128,-1,12
 107 924 107 924 155 924 c 0,4,5
EndSplineSet
EndChar

StartChar: dotlessi
Encoding: 305 305 238
Width: 251
GlyphClass: 2
Flags: W
LayerCount: 2
Fore
SplineSet
202 0 m 1,0,-1
 49 0 l 1,1,-1
 49 524 l 1,2,-1
 202 540 l 1,3,-1
 202 0 l 1,0,-1
EndSplineSet
EndChar

StartChar: IJ
Encoding: 306 306 239
Width: 595
GlyphClass: 2
Flags: W
LayerCount: 2
Fore
SplineSet
231 708 m 1,0,-1
 231 0 l 1,1,-1
 67 0 l 1,2,-1
 67 708 l 1,3,-1
 231 708 l 1,0,-1
528 708 m 1,4,-1
 528 112 l 2,5,6
 528 18 528 18 485 -48 c 128,-1,7
 442 -114 442 -114 315 -172 c 1,8,-1
 232 -65 l 1,9,10
 309 -26 309 -26 336.5 16.5 c 128,-1,11
 364 59 364 59 364 149 c 2,12,-1
 364 708 l 1,13,-1
 528 708 l 1,4,-1
EndSplineSet
EndChar

StartChar: ij
Encoding: 307 307 240
Width: 494
GlyphClass: 2
Flags: W
LayerCount: 2
Fore
SplineSet
445 9 m 2,0,1
 445 -69 445 -69 418 -108.5 c 128,-1,2
 391 -148 391 -148 306 -201 c 1,3,-1
 223 -113 l 1,4,5
 271 -77 271 -77 281.5 -51 c 128,-1,6
 292 -25 292 -25 292 49 c 2,7,-1
 292 525 l 1,8,-1
 445 540 l 1,9,-1
 445 9 l 2,0,1
363 569 m 0,10,11
 280 569 280 569 280 662 c 0,12,13
 280 698 280 698 302 721.5 c 128,-1,14
 324 745 324 745 373 745 c 0,15,16
 456 745 456 745 456 651 c 0,17,18
 456 615 456 615 434 592 c 128,-1,19
 412 569 412 569 363 569 c 0,10,11
202 0 m 1,20,-1
 49 0 l 1,21,-1
 49 524 l 1,22,-1
 202 540 l 1,23,-1
 202 0 l 1,20,-1
120 569 m 0,24,25
 37 569 37 569 37 662 c 0,26,27
 37 698 37 698 59 721.5 c 128,-1,28
 81 745 81 745 131 745 c 0,29,30
 213 745 213 745 213 651 c 0,31,32
 213 615 213 615 191 592 c 128,-1,33
 169 569 169 569 120 569 c 0,24,25
EndSplineSet
EndChar

StartChar: Jcircumflex
Encoding: 308 308 241
Width: 297
GlyphClass: 2
Flags: W
LayerCount: 2
Fore
SplineSet
230 708 m 1,0,-1
 230 112 l 2,1,2
 230 18 230 18 187 -48 c 128,-1,3
 144 -114 144 -114 16 -172 c 1,4,-1
 -66 -65 l 1,5,6
 11 -26 11 -26 38.5 16.5 c 128,-1,7
 66 59 66 59 66 149 c 2,8,-1
 66 708 l 1,9,-1
 230 708 l 1,0,-1
182 924 m 1,10,-1
 309 800 l 1,11,-1
 254 743 l 1,12,-1
 148 824 l 1,13,-1
 43 743 l 1,14,-1
 -12 800 l 1,15,-1
 115 924 l 1,16,-1
 182 924 l 1,10,-1
EndSplineSet
EndChar

StartChar: jcircumflex
Encoding: 309 309 242
Width: 250
GlyphClass: 2
Flags: W
LayerCount: 2
Fore
SplineSet
203 9 m 2,0,1
 203 -69 203 -69 176 -108.5 c 128,-1,2
 149 -148 149 -148 64 -201 c 1,3,-1
 -19 -113 l 1,4,5
 28 -77 28 -77 38.5 -51 c 128,-1,6
 49 -25 49 -25 49 49 c 2,7,-1
 49 525 l 1,8,-1
 203 540 l 1,9,-1
 203 9 l 2,0,1
161 752 m 1,10,-1
 285 623 l 1,11,-1
 230 566 l 1,12,-1
 126 651 l 1,13,-1
 22 566 l 1,14,-1
 -33 623 l 1,15,-1
 92 752 l 1,16,-1
 161 752 l 1,10,-1
EndSplineSet
EndChar

StartChar: Kcommaaccent
Encoding: 310 310 243
Width: 584
GlyphClass: 2
Flags: W
LayerCount: 2
Fore
SplineSet
255.5 -149 m 128,-1,1
 265 -134 265 -134 265 -122 c 128,-1,2
 265 -110 265 -110 255 -40 c 1,3,-1
 365 -29 l 1,4,5
 373 -98 373 -98 373 -121.5 c 128,-1,6
 373 -145 373 -145 351.5 -172 c 128,-1,7
 330 -199 330 -199 265 -244 c 1,8,-1
 215 -195 l 1,9,0
 246 -164 246 -164 255.5 -149 c 128,-1,1
231 708 m 1,10,-1
 231 0 l 1,11,-1
 67 0 l 1,12,-1
 67 708 l 1,13,-1
 231 708 l 1,10,-1
434 713 m 1,14,-1
 575 651 l 1,15,-1
 392 358 l 1,16,-1
 592 0 l 1,17,-1
 409 0 l 1,18,-1
 233 343 l 1,19,-1
 434 713 l 1,14,-1
EndSplineSet
EndChar

StartChar: kgreenlandic
Encoding: 312 312 244
Width: 600
GlyphClass: 2
Flags: W
LayerCount: 2
Fore
SplineSet
393 539 m 1,0,-1
 531 504 l 1,1,-1
 381 270 l 1,2,-1
 552 0 l 1,3,-1
 386 0 l 1,4,-1
 235 259 l 1,5,-1
 393 539 l 1,0,-1
232 533 m 1,6,-1
 232 0 l 1,7,-1
 81 0 l 1,8,-1
 81 533 l 1,9,-1
 232 533 l 1,6,-1
EndSplineSet
EndChar

StartChar: Lacute
Encoding: 313 313 245
Width: 476
GlyphClass: 2
Flags: W
LayerCount: 2
Fore
SplineSet
231 708 m 1,0,-1
 231 124 l 1,1,-1
 470 124 l 1,2,-1
 452 0 l 1,3,-1
 67 0 l 1,4,-1
 67 708 l 1,5,-1
 231 708 l 1,0,-1
325 932 m 1,6,-1
 375 826 l 1,7,-1
 144 740 l 1,8,-1
 100 821 l 1,9,-1
 325 932 l 1,6,-1
EndSplineSet
EndChar

StartChar: lacute
Encoding: 314 314 246
Width: 251
GlyphClass: 2
Flags: W
LayerCount: 2
Fore
SplineSet
232 967 m 1,0,-1
 282 861 l 1,1,-1
 51 775 l 1,2,-1
 7 856 l 1,3,-1
 232 967 l 1,0,-1
200 183 m 2,4,5
 200 134 200 134 206.5 111 c 128,-1,6
 213 88 213 88 239 56 c 1,7,-1
 129 -25 l 1,8,9
 81 26 81 26 63.5 64.5 c 128,-1,10
 46 103 46 103 46 180 c 2,11,-1
 46 752 l 1,12,-1
 200 769 l 1,13,-1
 200 183 l 2,4,5
EndSplineSet
EndChar

StartChar: Lcommaaccent
Encoding: 315 315 247
Width: 476
GlyphClass: 2
Flags: W
LayerCount: 2
Fore
SplineSet
231 708 m 1,0,-1
 231 124 l 1,1,-1
 470 124 l 1,2,-1
 452 0 l 1,3,-1
 67 0 l 1,4,-1
 67 708 l 1,5,-1
 231 708 l 1,0,-1
301 -29 m 1,6,7
 309 -98 309 -98 309 -121.5 c 128,-1,8
 309 -145 309 -145 288 -172 c 128,-1,9
 267 -199 267 -199 202 -244 c 1,10,-1
 151 -195 l 1,11,12
 183 -163 183 -163 192.5 -148.5 c 128,-1,13
 202 -134 202 -134 202 -122.5 c 128,-1,14
 202 -111 202 -111 191 -40 c 1,15,-1
 301 -29 l 1,6,7
EndSplineSet
EndChar

StartChar: lcommaaccent
Encoding: 316 316 248
Width: 251
GlyphClass: 2
Flags: W
LayerCount: 2
Fore
SplineSet
180 -29 m 1,0,1
 188 -81 188 -81 188 -113.5 c 128,-1,2
 188 -146 188 -146 167 -172.5 c 128,-1,3
 146 -199 146 -199 81 -244 c 1,4,-1
 30 -195 l 1,5,6
 62 -163 62 -163 71.5 -148.5 c 128,-1,7
 81 -134 81 -134 81 -122.5 c 128,-1,8
 81 -111 81 -111 70 -40 c 1,9,-1
 180 -29 l 1,0,1
200 183 m 2,10,11
 200 134 200 134 206.5 111 c 128,-1,12
 213 88 213 88 239 56 c 1,13,-1
 129 -25 l 1,14,15
 81 26 81 26 63.5 64.5 c 128,-1,16
 46 103 46 103 46 180 c 2,17,-1
 46 752 l 1,18,-1
 200 769 l 1,19,-1
 200 183 l 2,10,11
EndSplineSet
EndChar

StartChar: Lcaron
Encoding: 317 317 249
Width: 476
GlyphClass: 2
Flags: W
LayerCount: 2
Fore
SplineSet
441 759 m 1,0,1
 453 696 453 696 453 655 c 128,-1,2
 453 614 453 614 432 581 c 128,-1,3
 411 548 411 548 341 484 c 1,4,-1
 280 545 l 1,5,6
 336 603 336 603 336 636 c 0,7,8
 336 654 336 654 323 734 c 1,9,-1
 441 759 l 1,0,1
231 708 m 1,10,-1
 231 124 l 1,11,-1
 470 124 l 1,12,-1
 452 0 l 1,13,-1
 67 0 l 1,14,-1
 67 708 l 1,15,-1
 231 708 l 1,10,-1
EndSplineSet
EndChar

StartChar: lcaron
Encoding: 318 318 250
Width: 387
GlyphClass: 2
Flags: W
LayerCount: 2
Fore
SplineSet
401 759 m 1,0,1
 413 696 413 696 413 655 c 128,-1,2
 413 614 413 614 392 581.5 c 128,-1,3
 371 549 371 549 302 484 c 1,4,-1
 240 545 l 1,5,6
 297 603 297 603 297 636 c 0,7,8
 297 654 297 654 284 734 c 1,9,-1
 401 759 l 1,0,1
200 183 m 2,10,11
 200 134 200 134 206.5 111 c 128,-1,12
 213 88 213 88 239 56 c 1,13,-1
 129 -25 l 1,14,15
 81 26 81 26 63.5 64.5 c 128,-1,16
 46 103 46 103 46 180 c 2,17,-1
 46 752 l 1,18,-1
 200 769 l 1,19,-1
 200 183 l 2,10,11
EndSplineSet
EndChar

StartChar: Ldot
Encoding: 319 319 251
Width: 476
GlyphClass: 2
Flags: W
LayerCount: 2
Fore
SplineSet
231 708 m 1,0,-1
 231 124 l 1,1,-1
 470 124 l 1,2,-1
 452 0 l 1,3,-1
 67 0 l 1,4,-1
 67 708 l 1,5,-1
 231 708 l 1,0,-1
382 468 m 0,6,7
 459 468 459 468 459 383 c 0,8,9
 459 351 459 351 438 328.5 c 128,-1,10
 417 306 417 306 374 306 c 0,11,12
 297 306 297 306 297 390 c 0,13,14
 297 423 297 423 318 445.5 c 128,-1,15
 339 468 339 468 382 468 c 0,6,7
EndSplineSet
EndChar

StartChar: ldot
Encoding: 320 320 252
Width: 397
GlyphClass: 2
Flags: W
LayerCount: 2
Fore
SplineSet
327 305 m 0,0,1
 250 305 250 305 250 389 c 0,2,3
 250 421 250 421 271 443.5 c 128,-1,4
 292 466 292 466 335 466 c 0,5,6
 412 466 412 466 412 381 c 0,7,8
 412 349 412 349 391 327 c 128,-1,9
 370 305 370 305 327 305 c 0,0,1
200 183 m 2,10,11
 200 134 200 134 206.5 111 c 128,-1,12
 213 88 213 88 239 56 c 1,13,-1
 129 -25 l 1,14,15
 81 26 81 26 63.5 64.5 c 128,-1,16
 46 103 46 103 46 180 c 2,17,-1
 46 752 l 1,18,-1
 200 769 l 1,19,-1
 200 183 l 2,10,11
EndSplineSet
EndChar

StartChar: Lslash
Encoding: 321 321 253
Width: 495
GlyphClass: 2
Flags: W
LayerCount: 2
Fore
SplineSet
258 700 m 1,0,-1
 258 439 l 1,1,-1
 374 487 l 1,2,-1
 374 371 l 1,3,-1
 258 323 l 1,4,-1
 258 124 l 1,5,-1
 497 124 l 1,6,-1
 480 0 l 1,7,-1
 94 0 l 1,8,-1
 94 257 l 1,9,-1
 18 227 l 1,10,-1
 18 343 l 1,11,-1
 94 374 l 1,12,-1
 94 700 l 1,13,-1
 258 700 l 1,0,-1
EndSplineSet
EndChar

StartChar: lslash
Encoding: 322 322 254
Width: 308
GlyphClass: 2
Flags: W
LayerCount: 2
Fore
SplineSet
230 183 m 2,0,1
 230 134 230 134 237 111 c 128,-1,2
 244 88 244 88 270 56 c 1,3,-1
 161 -25 l 1,4,5
 113 26 113 26 95.5 64.5 c 128,-1,6
 78 103 78 103 78 180 c 2,7,-1
 78 303 l 1,8,-1
 8 274 l 1,9,-1
 8 381 l 1,10,-1
 78 410 l 1,11,-1
 78 752 l 1,12,-1
 230 769 l 1,13,-1
 230 472 l 1,14,-1
 298 500 l 1,15,-1
 298 392 l 1,16,-1
 230 364 l 1,17,-1
 230 183 l 2,0,1
EndSplineSet
EndChar

StartChar: Nacute
Encoding: 323 323 255
Width: 631
GlyphClass: 2
Flags: W
LayerCount: 2
Fore
SplineSet
497 826 m 1,0,-1
 266 740 l 1,1,-1
 222 821 l 1,2,-1
 447 932 l 1,3,-1
 497 826 l 1,0,-1
563 708 m 1,4,-1
 563 0 l 1,5,-1
 408 0 l 1,6,-1
 255 317 l 1,7,-1
 214 427 l 1,8,-1
 207 425 l 1,9,-1
 231 301 l 1,10,-1
 231 0 l 1,11,-1
 67 0 l 1,12,-1
 67 708 l 1,13,-1
 224 708 l 1,14,-1
 371 393 l 1,15,-1
 417 270 l 1,16,-1
 423 273 l 1,17,-1
 400 402 l 1,18,-1
 400 708 l 1,19,-1
 563 708 l 1,4,-1
EndSplineSet
EndChar

StartChar: nacute
Encoding: 324 324 256
Width: 527
GlyphClass: 2
Flags: W
LayerCount: 2
Fore
SplineSet
324 545 m 0,0,1
 399 545 399 545 440 501 c 128,-1,2
 481 457 481 457 481 378 c 2,3,-1
 481 0 l 1,4,-1
 327 0 l 1,5,-1
 327 361 l 2,6,7
 327 426 327 426 265 426 c 0,8,9
 229 426 229 426 202 397 c 1,10,-1
 202 0 l 1,11,-1
 49 0 l 1,12,-1
 49 378 l 1,13,-1
 38 525 l 1,14,-1
 157 540 l 1,15,-1
 171 480 l 1,16,-1
 176 480 l 1,17,18
 230 545 230 545 324 545 c 0,0,1
389 762 m 1,19,-1
 444 658 l 1,20,-1
 220 561 l 1,21,-1
 173 640 l 1,22,-1
 389 762 l 1,19,-1
EndSplineSet
EndChar

StartChar: Ncommaaccent
Encoding: 325 325 257
Width: 631
GlyphClass: 2
Flags: W
LayerCount: 2
Fore
SplineSet
370 -29 m 1,0,1
 378 -91 378 -91 378 -119 c 128,-1,2
 378 -147 378 -147 355.5 -173.5 c 128,-1,3
 333 -200 333 -200 271 -244 c 1,4,-1
 220 -195 l 1,5,6
 252 -164 252 -164 261.5 -149 c 128,-1,7
 271 -134 271 -134 271 -122.5 c 128,-1,8
 271 -111 271 -111 260 -40 c 1,9,-1
 370 -29 l 1,0,1
563 708 m 1,10,-1
 563 0 l 1,11,-1
 408 0 l 1,12,-1
 255 317 l 1,13,-1
 214 427 l 1,14,-1
 207 425 l 1,15,-1
 231 301 l 1,16,-1
 231 0 l 1,17,-1
 67 0 l 1,18,-1
 67 708 l 1,19,-1
 224 708 l 1,20,-1
 371 393 l 1,21,-1
 417 270 l 1,22,-1
 423 273 l 1,23,-1
 400 402 l 1,24,-1
 400 708 l 1,25,-1
 563 708 l 1,10,-1
EndSplineSet
EndChar

StartChar: ncommaaccent
Encoding: 326 326 258
Width: 527
GlyphClass: 2
Flags: W
LayerCount: 2
Fore
SplineSet
324 545 m 0,0,1
 399 545 399 545 440 501 c 128,-1,2
 481 457 481 457 481 378 c 2,3,-1
 481 0 l 1,4,-1
 327 0 l 1,5,-1
 327 361 l 2,6,7
 327 426 327 426 265 426 c 0,8,9
 229 426 229 426 202 397 c 1,10,-1
 202 0 l 1,11,-1
 49 0 l 1,12,-1
 49 378 l 1,13,-1
 38 525 l 1,14,-1
 157 540 l 1,15,-1
 171 480 l 1,16,-1
 176 480 l 1,17,18
 230 545 230 545 324 545 c 0,0,1
209.5 -149 m 128,-1,20
 219 -134 219 -134 219 -122 c 128,-1,21
 219 -110 219 -110 209 -40 c 1,22,-1
 319 -29 l 1,23,24
 327 -98 327 -98 327 -121.5 c 128,-1,25
 327 -145 327 -145 305.5 -172 c 128,-1,26
 284 -199 284 -199 219 -244 c 1,27,-1
 169 -195 l 1,28,19
 200 -164 200 -164 209.5 -149 c 128,-1,20
EndSplineSet
EndChar

StartChar: Ncaron
Encoding: 327 327 259
Width: 631
GlyphClass: 2
Flags: W
LayerCount: 2
Fore
SplineSet
482 868 m 1,0,-1
 350 743 l 1,1,-1
 282 743 l 1,2,-1
 150 868 l 1,3,-1
 205 925 l 1,4,-1
 316 844 l 1,5,-1
 427 925 l 1,6,-1
 482 868 l 1,0,-1
563 708 m 1,7,-1
 563 0 l 1,8,-1
 408 0 l 1,9,-1
 255 317 l 1,10,-1
 214 427 l 1,11,-1
 207 425 l 1,12,-1
 231 301 l 1,13,-1
 231 0 l 1,14,-1
 67 0 l 1,15,-1
 67 708 l 1,16,-1
 224 708 l 1,17,-1
 371 393 l 1,18,-1
 417 270 l 1,19,-1
 423 273 l 1,20,-1
 400 402 l 1,21,-1
 400 708 l 1,22,-1
 563 708 l 1,7,-1
EndSplineSet
EndChar

StartChar: ncaron
Encoding: 328 328 260
Width: 527
GlyphClass: 2
Flags: W
LayerCount: 2
Fore
SplineSet
324 545 m 0,0,1
 399 545 399 545 440 501 c 128,-1,2
 481 457 481 457 481 378 c 2,3,-1
 481 0 l 1,4,-1
 327 0 l 1,5,-1
 327 361 l 2,6,7
 327 426 327 426 265 426 c 0,8,9
 229 426 229 426 202 397 c 1,10,-1
 202 0 l 1,11,-1
 49 0 l 1,12,-1
 49 378 l 1,13,-1
 38 525 l 1,14,-1
 157 540 l 1,15,-1
 171 480 l 1,16,-1
 176 480 l 1,17,18
 230 545 230 545 324 545 c 0,0,1
435 695 m 1,19,-1
 304 573 l 1,20,-1
 235 573 l 1,21,-1
 103 695 l 1,22,-1
 158 752 l 1,23,-1
 269 668 l 1,24,-1
 380 752 l 1,25,-1
 435 695 l 1,19,-1
EndSplineSet
EndChar

StartChar: napostrophe
Encoding: 329 329 261
Width: 564
GlyphClass: 2
Flags: W
LayerCount: 2
Fore
SplineSet
98 759 m 1,0,1
 110 685 110 685 110 649.5 c 128,-1,2
 110 614 110 614 88.5 581.5 c 128,-1,3
 67 549 67 549 -2 484 c 1,4,-1
 -63 545 l 1,5,6
 -7 603 -7 603 -7 636 c 0,7,8
 -7 654 -7 654 -20 734 c 1,9,-1
 98 759 l 1,0,1
362 545 m 0,10,11
 437 545 437 545 478 501 c 128,-1,12
 519 457 519 457 519 378 c 2,13,-1
 519 0 l 1,14,-1
 365 0 l 1,15,-1
 365 361 l 2,16,17
 365 426 365 426 303 426 c 0,18,19
 267 426 267 426 240 397 c 1,20,-1
 240 0 l 1,21,-1
 86 0 l 1,22,-1
 86 378 l 1,23,-1
 76 525 l 1,24,-1
 195 540 l 1,25,-1
 209 480 l 1,26,-1
 213 480 l 1,27,28
 268 545 268 545 362 545 c 0,10,11
EndSplineSet
EndChar

StartChar: Eng
Encoding: 330 330 262
Width: 631
GlyphClass: 2
Flags: W
LayerCount: 2
Fore
SplineSet
563 700 m 1,0,-1
 563 96 l 2,1,2
 563 -8 563 -8 540 -48 c 0,3,4
 511 -100 511 -100 470.5 -134.5 c 128,-1,5
 430 -169 430 -169 388 -199 c 1,6,-1
 287 -109 l 1,7,8
 344 -60 344 -60 366 -32 c 128,-1,9
 388 -4 388 -4 395 41 c 1,10,-1
 255 317 l 1,11,-1
 214 427 l 1,12,-1
 208 424 l 1,13,-1
 231 291 l 1,14,-1
 231 0 l 1,15,-1
 67 0 l 1,16,-1
 67 700 l 1,17,-1
 224 700 l 1,18,-1
 372 389 l 1,19,-1
 417 269 l 1,20,-1
 423 272 l 1,21,-1
 400 405 l 1,22,-1
 400 700 l 1,23,-1
 563 700 l 1,0,-1
EndSplineSet
EndChar

StartChar: eng
Encoding: 331 331 263
Width: 526
GlyphClass: 2
Flags: W
LayerCount: 2
Fore
SplineSet
324 545 m 0,0,1
 399 545 399 545 440 501 c 128,-1,2
 481 457 481 457 481 378 c 2,3,-1
 481 14 l 2,4,5
 481 -68 481 -68 458.5 -107.5 c 128,-1,6
 436 -147 436 -147 364 -200 c 1,7,-1
 264 -128 l 1,8,9
 307 -87 307 -87 317 -60.5 c 128,-1,10
 327 -34 327 -34 327 34 c 2,11,-1
 327 361 l 2,12,13
 327 426 327 426 265 426 c 0,14,15
 229 426 229 426 202 397 c 1,16,-1
 202 0 l 1,17,-1
 49 0 l 1,18,-1
 49 378 l 1,19,-1
 38 525 l 1,20,-1
 157 540 l 1,21,-1
 171 480 l 1,22,-1
 176 480 l 1,23,24
 230 545 230 545 324 545 c 0,0,1
EndSplineSet
EndChar

StartChar: Omacron
Encoding: 332 332 264
Width: 635
GlyphClass: 2
Flags: W
LayerCount: 2
Fore
SplineSet
234 537.5 m 128,-1,1
 216 483 216 483 216 352.5 c 128,-1,2
 216 222 216 222 236 169 c 128,-1,3
 256 116 256 116 319.5 116 c 128,-1,4
 383 116 383 116 401 170 c 128,-1,5
 419 224 419 224 419 362 c 0,6,7
 419 514 419 514 391 554 c 0,8,9
 364 592 364 592 308 592 c 128,-1,0
 252 592 252 592 234 537.5 c 128,-1,1
327 719 m 0,10,11
 595 719 595 719 595 367 c 0,12,13
 595 187 595 187 523 87.5 c 128,-1,14
 451 -12 451 -12 308 -12 c 0,15,16
 40 -12 40 -12 40 340 c 0,17,18
 40 520 40 520 112 619.5 c 128,-1,19
 184 719 184 719 327 719 c 0,10,11
185 880 m 1,20,-1
 461 880 l 1,21,-1
 461 779 l 1,22,-1
 185 779 l 1,23,-1
 185 880 l 1,20,-1
EndSplineSet
EndChar

StartChar: omacron
Encoding: 333 333 265
Width: 528
GlyphClass: 2
Flags: W
LayerCount: 2
Fore
SplineSet
127 708 m 1,0,-1
 403 708 l 1,1,-1
 403 608 l 1,2,-1
 127 608 l 1,3,-1
 127 708 l 1,0,-1
250 -12 m 0,4,5
 196 -12 196 -12 155 5 c 128,-1,6
 114 22 114 22 90.5 48.5 c 128,-1,7
 67 75 67 75 52 114 c 0,8,9
 29 176 29 176 29 271 c 0,10,11
 29 359 29 359 64 426 c 0,12,13
 125 545 125 545 278 545 c 0,14,15
 333 545 333 545 374 528 c 128,-1,16
 415 511 415 511 438.5 484.5 c 128,-1,17
 462 458 462 458 476 419 c 0,18,19
 499 355 499 355 499 262 c 0,20,21
 499 119 499 119 419 45 c 0,22,23
 358 -12 358 -12 250 -12 c 0,4,5
266 107 m 128,-1,25
 312 107 312 107 324 140.5 c 128,-1,26
 336 174 336 174 336 264.5 c 128,-1,27
 336 355 336 355 322 390.5 c 128,-1,28
 308 426 308 426 262.5 426 c 128,-1,29
 217 426 217 426 204.5 392 c 128,-1,30
 192 358 192 358 192 268 c 128,-1,31
 192 178 192 178 206 142.5 c 128,-1,24
 220 107 220 107 266 107 c 128,-1,25
EndSplineSet
EndChar

StartChar: Obreve
Encoding: 334 334 266
Width: 635
GlyphClass: 2
Flags: W
LayerCount: 2
Fore
SplineSet
234 537.5 m 128,-1,1
 216 483 216 483 216 352.5 c 128,-1,2
 216 222 216 222 236 169 c 128,-1,3
 256 116 256 116 319.5 116 c 128,-1,4
 383 116 383 116 401 170 c 128,-1,5
 419 224 419 224 419 362 c 0,6,7
 419 514 419 514 391 554 c 0,8,9
 364 592 364 592 308 592 c 128,-1,0
 252 592 252 592 234 537.5 c 128,-1,1
327 719 m 0,10,11
 595 719 595 719 595 367 c 0,12,13
 595 187 595 187 523 87.5 c 128,-1,14
 451 -12 451 -12 308 -12 c 0,15,16
 40 -12 40 -12 40 340 c 0,17,18
 40 520 40 520 112 619.5 c 128,-1,19
 184 719 184 719 327 719 c 0,10,11
482 852 m 1,20,21
 421 768 421 768 324 768 c 128,-1,22
 227 768 227 768 162 852 c 1,23,-1
 213 905 l 1,24,25
 269 861 269 861 320 861 c 128,-1,26
 371 861 371 861 432 905 c 1,27,-1
 482 852 l 1,20,21
EndSplineSet
EndChar

StartChar: obreve
Encoding: 335 335 267
Width: 528
GlyphClass: 2
Flags: W
LayerCount: 2
Fore
SplineSet
425 672 m 1,0,1
 364 588 364 588 267 588 c 128,-1,2
 170 588 170 588 105 672 c 1,3,-1
 156 725 l 1,4,5
 212 681 212 681 263 681 c 128,-1,6
 314 681 314 681 375 725 c 1,7,-1
 425 672 l 1,0,1
250 -12 m 0,8,9
 196 -12 196 -12 155 5 c 128,-1,10
 114 22 114 22 90.5 48.5 c 128,-1,11
 67 75 67 75 52 114 c 0,12,13
 29 176 29 176 29 271 c 0,14,15
 29 359 29 359 64 426 c 0,16,17
 125 545 125 545 278 545 c 0,18,19
 333 545 333 545 374 528 c 128,-1,20
 415 511 415 511 438.5 484.5 c 128,-1,21
 462 458 462 458 476 419 c 0,22,23
 499 355 499 355 499 262 c 0,24,25
 499 119 499 119 419 45 c 0,26,27
 358 -12 358 -12 250 -12 c 0,8,9
266 107 m 128,-1,29
 312 107 312 107 324 140.5 c 128,-1,30
 336 174 336 174 336 264.5 c 128,-1,31
 336 355 336 355 322 390.5 c 128,-1,32
 308 426 308 426 262.5 426 c 128,-1,33
 217 426 217 426 204.5 392 c 128,-1,34
 192 358 192 358 192 268 c 128,-1,35
 192 178 192 178 206 142.5 c 128,-1,28
 220 107 220 107 266 107 c 128,-1,29
EndSplineSet
EndChar

StartChar: Ohungarumlaut
Encoding: 336 336 268
Width: 635
GlyphClass: 2
Flags: W
LayerCount: 2
Fore
SplineSet
319 968 m 1,0,-1
 399 885 l 1,1,-1
 221 737 l 1,2,-1
 153 798 l 1,3,-1
 319 968 l 1,0,-1
520 965 m 1,4,-1
 599 878 l 1,5,-1
 413 737 l 1,6,-1
 349 801 l 1,7,-1
 520 965 l 1,4,-1
234 537.5 m 128,-1,9
 216 483 216 483 216 352.5 c 128,-1,10
 216 222 216 222 236 169 c 128,-1,11
 256 116 256 116 319.5 116 c 128,-1,12
 383 116 383 116 401 170 c 128,-1,13
 419 224 419 224 419 362 c 0,14,15
 419 514 419 514 391 554 c 0,16,17
 364 592 364 592 308 592 c 128,-1,8
 252 592 252 592 234 537.5 c 128,-1,9
327 720 m 0,18,19
 595 720 595 720 595 367 c 0,20,21
 595 187 595 187 523 87.5 c 128,-1,22
 451 -12 451 -12 308 -12 c 0,23,24
 40 -12 40 -12 40 340 c 0,25,26
 40 520 40 520 112 620 c 128,-1,27
 184 720 184 720 327 720 c 0,18,19
EndSplineSet
EndChar

StartChar: ohungarumlaut
Encoding: 337 337 269
Width: 528
GlyphClass: 2
Flags: W
LayerCount: 2
Fore
SplineSet
258 790 m 1,0,-1
 339 709 l 1,1,-1
 165 561 l 1,2,-1
 98 618 l 1,3,-1
 258 790 l 1,0,-1
459 790 m 1,4,-1
 540 707 l 1,5,-1
 363 560 l 1,6,-1
 298 620 l 1,7,-1
 459 790 l 1,4,-1
250 -12 m 0,8,9
 196 -12 196 -12 155 5 c 128,-1,10
 114 22 114 22 90.5 48.5 c 128,-1,11
 67 75 67 75 52 114 c 0,12,13
 29 176 29 176 29 271 c 0,14,15
 29 359 29 359 64 426 c 0,16,17
 125 545 125 545 278 545 c 0,18,19
 333 545 333 545 374 528 c 128,-1,20
 415 511 415 511 438.5 484.5 c 128,-1,21
 462 458 462 458 476 419 c 0,22,23
 499 355 499 355 499 262 c 0,24,25
 499 119 499 119 419 45 c 0,26,27
 358 -12 358 -12 250 -12 c 0,8,9
266 107 m 128,-1,29
 312 107 312 107 324 140.5 c 128,-1,30
 336 174 336 174 336 264.5 c 128,-1,31
 336 355 336 355 322 390.5 c 128,-1,32
 308 426 308 426 262.5 426 c 128,-1,33
 217 426 217 426 204.5 392 c 128,-1,34
 192 358 192 358 192 268 c 128,-1,35
 192 178 192 178 206 142.5 c 128,-1,28
 220 107 220 107 266 107 c 128,-1,29
EndSplineSet
EndChar

StartChar: OE
Encoding: 338 338 270
Width: 839
GlyphClass: 2
Flags: W
LayerCount: 2
Fore
SplineSet
548 583 m 1,0,-1
 548 422 l 1,1,-1
 774 422 l 1,2,-1
 757 300 l 1,3,-1
 548 300 l 1,4,-1
 548 124 l 1,5,-1
 821 124 l 1,6,-1
 803 0 l 1,7,-1
 385 0 l 1,8,9
 337 -12 337 -12 304 -12 c 0,10,11
 40 -12 40 -12 40 340 c 0,12,13
 40 520 40 520 111.5 620 c 128,-1,14
 183 720 183 720 324 720 c 0,15,16
 355 720 355 720 395 708 c 1,17,-1
 816 708 l 1,18,-1
 798 583 l 1,19,-1
 548 583 l 1,0,-1
309 592 m 0,20,21
 251 592 251 592 233.5 537.5 c 128,-1,22
 216 483 216 483 216 346 c 0,23,24
 216 196 216 196 244 154 c 0,25,26
 270 116 270 116 322 116 c 0,27,28
 359 116 359 116 384 131 c 1,29,-1
 384 575 l 1,30,31
 352 592 352 592 309 592 c 0,20,21
EndSplineSet
EndChar

StartChar: oe
Encoding: 339 339 271
Width: 795
GlyphClass: 2
Flags: W
LayerCount: 2
Fore
SplineSet
272 545 m 0,0,1
 374 545 374 545 420 481 c 1,2,3
 472 545 472 545 571 545 c 0,4,5
 671 545 671 545 718 490 c 0,6,7
 757 445 757 445 766 340 c 0,8,9
 769 298 769 298 769 235 c 1,10,-1
 698 225 l 1,11,-1
 492 225 l 1,12,13
 492 166 492 166 514 136.5 c 128,-1,14
 536 107 536 107 593.5 107 c 128,-1,15
 651 107 651 107 729 136 c 1,16,-1
 760 42 l 1,17,18
 665 -12 665 -12 562.5 -12 c 128,-1,19
 460 -12 460 -12 409 56 c 1,20,21
 351 -12 351 -12 251 -12 c 0,22,23
 196 -12 196 -12 155 5 c 128,-1,24
 114 22 114 22 90.5 48.5 c 128,-1,25
 67 75 67 75 52 114 c 0,26,27
 29 176 29 176 29 282 c 128,-1,28
 29 388 29 388 90 466.5 c 128,-1,29
 151 545 151 545 272 545 c 0,0,1
322 390.5 m 128,-1,31
 308 426 308 426 262.5 426 c 128,-1,32
 217 426 217 426 204.5 392 c 128,-1,33
 192 358 192 358 192 268 c 128,-1,34
 192 178 192 178 206 142.5 c 128,-1,35
 220 107 220 107 266 107 c 128,-1,36
 312 107 312 107 324 140.5 c 128,-1,37
 336 174 336 174 336 264.5 c 128,-1,30
 336 355 336 355 322 390.5 c 128,-1,31
605.5 404 m 128,-1,39
 596 426 596 426 560.5 426 c 128,-1,40
 525 426 525 426 510.5 400.5 c 128,-1,41
 496 375 496 375 493 324 c 1,42,-1
 615 324 l 1,43,38
 615 382 615 382 605.5 404 c 128,-1,39
EndSplineSet
EndChar

StartChar: Racute
Encoding: 340 340 272
Width: 576
GlyphClass: 2
Flags: W
LayerCount: 2
Fore
SplineSet
67 708 m 1,0,-1
 332 708 l 2,1,2
 542 708 542 708 542 507 c 0,3,4
 542 362 542 362 411 304 c 1,5,-1
 565 0 l 1,6,-1
 389 0 l 1,7,-1
 273 265 l 1,8,-1
 228 265 l 1,9,-1
 228 0 l 1,10,-1
 67 0 l 1,11,-1
 67 708 l 1,0,-1
230 587 m 1,12,-1
 230 387 l 1,13,-1
 277 387 l 2,14,15
 366 387 366 387 366 494 c 0,16,17
 366 541 366 541 345.5 564 c 128,-1,18
 325 587 325 587 275 587 c 2,19,-1
 230 587 l 1,12,-1
436 932 m 1,20,-1
 486 826 l 1,21,-1
 255 740 l 1,22,-1
 211 821 l 1,23,-1
 436 932 l 1,20,-1
EndSplineSet
EndChar

StartChar: racute
Encoding: 341 341 273
Width: 381
GlyphClass: 2
Flags: W
LayerCount: 2
Fore
SplineSet
226 514 m 128,-1,1
 261 545 261 545 307.5 545 c 128,-1,2
 354 545 354 545 392 526 c 1,3,-1
 357 405 l 1,4,5
 326 414 326 414 304 414 c 0,6,7
 265 414 265 414 233.5 385 c 128,-1,8
 202 356 202 356 202 300 c 2,9,-1
 202 0 l 1,10,-1
 49 0 l 1,11,-1
 49 377 l 1,12,-1
 38 525 l 1,13,-1
 154 540 l 1,14,-1
 172 430 l 1,15,-1
 176 430 l 1,16,0
 191 483 191 483 226 514 c 128,-1,1
296 768 m 1,17,-1
 351 665 l 1,18,-1
 127 568 l 1,19,-1
 80 646 l 1,20,-1
 296 768 l 1,17,-1
EndSplineSet
EndChar

StartChar: Rcommaaccent
Encoding: 342 342 274
Width: 576
GlyphClass: 2
Flags: W
LayerCount: 2
Fore
SplineSet
67 708 m 1,0,-1
 332 708 l 2,1,2
 542 708 542 708 542 507 c 0,3,4
 542 362 542 362 411 304 c 1,5,-1
 565 0 l 1,6,-1
 389 0 l 1,7,-1
 273 265 l 1,8,-1
 228 265 l 1,9,-1
 228 0 l 1,10,-1
 67 0 l 1,11,-1
 67 708 l 1,0,-1
230 587 m 1,12,-1
 230 387 l 1,13,-1
 277 387 l 2,14,15
 366 387 366 387 366 494 c 0,16,17
 366 541 366 541 345.5 564 c 128,-1,18
 325 587 325 587 275 587 c 2,19,-1
 230 587 l 1,12,-1
356 -29 m 1,20,21
 364 -98 364 -98 364 -121.5 c 128,-1,22
 364 -145 364 -145 343 -172 c 128,-1,23
 322 -199 322 -199 257 -244 c 1,24,-1
 206 -195 l 1,25,26
 238 -163 238 -163 247.5 -148.5 c 128,-1,27
 257 -134 257 -134 257 -122.5 c 128,-1,28
 257 -111 257 -111 246 -40 c 1,29,-1
 356 -29 l 1,20,21
EndSplineSet
EndChar

StartChar: rcommaaccent
Encoding: 343 343 275
Width: 381
GlyphClass: 2
Flags: W
LayerCount: 2
Fore
SplineSet
71.5 -149 m 128,-1,1
 81 -134 81 -134 81 -122 c 128,-1,2
 81 -110 81 -110 71 -40 c 1,3,-1
 181 -29 l 1,4,5
 189 -98 189 -98 189 -121.5 c 128,-1,6
 189 -145 189 -145 167.5 -172 c 128,-1,7
 146 -199 146 -199 81 -244 c 1,8,-1
 31 -195 l 1,9,0
 62 -164 62 -164 71.5 -149 c 128,-1,1
226 514 m 128,-1,11
 261 545 261 545 307.5 545 c 128,-1,12
 354 545 354 545 392 526 c 1,13,-1
 357 405 l 1,14,15
 326 414 326 414 304 414 c 0,16,17
 265 414 265 414 233.5 385 c 128,-1,18
 202 356 202 356 202 300 c 2,19,-1
 202 0 l 1,20,-1
 49 0 l 1,21,-1
 49 377 l 1,22,-1
 38 525 l 1,23,-1
 154 540 l 1,24,-1
 172 430 l 1,25,-1
 176 430 l 1,26,10
 191 483 191 483 226 514 c 128,-1,11
EndSplineSet
EndChar

StartChar: Rcaron
Encoding: 344 344 276
Width: 576
GlyphClass: 2
Flags: W
LayerCount: 2
Fore
SplineSet
67 708 m 1,0,-1
 332 708 l 2,1,2
 542 708 542 708 542 507 c 0,3,4
 542 362 542 362 411 304 c 1,5,-1
 565 0 l 1,6,-1
 389 0 l 1,7,-1
 273 265 l 1,8,-1
 228 265 l 1,9,-1
 228 0 l 1,10,-1
 67 0 l 1,11,-1
 67 708 l 1,0,-1
230 587 m 1,12,-1
 230 387 l 1,13,-1
 277 387 l 2,14,15
 366 387 366 387 366 494 c 0,16,17
 366 541 366 541 345.5 564 c 128,-1,18
 325 587 325 587 275 587 c 2,19,-1
 230 587 l 1,12,-1
256 743 m 1,20,-1
 124 868 l 1,21,-1
 179 925 l 1,22,-1
 290 844 l 1,23,-1
 401 925 l 1,24,-1
 456 868 l 1,25,-1
 324 743 l 1,26,-1
 256 743 l 1,20,-1
EndSplineSet
EndChar

StartChar: rcaron
Encoding: 345 345 277
Width: 381
GlyphClass: 2
Flags: W
LayerCount: 2
Fore
SplineSet
226 514 m 128,-1,1
 261 545 261 545 307.5 545 c 128,-1,2
 354 545 354 545 392 526 c 1,3,-1
 357 405 l 1,4,5
 326 414 326 414 304 414 c 0,6,7
 265 414 265 414 233.5 385 c 128,-1,8
 202 356 202 356 202 300 c 2,9,-1
 202 0 l 1,10,-1
 49 0 l 1,11,-1
 49 377 l 1,12,-1
 38 525 l 1,13,-1
 154 540 l 1,14,-1
 172 430 l 1,15,-1
 176 430 l 1,16,0
 191 483 191 483 226 514 c 128,-1,1
357 695 m 1,17,-1
 225 573 l 1,18,-1
 156 573 l 1,19,-1
 25 695 l 1,20,-1
 80 752 l 1,21,-1
 191 668 l 1,22,-1
 302 752 l 1,23,-1
 357 695 l 1,17,-1
EndSplineSet
EndChar

StartChar: Sacute
Encoding: 346 346 278
Width: 531
GlyphClass: 2
Flags: W
LayerCount: 2
Fore
SplineSet
387 930 m 1,0,-1
 437 824 l 1,1,-1
 205 739 l 1,2,-1
 161 819 l 1,3,-1
 387 930 l 1,0,-1
274 718 m 0,4,5
 478 718 478 718 497 530 c 1,6,-1
 345 506 l 1,7,8
 329 598 329 598 257 598 c 0,9,10
 227 598 227 598 209.5 581 c 128,-1,11
 192 564 192 564 192 542 c 128,-1,12
 192 520 192 520 199.5 505 c 128,-1,13
 207 490 207 490 215.5 479.5 c 128,-1,14
 224 469 224 469 243.5 456 c 128,-1,15
 263 443 263 443 274.5 436.5 c 128,-1,16
 286 430 286 430 313 416 c 128,-1,17
 340 402 340 402 365 388 c 128,-1,18
 390 374 390 374 412.5 359.5 c 128,-1,19
 435 345 435 345 462 321 c 0,20,21
 512 275 512 275 512 193.5 c 128,-1,22
 512 112 512 112 442 49.5 c 128,-1,23
 372 -13 372 -13 262 -13 c 0,24,25
 202 -13 202 -13 137.5 7 c 128,-1,26
 73 27 73 27 22 62 c 1,27,-1
 81 171 l 1,28,29
 179 116 179 116 259 116 c 0,30,31
 291 116 291 116 316.5 133 c 128,-1,32
 342 150 342 150 342 183 c 0,33,34
 342 201 342 201 335.5 212 c 128,-1,35
 329 223 329 223 325 229 c 128,-1,36
 321 235 321 235 312 241.5 c 128,-1,37
 303 248 303 248 297 252.5 c 128,-1,38
 291 257 291 257 278.5 263.5 c 128,-1,39
 266 270 266 270 259.5 273.5 c 128,-1,40
 253 277 253 277 238 284.5 c 128,-1,41
 223 292 223 292 202 302.5 c 128,-1,42
 181 313 181 313 165 321.5 c 128,-1,43
 149 330 149 330 118.5 351.5 c 128,-1,44
 88 373 88 373 73 392 c 0,45,46
 32 446 32 446 32 512 c 0,47,48
 32 601 32 601 101.5 659.5 c 128,-1,49
 171 718 171 718 274 718 c 0,4,5
EndSplineSet
EndChar

StartChar: sacute
Encoding: 347 347 279
Width: 457
GlyphClass: 2
Flags: W
LayerCount: 2
Fore
SplineSet
87 500 m 128,-1,1
 145 545 145 545 233 545 c 128,-1,2
 321 545 321 545 370 504.5 c 128,-1,3
 419 464 419 464 427 391 c 1,4,-1
 293 365 l 1,5,6
 286 432 286 432 226 432 c 0,7,8
 204 432 204 432 190 419 c 128,-1,9
 176 406 176 406 176 391 c 128,-1,10
 176 376 176 376 179.5 368.5 c 128,-1,11
 183 361 183 361 190.5 354 c 128,-1,12
 198 347 198 347 205.5 341.5 c 128,-1,13
 213 336 213 336 226.5 330 c 128,-1,14
 240 324 240 324 250 320 c 1,15,16
 264 312 264 312 314 291.5 c 128,-1,17
 364 271 364 271 398 239 c 128,-1,18
 432 207 432 207 432 146 c 128,-1,19
 432 85 432 85 376.5 36.5 c 128,-1,20
 321 -12 321 -12 220 -12 c 128,-1,21
 119 -12 119 -12 18 47 c 1,22,-1
 73 146 l 1,23,24
 173 103 173 103 220 103 c 0,25,26
 243 103 243 103 258.5 113 c 128,-1,27
 274 123 274 123 274 143 c 0,28,29
 274 164 274 164 252 177 c 0,30,31
 229 191 229 191 217 196 c 0,32,33
 122 233 122 233 73 273 c 0,34,35
 29 309 29 309 29 382 c 128,-1,0
 29 455 29 455 87 500 c 128,-1,1
349 768 m 1,36,-1
 404 665 l 1,37,-1
 180 568 l 1,38,-1
 133 646 l 1,39,-1
 349 768 l 1,36,-1
EndSplineSet
EndChar

